<?xml version="1.0" standalone="no"?>
<!DOCTYPE svg PUBLIC "-//W3C//DTD SVG 1.1//EN" "http://www.w3.org/Graphics/SVG/1.1/DTD/svg11.dtd" >
<svg>
<metadata>
Created by FontForge 20090914 at Sun Sep 23 23:30:11 2018
 By www-data
&#194;&#169; 2001, Apostrophic Labs. All rights reserved. Visit www.apostrophiclab.com or email info@apostrophiclab.com for more information.
</metadata>
<defs>
<font id="Amerika" horiz-adv-x="344" >
  <font-face 
    font-family="Amerika"
    font-weight="400"
    font-stretch="normal"
    units-per-em="1000"
    panose-1="2 4 7 5 6 4 2 2 2 3"
    ascent="800"
    descent="-200"
    x-height="498.002"
    cap-height="750"
    bbox="-115.999 -298.997 1235 1047"
    underline-thickness="50"
    underline-position="-75"
    unicode-range="U+0020-U+FB04"
  />
<missing-glyph horiz-adv-x="500" 
 />
    <glyph glyph-name=".notdef" horiz-adv-x="500" 
 />
    <glyph glyph-name="space" unicode=" " horiz-adv-x="350" 
 />
    <glyph glyph-name="space" unicode="&#xa0;" horiz-adv-x="350" 
 />
    <glyph glyph-name="exclam" unicode="!" horiz-adv-x="174" 
d="M150 750h-123l34 -600h51zM89 115c-21.333 0 -36.5 -5.83301 -45.5 -17.5s-13.833 -25.167 -14.5 -40.5c0.666992 -15.333 5.5 -28.666 14.5 -39.999s24.167 -17 45.5 -17c20 0 34.333 5.66699 43 17s13.667 24.666 15 39.999c-1.33301 15.333 -6.33301 28.833 -15 40.5
s-23 17.5 -43 17.5z" />
    <glyph glyph-name="quotedbl" unicode="&#x22;" horiz-adv-x="270" 
d="M251 750h-90l30 -250h38zM111 750h-90l31 -250h37z" />
    <glyph glyph-name="numbersign" unicode="#" horiz-adv-x="549" 
d="M532 555v43h-112l26 151l-54 2l-29 -153h-135l29 151l-53 2l-32 -153h-105v-43h100l-25 -125h-119v-44h114l-24 -130l52 1l25 129h140l-21 -130l53 1l24 129h102v44h-99l22 125h121zM358 555l-23 -125h-137l22 125h138z" />
    <glyph glyph-name="dollar" unicode="$" horiz-adv-x="462" 
d="M264 -3l-0.00292969 78.001c24 1.33301 46.333 5.83301 67 13.5s38.667 18.167 54 31.5s27.5 29.166 36.5 47.499s14.167 39.166 15.5 62.499c0.666992 14 -0.833008 28.5 -4.5 43.5s-9.66699 29.5 -18 43.5s-19.166 27.167 -32.499 39.5s-29.666 22.5 -48.999 30.5
l-69 28v203c12.667 -2 25.167 -4.83301 37.5 -8.5s23.5 -8.16699 33.5 -13.5s18 -11.666 24 -18.999s9 -16 9 -26l-1 -67l38 -1l4.5 34l5 39c1.66699 13.333 3.5 26.333 5.5 39s4 24 6 34c-28.667 11.333 -55.834 19.833 -81.501 25.5s-52.5 9.5 -80.5 11.5v87h-71v-85
c-54.667 -5.33301 -96.334 -19.5 -125.001 -42.5s-43.667 -59.5 -45 -109.5c-1.33301 -30 8.33398 -58.333 29.001 -85s52 -47.667 94 -63l47 -17v-224c-14.667 2 -28.334 4.33301 -41.001 7s-23.667 6.5 -33 11.5s-16.666 11.333 -21.999 19s-8 16.834 -8 27.501v68h-38
c-1.33301 -10 -2.66602 -21.333 -3.99902 -34s-2.83301 -25.834 -4.5 -39.501s-3.5 -26.834 -5.5 -39.501s-4 -24 -6 -34c26.667 -8.66699 53.334 -16.167 80.001 -22.5s54 -11.166 82 -14.499v-79h71zM271.997 323.001c14 -5.33301 25.666 -12.501 34.999 -21.501
s16.833 -18.833 22.5 -29.5s9.83398 -21.167 12.501 -31.5s4 -19.166 4 -26.499c0.666992 -30 -7 -51.5 -23 -64.5s-35.667 -21.167 -59 -24.5v201zM106.996 534c-1.33301 24 6.5 42.833 23.5 56.5s37.833 23.167 62.5 28.5v-173c-24 12 -44.333 25.667 -61 41
s-25 31 -25 47z" />
    <glyph glyph-name="percent" unicode="%" horiz-adv-x="858" 
d="M380 554c0 21.333 -3.99902 43.501 -11.999 66.501s-19.333 44.167 -34 63.5s-32.834 35.166 -54.501 47.499s-46.167 18.5 -73.5 18.5c-28.667 0 -54.167 -6 -76.5 -18s-41 -27.333 -56 -46s-26.5 -39.667 -34.5 -63s-12 -46.333 -12 -69v-50c0 -22 4 -45.167 12 -69.5
s19.5 -46.833 34.5 -67.5s33.667 -37.834 56 -51.501s47.833 -20.5 76.5 -20.5c27.333 0 51.833 6.83301 73.5 20.5s40 30.834 55 51.501s26.333 43.167 34 67.5s11.5 47.5 11.5 69.5v50zM832.001 256.001c0 21.333 -3.99902 43.501 -11.999 66.501s-19.333 44.167 -34 63.5
s-32.834 35.166 -54.501 47.499s-46.167 18.5 -73.5 18.5c-28.667 0 -54.167 -6 -76.5 -18s-41 -27.333 -56 -46s-26.5 -39.667 -34.5 -63s-12 -46.333 -12 -69v-50c0 -22 4 -45.167 12 -69.5s19.5 -46.833 34.5 -67.5s33.667 -37.834 56 -51.501s47.833 -20.5 76.5 -20.5
c27.333 0 51.833 6.83301 73.5 20.5s40 30.834 55 51.501s26.333 43.167 34 67.5s11.5 47.5 11.5 69.5v50zM106.002 495.002l0.000976562 66.0029c0 18 2.83301 35.667 8.5 53s13 32.666 22 45.999s19.5 24.166 31.5 32.499s24 12.5 36 12.5s23.833 -4.33301 35.5 -13
s22 -19.834 31 -33.501s16.333 -29 22 -46s8.5 -34.167 8.5 -51.5v-66c0 -16.667 -2.83301 -34 -8.5 -52s-13 -34.5 -22 -49.5s-19.5 -27.5 -31.5 -37.5s-24.333 -15 -37 -15c-12 0 -23.333 4.5 -34 13.5s-20.334 20.833 -29.001 35.5s-16 31.167 -22 49.5
s-9.66699 36.833 -11 55.5zM558.003 197.005l0.000976562 66.0029c0 18 2.83301 35.667 8.5 53s13 32.666 22 45.999s19.5 24.166 31.5 32.499s24 12.5 36 12.5s23.833 -4.33301 35.5 -13s22 -19.834 31 -33.501s16.333 -29 22 -46s8.5 -34.167 8.5 -51.5v-66
c0 -16.667 -2.83301 -34 -8.5 -52s-13 -34.5 -22 -49.5s-19.5 -27.5 -31.5 -37.5s-24.333 -15 -37 -15c-12 0 -23.333 4.5 -34 13.5s-20.334 20.833 -29.001 35.5s-16 31.167 -22 49.5s-9.66699 36.833 -11 55.5zM587.004 751.008l-17 -32.5l-44 -85l-62 -120l-71.5 -138
l-71.5 -138l-62 -120l-43.5 -85c-11 -21.667 -16.167 -32.5 -15.5 -32.5h51c0.666992 0 7.16699 10.833 19.5 32.5l48 85l67.5 120l77.5 138l77.5 138l67.5 120l47.5 85l18 32.5h-87z" />
    <glyph glyph-name="ampersand" unicode="&#x26;" horiz-adv-x="630" 
d="M630 -1l1.00293 52c-18 0 -32 2.16699 -42 6.5s-17.333 12.166 -22 23.499s-7.33398 26.833 -8.00098 46.5s-1 44.5 -1 74.5v177h72v46h-72v132h-115v-132h-237v111c0 27.333 0.333008 50.666 1 69.999s3.16699 35.166 7.5 47.499s11 21.833 20 28.5s21.5 11 37.5 13h199
v55h-471v-46l10 1c20 0 35.333 -2.66699 46 -8s18.667 -14.166 24 -26.499s8.5 -28.666 9.5 -48.999s1.5 -45.833 1.5 -76.5v-285c0 -43.333 3.66699 -79.833 11 -109.5s17.666 -54.167 30.999 -73.5s29.666 -34.166 48.999 -44.499s40.833 -18 64.5 -23s49.5 -8 77.5 -9
s57.333 -1.5 88 -1.5h218zM206.003 228v151.002h237v-176c0 -21.333 -0.5 -40.833 -1.5 -58.5s-3.83301 -32.834 -8.5 -45.501s-11.5 -22.834 -20.5 -30.501s-21.833 -12.167 -38.5 -13.5c-25.333 -1.33301 -48.666 -1.33301 -69.999 0s-39.5 7.33301 -54.5 18
s-26.333 28 -34 52s-10.834 58.333 -9.50098 103z" />
    <glyph glyph-name="quotesingle" unicode="'" horiz-adv-x="132" 
d="M111 750h-90l31 -250h37z" />
    <glyph glyph-name="parenleft" unicode="(" horiz-adv-x="310" 
d="M334 -59c-128 104 -192 246.667 -192 428c0 180 64 322 192 426l-2 2c-87.333 -34 -158.333 -88.333 -213 -163c-58 -80 -87 -168.667 -87 -266c0 -98 29 -186.333 87 -265c55.333 -75.333 126.333 -130 213 -164z" />
    <glyph glyph-name="parenright" unicode=")" horiz-adv-x="299" 
d="M-37 -49l2 -2c86.667 34 157.667 88.667 213 164c58 78.667 87 167 87 265c0 97.333 -29 186 -87 266c-54.667 74.667 -125.667 129 -213 163l-2 -2c128 -104 192 -246 192 -426c0 -181.333 -64 -324 -192 -428z" />
    <glyph glyph-name="asterisk" unicode="*" horiz-adv-x="387" 
d="M352 616l-122 -22l61 110l-94 39l-24 -129l-89 93l-56 -86l113 -55l-115 -47l53 -90l94 89l18 -133l96 47l-59 106l124 -20v98z" />
    <glyph glyph-name="plus" unicode="+" horiz-adv-x="493" 
d="M215 380h-196v-65h196v-195h64v195h196v65h-196v195h-64v-195z" />
    <glyph glyph-name="comma" unicode="," horiz-adv-x="180" 
d="M104 2c2 -10 0.165039 -20.6641 -5.50195 -31.9971s-12.667 -22 -21 -32s-16.666 -18.833 -24.999 -26.5s-13.5 -12.834 -15.5 -15.501c-5.33301 -4.66699 -6.66602 -9 -3.99902 -13l4 -6c24 19.333 43.5 36.833 58.5 52.5s26.667 30.667 35 45s14 28.166 17 41.499
s4.5 27.333 4.5 42c0 6.66699 -1.16699 14 -3.5 22s-6.33301 15.333 -12 22s-12.667 12.167 -21 16.5s-18.5 6.5 -30.5 6.5c-19.333 0 -33.833 -6.33301 -43.5 -19s-14.5 -28.667 -14.5 -48c0 -6.66699 1.5 -13.334 4.5 -20.001s7.66699 -12.834 14 -18.501
s14.333 -10.167 24 -13.5s21.167 -4.66602 34.5 -3.99902z" />
    <glyph glyph-name="hyphen" unicode="-" horiz-adv-x="350" 
d="M48 304v-75h250v75h-250z" />
    <glyph glyph-name="hyphen" unicode="&#xad;" horiz-adv-x="350" 
d="M48 304v-75h250v75h-250z" />
    <glyph glyph-name="period" unicode="." horiz-adv-x="166" 
d="M85 115c-21.333 0 -36.5 -5.83301 -45.5 -17.5s-13.833 -25.167 -14.5 -40.5c0.666992 -15.333 5.5 -28.666 14.5 -39.999s24.167 -17 45.5 -17c20 0 34.333 5.66699 43 17s13.667 24.666 15 39.999c-1.33301 15.333 -6.33301 28.833 -15 40.5s-23 17.5 -43 17.5z" />
    <glyph glyph-name="slash" unicode="/" horiz-adv-x="452" 
d="M428 790l-20.501 -37l-54 -98l-76.5 -138.5l-87.5 -159l-87.5 -159l-76 -138.5l-53.5 -98c-13.667 -24.667 -20.167 -37 -19.5 -37h51c0.666992 0 8.33398 12.333 23.001 37l58 98l82 138.5l93.5 159l93.5 159l81.5 138.5l57.5 98l22 37h-87z" />
    <glyph glyph-name="zero" unicode="0" horiz-adv-x="657" 
d="M620 428c-0.666992 34.667 -7.33496 71.167 -20.002 109.5s-31.167 73.166 -55.5 104.499s-54.166 57.333 -89.499 78s-75.333 31 -120 31c-47.333 0 -89.166 -9.83301 -125.499 -29.5s-67 -45 -92 -76s-44 -65.667 -57 -104s-19.5 -76.166 -19.5 -113.499v-86
c0 -35.333 6.5 -73 19.5 -113s32 -77 57 -111s55.667 -62.167 92 -84.5s78.166 -33.5 125.499 -33.5c44.667 0 84.667 11.167 120 33.5s65.333 50.5 90 84.5s43.334 71 56.001 111s19 77.667 19 113v86zM155.999 330v109.998c0 31.333 5.16699 62.166 15.5 92.499
s23.833 57.333 40.5 81s35.334 42.834 56.001 57.501s41.334 21.667 62.001 21c20.667 0.666992 41.5 -6.33301 62.5 -21s39.833 -34.167 56.5 -58.5s30.167 -51.666 40.5 -81.999s15.5 -60.5 15.5 -90.5v-110c0 -29.333 -5.16699 -60.166 -15.5 -92.499
s-23.833 -61.833 -40.5 -88.5s-35.5 -48.5 -56.5 -65.5s-41.833 -25.167 -62.5 -24.5c-20.667 -0.666992 -40.834 7 -60.501 23s-37.334 37 -53.001 63s-29 55.167 -40 87.5s-17.833 64.833 -20.5 97.5z" />
    <glyph glyph-name="one" unicode="1" 
d="M235 205v544.998h-206v-45h10c20 0 35.333 -2.66699 46 -8s18.667 -14.166 24 -26.499s8.5 -28.666 9.5 -48.999s1.5 -45.833 1.5 -76.5v-340c0 -30.667 -0.5 -56.167 -1.5 -76.5s-4.33301 -36.666 -10 -48.999s-14.667 -21.166 -27 -26.499s-29.5 -8 -51.5 -8v-45h296
v45h-10c-20 0 -35.333 2.66699 -46 8s-18.667 14.166 -24 26.499s-8.5 28.666 -9.5 48.999s-1.5 45.833 -1.5 76.5z" />
    <glyph glyph-name="two" unicode="2" horiz-adv-x="551" 
d="M498 183h-50l-1 -70c-2 -17.333 -9.66699 -29.666 -23 -36.999s-36.333 -11.666 -69 -12.999l-193 -1l-1 100c1.33301 36.667 10.166 65.167 26.499 85.5s36.333 36.5 60 48.5s48.5 21.833 74.5 29.5s49.667 17.5 71 29.5c6.66699 4 17.5 11.667 32.5 23
s29.833 25.333 44.5 42s27.5 35.5 38.5 56.5s16.167 43.167 15.5 66.5c-1.33301 30.667 -7.16602 58.667 -17.499 84s-25.666 47 -45.999 65s-45.333 32 -75 42s-64.5 15 -104.5 15c-46 -0.666992 -91.167 -5.66699 -135.5 -15s-88.833 -21 -133.5 -35
c2.66699 -12.667 5.16699 -27 7.5 -43l7 -49c2.33301 -16.667 4.5 -33 6.5 -49s3.66699 -30.333 5 -43h48l-1 85c0 16.667 4.83301 30.167 14.5 40.5s23 18.666 40 24.999s36.333 11 58 14s44.5 5.5 68.5 7.5c20 0 38.833 -2.33301 56.5 -7s33 -11.834 46 -21.501
s23.167 -22.334 30.5 -38.001s10.666 -34.834 9.99902 -57.501c0 -9.33301 -1.66699 -20.166 -5 -32.499s-8.5 -24.5 -15.5 -36.5s-16.333 -23.167 -28 -33.5s-26.5 -18.833 -44.5 -25.5l-158 -57c-17.333 -6 -33.166 -15.833 -47.499 -29.5s-26.833 -29.167 -37.5 -46.5
s-18.834 -35.666 -24.501 -54.999s-8.5 -38 -8.5 -56v-192h458v184z" />
    <glyph glyph-name="three" unicode="3" horiz-adv-x="520" 
d="M243 62c-19.333 0 -35.667 1.6709 -49 5.00391s-25 8.66602 -35 15.999s-19.167 16.666 -27.5 27.999s-16.833 24.666 -25.5 39.999c-18.667 -16 -32.834 -27.167 -42.501 -33.5s-16.667 -10.333 -21 -12s-6.33301 -2.33398 -6 -2.00098
s1.16602 -0.833984 2.49902 -3.50098c7.33301 -15.333 20.666 -32 39.999 -50s47.666 -33 84.999 -45c48 -11.333 92.333 -12.666 133 -3.99902s76 24.5 106 47.5s53.5 52.167 70.5 87.5s25.5 74.333 25.5 117c0 26.667 -4.5 51.167 -13.5 73.5s-21.667 41.833 -38 58.5
s-36.5 29.667 -60.5 39s-51 14 -81 14l188 198v114h-470v-159h45c0 16 0.166992 29.833 0.5 41.5s2.33301 21.334 6 29.001s9.5 13.167 17.5 16.5s20 5 36 5h261l-205 -304c38 0 69.833 -2.5 95.5 -7.5s46.334 -12 62.001 -21s27.334 -19.833 35.001 -32.5
s12.5 -27 14.5 -43c4.66699 -37.333 3.33398 -69 -3.99902 -95s-18.166 -47.167 -32.499 -63.5s-31.5 -28.833 -51.5 -37.5s-40.333 -14.334 -61 -17.001z" />
    <glyph glyph-name="four" unicode="4" horiz-adv-x="589" 
d="M6 228l10.998 -31.998h327c0 -28.667 -0.666992 -52.667 -2 -72s-5 -34.833 -11 -46.5s-15 -20 -27 -25s-28.667 -7.5 -50 -7.5v-45h296v45h-10c-19.333 0 -34.333 2.5 -45 7.5s-18.667 13.333 -24 25s-8.66602 27.167 -9.99902 46.5s-2 43.333 -2 72h110v150h-45
c0 -16 -0.166992 -29.833 -0.5 -41.5s-2.16602 -21.334 -5.49902 -29.001s-9 -13.334 -17 -17.001s-20 -5.5 -36 -5.5h-6v498h-115zM113.998 252.002l230 356v-356h-230z" />
    <glyph glyph-name="five" unicode="5" horiz-adv-x="501" 
d="M445 566l0.00292969 183.999h-412v-402h121c13.333 36 28.666 62.167 45.999 78.5s38.333 24.166 63 23.499c7.33301 0.666992 16.5 -2.16602 27.5 -8.49902s21.833 -17 32.5 -32s19.667 -34.167 27 -57.5s11 -51.666 11 -84.999v-35c0 -33.333 -4.5 -61.833 -13.5 -85.5
s-21 -43 -36 -58s-32.333 -25.833 -52 -32.5s-39.834 -9.66699 -60.501 -9c-26 -0.666992 -49.5 3.66602 -70.5 12.999s-38.833 22.666 -53.5 39.999l-56 -40c12 -15.333 26.167 -27.666 42.5 -36.999s33 -16.5 50 -21.5s33.667 -8.5 50 -10.5s30.5 -3 42.5 -3
c44 0 82.5 6.5 115.5 19.5s60.833 31 83.5 54s40.167 50.5 52.5 82.5s19.166 67.333 20.499 106c0 50 -6.16699 91.167 -18.5 123.5s-27.5 58 -45.5 77s-37.167 32.667 -57.5 41s-38.166 13.166 -53.499 14.499c-12 1.33301 -25 1.5 -39 0.5s-27.833 -3.66699 -41.5 -8
s-26.834 -10.5 -39.501 -18.5s-24 -18.333 -34 -31l1 238l154 -1c32.667 -1.33301 55.667 -5.66602 69 -12.999s21 -19.666 23 -36.999l1 -70h50z" />
    <glyph glyph-name="six" unicode="6" horiz-adv-x="577" 
d="M289 0c46 0 85.3311 7.00098 117.998 21.001s59.334 32.5 80.001 55.5s36 49.5 46 79.5s15.333 61.333 16 94c-1.33301 33.333 -7 65 -17 95s-25.333 56.5 -46 79.5s-47.167 41.167 -79.5 54.5s-71.5 20 -117.5 20c-23.333 0 -46.333 -5 -69 -15l-58 -26
c4 40.667 11.833 75.834 23.5 105.501s26.834 55.167 45.501 76.5s41 39.166 67 53.499s55.333 26.166 88 35.499l-17 21c-43.333 0 -82 -7.83301 -116 -23.5s-63.833 -36.667 -89.5 -63s-47.167 -56.5 -64.5 -90.5s-31 -69.5 -41 -106.5s-16.5 -74.167 -19.5 -111.5
s-2.83301 -72.333 0.5 -105c1.33301 -32.667 7 -64 17 -94s25 -56.5 45 -79.5s45.333 -41.5 76 -55.5s68 -21 112 -21zM433.998 267.001v-35c0 -33.333 -3.33301 -61.166 -10 -83.499s-16.167 -40.166 -28.5 -53.499s-27.166 -22.833 -44.499 -28.5
s-36.333 -8.16699 -57 -7.5c-20.667 -0.666992 -39.667 1.66602 -57 6.99902s-32.166 14.666 -44.499 27.999s-21.833 31.333 -28.5 54s-10 50.667 -10 84v35c0 33.333 3.33301 61.333 10 84s16.167 40.667 28.5 54s27.166 22.666 44.499 27.999s36.333 7.66602 57 6.99902
c20.667 0.666992 39.667 -1.83301 57 -7.5s32.166 -15.167 44.499 -28.5s21.833 -31.166 28.5 -53.499s10 -50.166 10 -83.499z" />
    <glyph glyph-name="seven" unicode="7" horiz-adv-x="512" 
d="M24 591l45 -0.000976562c0 16 0.166992 29.833 0.5 41.5s2.33301 21.334 6 29.001s9.5 13.167 17.5 16.5s20 5 36 5l279 1l-372 -684h120l338 711v40l-470 -1v-159z" />
    <glyph glyph-name="eight" unicode="8" horiz-adv-x="577" 
d="M292 754c-37.333 0 -69.167 -4.83105 -95.5 -14.498s-47.833 -22.834 -64.5 -39.501s-29 -35.667 -37 -57s-12.333 -43.666 -13 -66.999c1.33301 -32 9 -61.833 23 -89.5s36.667 -49.167 68 -64.5c-24.667 -9.33301 -45.667 -21 -63 -35s-31.833 -29.833 -43.5 -47.5
s-20.167 -36.667 -25.5 -57s-8.33301 -41.166 -9 -62.499c1.33301 -29.333 7 -57.333 17 -84s25.333 -50 46 -70s47.167 -36 79.5 -48s71.5 -18 117.5 -18c44 0 81.5 5.83301 112.5 17.5s56.5 27.5 76.5 47.5s34.833 43.333 44.5 70s15.167 55 16.5 85
c-1.33301 21.333 -4.83301 42.166 -10.5 62.499s-14 39.333 -25 57s-24.833 33.5 -41.5 47.5s-36.334 25.333 -59.001 34c30 15.333 51.833 36.666 65.5 63.999s21.167 57.666 22.5 90.999c-1.33301 23.333 -5.83301 45.666 -13.5 66.999s-19.5 40.333 -35.5 57
s-36.667 29.834 -62 39.501s-55.666 14.5 -90.999 14.5zM146.999 215.002v5c0 29.333 3.33301 54 10 74s16.167 35.833 28.5 47.5s27.166 20 44.499 25s36.333 7.16699 57 6.5c20.667 0.666992 39.667 -1.33301 57 -6s32.166 -13 44.499 -25s21.833 -27.833 28.5 -47.5
s10 -44.5 10 -74.5v-5c0 -29.333 -3.33301 -54 -10 -74s-16.167 -35.833 -28.5 -47.5s-27.166 -20 -44.499 -25s-36.333 -7.16699 -57 -6.5c-20.667 -0.666992 -39.667 1.5 -57 6.5s-32.166 13.5 -44.499 25.5s-21.833 27.833 -28.5 47.5s-10 44.167 -10 73.5z
M174.999 563.002c0 44 10.333 77.832 31 101.499s48 34.834 82 33.501c16.667 0.666992 32 -2.5 46 -9.5s26 -16 36 -27s17.667 -23 23 -36s8 -25.5 8 -37.5c0 -42 -9.16699 -76 -27.5 -102s-45.5 -41 -81.5 -45c-38.667 3.33301 -67.5 17 -86.5 41s-29.167 51 -30.5 81z
" />
    <glyph glyph-name="nine" unicode="9" horiz-adv-x="577" 
d="M297 750c-46 0 -85.3311 -7.00098 -117.998 -21.001s-59.334 -32.5 -80.001 -55.5s-36 -49.5 -46 -79.5s-15.333 -61.333 -16 -94c1.33301 -33.333 7 -65 17 -95s25.333 -56.5 46 -79.5s47.167 -41.167 79.5 -54.5s71.5 -20 117.5 -20c23.333 0 46.333 5 69 15l58 26
c-4 -40.667 -11.833 -75.834 -23.5 -105.501s-26.834 -55.167 -45.501 -76.5s-41 -39.166 -67 -53.499s-55.333 -26.166 -88 -35.499l17 -21c43.333 -0 82 7.83301 116 23.5s63.833 36.667 89.5 63s47.167 56.5 64.5 90.5s31 69.5 41 106.5s16.5 74.167 19.5 111.5
s2.83301 72.333 -0.5 105c-1.33301 32.667 -7 64 -17 94s-25 56.5 -45 79.5s-45.333 41.5 -76 55.5s-68 21 -112 21zM152.002 482.999v35c0 33.333 3.33301 61.166 10 83.499s16.167 40.166 28.5 53.499s27.166 22.833 44.499 28.5s36.333 8.16699 57 7.5
c20.667 0.666992 39.667 -1.66602 57 -6.99902s32.166 -14.666 44.499 -27.999s21.833 -31.333 28.5 -54s10 -50.667 10 -84v-35c0 -33.333 -3.33301 -61.333 -10 -84s-16.167 -40.667 -28.5 -54s-27.166 -22.666 -44.499 -27.999s-36.333 -7.66602 -57 -6.99902
c-20.667 -0.666992 -39.667 1.83301 -57 7.5s-32.166 15.167 -44.499 28.5s-21.833 31.166 -28.5 53.499s-10 50.166 -10 83.499z" />
    <glyph glyph-name="colon" unicode=":" horiz-adv-x="166" 
d="M85 115c-21.333 0 -36.5 -5.83301 -45.5 -17.5s-13.833 -25.167 -14.5 -40.5c0.666992 -15.333 5.5 -28.666 14.5 -39.999s24.167 -17 45.5 -17c20 0 34.333 5.66699 43 17s13.667 24.666 15 39.999c-1.33301 15.333 -6.33301 28.833 -15 40.5s-23 17.5 -43 17.5zM85 382
c-21.333 0 -36.5 -5.83301 -45.5 -17.5s-13.833 -25.167 -14.5 -40.5c0.666992 -15.333 5.5 -28.666 14.5 -39.999s24.167 -17 45.5 -17c20 0 34.333 5.66699 43 17s13.667 24.666 15 39.999c-1.33301 15.333 -6.33301 28.833 -15 40.5s-23 17.5 -43 17.5z" />
    <glyph glyph-name="semicolon" unicode=";" horiz-adv-x="180" 
d="M104 2c2 -10 0.165039 -20.6641 -5.50195 -31.9971s-12.667 -22 -21 -32s-16.666 -18.833 -24.999 -26.5s-13.5 -12.834 -15.5 -15.501c-5.33301 -4.66699 -6.66602 -9 -3.99902 -13l4 -6c24 19.333 43.5 36.833 58.5 52.5s26.667 30.667 35 45s14 28.166 17 41.499
s4.5 27.333 4.5 42c0 6.66699 -1.16699 14 -3.5 22s-6.33301 15.333 -12 22s-12.667 12.167 -21 16.5s-18.5 6.5 -30.5 6.5c-19.333 0 -33.833 -6.33301 -43.5 -19s-14.5 -28.667 -14.5 -48c0 -6.66699 1.5 -13.334 4.5 -20.001s7.66699 -12.834 14 -18.501
s14.333 -10.167 24 -13.5s21.167 -4.66602 34.5 -3.99902zM87.998 376.003c-21.333 0 -36.5 -5.83301 -45.5 -17.5s-13.833 -25.167 -14.5 -40.5c0.666992 -15.333 5.5 -28.666 14.5 -39.999s24.167 -17 45.5 -17c20 0 34.333 5.66699 43 17s13.667 24.666 15 39.999
c-1.33301 15.333 -6.33301 28.833 -15 40.5s-23 17.5 -43 17.5z" />
    <glyph glyph-name="semicolon" unicode="&#x37e;" horiz-adv-x="180" 
d="M104 2c2 -10 0.165039 -20.6641 -5.50195 -31.9971s-12.667 -22 -21 -32s-16.666 -18.833 -24.999 -26.5s-13.5 -12.834 -15.5 -15.501c-5.33301 -4.66699 -6.66602 -9 -3.99902 -13l4 -6c24 19.333 43.5 36.833 58.5 52.5s26.667 30.667 35 45s14 28.166 17 41.499
s4.5 27.333 4.5 42c0 6.66699 -1.16699 14 -3.5 22s-6.33301 15.333 -12 22s-12.667 12.167 -21 16.5s-18.5 6.5 -30.5 6.5c-19.333 0 -33.833 -6.33301 -43.5 -19s-14.5 -28.667 -14.5 -48c0 -6.66699 1.5 -13.334 4.5 -20.001s7.66699 -12.834 14 -18.501
s14.333 -10.167 24 -13.5s21.167 -4.66602 34.5 -3.99902zM87.998 376.003c-21.333 0 -36.5 -5.83301 -45.5 -17.5s-13.833 -25.167 -14.5 -40.5c0.666992 -15.333 5.5 -28.666 14.5 -39.999s24.167 -17 45.5 -17c20 0 34.333 5.66699 43 17s13.667 24.666 15 39.999
c-1.33301 15.333 -6.33301 28.833 -15 40.5s-23 17.5 -43 17.5z" />
    <glyph glyph-name="less" unicode="&#x3c;" horiz-adv-x="503" 
d="M483 58v76l-383 159l383 147v86l-463 -190v-86z" />
    <glyph glyph-name="equal" unicode="=" horiz-adv-x="399" 
d="M0 277v-75h401v75h-401zM0 455v-75h401v75h-401z" />
    <glyph glyph-name="greater" unicode="&#x3e;" horiz-adv-x="503" 
d="M403 293l-383 -159v-76l463 192v86l-463 190v-86z" />
    <glyph glyph-name="question" unicode="?" horiz-adv-x="531" 
d="M381 359c6.66699 4 17.498 11.6699 32.498 23.0029s29.833 25.333 44.5 42s27.5 35.5 38.5 56.5s16.167 43.167 15.5 66.5c-1.33301 30.667 -7.16602 58.667 -17.499 84s-25.666 47 -45.999 65s-45.333 32 -75 42s-64.5 15 -104.5 15
c-46 -0.666992 -91.167 -5.66699 -135.5 -15s-88.833 -21 -133.5 -35c2.66699 -12.667 5.16699 -27 7.5 -43l7 -49c2.33301 -16.667 4.5 -33 6.5 -49s3.66699 -30.333 5 -43h48l-1 85c0 16.667 4.83301 30.167 14.5 40.5s23 18.666 40 24.999s36.333 11 58 14
s44.5 5.5 68.5 7.5c20 0 38.833 -2.33301 56.5 -7s33 -11.834 46 -21.501s23.167 -22.334 30.5 -38.001s10.666 -34.834 9.99902 -57.501c0 -9.33301 -1.66699 -20.166 -5 -32.499s-8.5 -24.5 -15.5 -36.5s-16.333 -23.167 -28 -33.5s-26.5 -18.833 -44.5 -25.5l-45 -24
c-17.333 -6 -33.166 -15.833 -47.499 -29.5s-26.833 -29.167 -37.5 -46.5s-18.834 -35.666 -24.501 -54.999s-8.5 -38 -8.5 -56v-77h121v48c2.66699 26 6.33398 46.833 11.001 62.5s11.5 28.667 20.5 39s20.5 19.666 34.5 27.999zM205.998 109.003
c-21.333 0 -36.5 -5.83301 -45.5 -17.5s-13.833 -25.167 -14.5 -40.5c0.666992 -15.333 5.5 -28.666 14.5 -39.999s24.167 -17 45.5 -17c20 0 34.333 5.66699 43 17s13.667 24.666 15 39.999c-1.33301 15.333 -6.33301 28.833 -15 40.5s-23 17.5 -43 17.5z" />
    <glyph glyph-name="at" unicode="@" horiz-adv-x="933" 
d="M520 65c20.667 -2 42.8389 -2.50293 66.5059 -1.50293s47.5 3.83301 71.5 8.5s47 11.334 69 20.001s41.333 19.667 58 33c34 31.333 62.333 69.5 85 114.5s34 93.5 34 145.5c0 50.667 -9.33301 98 -28 142s-44.834 82.167 -78.501 114.5s-73.834 57.833 -120.501 76.5
s-98.334 28 -155.001 28c-60 0 -118.833 -10.5 -176.5 -31.5s-108.167 -49.5 -151.5 -85.5c-27.333 -22 -51 -46.833 -71 -74.5s-36.833 -56.834 -50.5 -87.501s-23.834 -62.5 -30.501 -95.5s-10 -65.833 -10 -98.5c0 -64.667 12.667 -123 38 -175
s62.666 -96.667 111.999 -134c78 -60 178.333 -90 301 -90c116 0 222.667 36 320 108l-15 34c-92.667 -67.333 -192.334 -101 -299.001 -101c-114 0 -208.667 32 -284 96c-40.667 34.667 -69.667 73.834 -87 117.501s-27 86.834 -29 129.501
c-3.33301 66.667 6.66699 127 30 181s56.333 101.667 99 143c78.667 76 179 114 301 114c46.667 0 90.334 -7.16699 131.001 -21.5s75.667 -34.166 105 -59.499c66 -58 99 -132 99 -222c0 -57.333 -10.5 -104.5 -31.5 -141.5s-51.833 -68.833 -92.5 -95.5
c-6 -4 -13 -7.16699 -21 -9.5s-16.167 -4.33301 -24.5 -6s-16.833 -2.5 -25.5 -2.5c-8 0 -15.333 0.666992 -22 2c32 116.667 48 175.667 48 177c5.33301 34.667 6.16602 66.167 2.49902 94.5s-13 52.166 -28 71.499s-36.333 34.333 -64 45s-62.5 16 -104.5 16
c-40 0 -75 -5.33301 -105 -16s-55.833 -25.667 -77.5 -45s-39.667 -43.166 -54 -71.499s-25.5 -59.833 -33.5 -94.5c-5.33301 -35.333 -6.83301 -68.333 -4.5 -99s10 -57.5 23 -80.5s31.833 -41.167 56.5 -54.5s57 -20 97 -20c26.667 0 53.667 11 81 33s54 48.333 80 79z
M486.005 489.997c18.667 0.666992 35.333 -1.49902 50 -6.49902s26.5 -13.667 35.5 -26s14.667 -28.833 17 -49.5s0.5 -46.334 -5.5 -77.001c-4 -23.333 -11 -47.333 -21 -72s-22.667 -47.167 -38 -67.5s-33 -37.5 -53 -51.5s-41.333 -21.667 -64 -23
c-38 -1.33301 -64.333 13.667 -79 45s-16.334 77.666 -5.00098 138.999c6.66699 38.667 15.5 70.334 26.5 95.001s23.333 44.167 37 58.5s28.834 24 45.501 29s34.667 7.16699 54 6.5z" />
    <glyph glyph-name="A" unicode="A" horiz-adv-x="800" 
d="M21 0h296v45c-22 0 -39.167 2.66699 -51.5 8s-21.333 14.166 -27 26.499s-9 28.666 -10 48.999s-1.5 45.833 -1.5 76.5v128h349v-128c0 -30.667 -0.5 -56.167 -1.5 -76.5s-4.33301 -36.666 -10 -48.999s-14.667 -21.166 -27 -26.499s-29.5 -8 -51.5 -8v-45h296v45h-10
c-20 0 -35.333 2.66699 -46 8s-18.667 14.166 -24 26.499s-8.5 28.666 -9.5 48.999s-1.5 45.833 -1.5 76.5v282c0 40.667 -6.33301 77.167 -19 109.5s-31.334 59.833 -56.001 82.5s-54.667 40.167 -90 52.5s-75.333 18.5 -120 18.5c-95.333 0 -168.166 -23.5 -218.499 -70.5
s-75.5 -111.167 -75.5 -192.5v-282c0 -30.667 -0.5 -56.167 -1.5 -76.5s-4.16699 -36.666 -9.5 -48.999s-13.333 -21.166 -24 -26.499s-26 -8 -46 -8l-10 -3v-42zM227 518c0 33.333 5.16504 61.166 15.498 83.499s23.833 40.166 40.5 53.499s35.334 22.833 56.001 28.5
s41.334 8.16699 62.001 7.5c20.667 0.666992 41.5 -1.66602 62.5 -6.99902s39.833 -14.666 56.5 -27.999s30.167 -31.333 40.5 -54s15.5 -50.667 15.5 -84v-139h-349v139z" />
    <glyph glyph-name="B" unicode="B" horiz-adv-x="639" 
d="M614 221c0 46.667 -11.667 84.6641 -35 113.997s-57.333 50.666 -102 63.999c34.667 16 61.5 38.333 80.5 67s28.5 61 28.5 97c0 58.667 -21.833 104.5 -65.5 137.5s-105.5 49.5 -185.5 49.5h-297v-45h10c20 0 35.333 -2.66699 46 -8s18.667 -14.166 24 -26.499
s8.5 -28.666 9.5 -48.999s1.5 -45.833 1.5 -76.5v-340c0 -30.667 -0.5 -56.167 -1.5 -76.5s-4.33301 -36.666 -10 -48.999s-14.667 -21.166 -27 -26.499s-29.5 -8 -51.5 -8v-45h329c35.333 -0 68 4.33301 98 13s56 22 78 40s39.167 41 51.5 69s18.5 61 18.5 99zM277 365.997
c42 0 77.498 -3.16699 106.498 -9.5s52.333 -16 70 -29s30.5 -29 38.5 -48s12 -40.833 12 -65.5c-1.33301 -28 -5.16602 -52.167 -11.499 -72.5s-16.166 -37.166 -29.499 -50.499s-30.5 -23.666 -51.5 -30.999s-46.5 -12.333 -76.5 -15c-22 0 -39.167 2.66699 -51.5 8
s-21.5 14.166 -27.5 26.499s-9.5 28.666 -10.5 48.999s-1.5 45.833 -1.5 76.5v148c1.33301 5.33301 4.33301 8.83301 9 10.5s12.667 2.5 24 2.5zM243.998 544.997c0 32.667 0.498047 59.501 1.49805 80.501s5.16699 37.5 12.5 49.5c9.33301 7.33301 27 11 53 11
c60.667 0 104 -9.66699 130 -29s39 -52.333 39 -99c0 -24.667 -3.66699 -45.834 -11 -63.501s-19.166 -32.167 -35.499 -43.5s-37.666 -19.666 -63.999 -24.999s-58.5 -8 -96.5 -8c-10 0 -17 0.666992 -21 2s-6.66699 5.66602 -8 12.999v112z" />
    <glyph glyph-name="C" unicode="C" horiz-adv-x="721" 
d="M678 137c-32 -21.333 -65.168 -37.6641 -99.501 -48.9971s-69.166 -17 -104.499 -17c-48.667 0 -92.834 8 -132.501 24s-73.5 38.5 -101.5 67.5s-49.5 63.5 -64.5 103.5s-22.5 84.333 -22.5 133c0 42 6.16699 81.167 18.5 117.5s30 67.666 53 93.999s51.167 47 84.5 62
s71 22.5 113 22.5c18 0 38.333 -1.5 61 -4.5s44 -8 64 -15s37 -16.167 51 -27.5s21 -25.333 21 -42l-1 -85h48c1.33301 12.667 3 27 5 43s4.16699 32.333 6.5 49l7 49c2.33301 16 4.83301 30.333 7.5 43c-46 16 -92.333 28.167 -139 36.5s-91 12.5 -133 12.5
c-53.333 0 -103.666 -8.5 -150.999 -25.5s-88.833 -41.667 -124.5 -74s-64 -71.833 -85 -118.5s-31.5 -99.667 -31.5 -159c0 -60.667 10.833 -114.5 32.5 -161.5s51.167 -86.5 88.5 -118.5s81 -56.167 131 -72.5s103.333 -24.5 160 -24.5c16 0 34.167 1.5 54.5 4.5
s41 7.16699 62 12.5s41.667 11.666 62 18.999s38.5 15.666 54.5 24.999z" />
    <glyph glyph-name="D" unicode="D" horiz-adv-x="709" 
d="M679 383c0 56.667 -8.16895 107.663 -24.502 152.996s-40 83.833 -71 115.5s-69.167 56 -114.5 73s-97.333 25.5 -156 25.5h-296v-45h10c20 0 35.333 -2.66699 46 -8s18.667 -14.166 24 -26.499s8.5 -28.666 9.5 -48.999s1.5 -45.833 1.5 -76.5v-340
c0 -30.667 -0.5 -56.167 -1.5 -76.5s-4.33301 -36.666 -10 -48.999s-14.667 -21.166 -27 -26.499s-29.5 -8 -51.5 -8v-45c78.667 -0.666992 140.334 -1 185.001 -1h102c23.333 0 39.333 0.166992 48 0.5s16 0.5 22 0.5c42 -1.33301 81.333 7.83398 118 27.501
s68.834 46.667 96.501 81s49.5 75.166 65.5 122.499s24 98 24 152zM281.998 681.996c92 0 161.497 -26.6699 208.497 -80.0029s70.5 -130.666 70.5 -231.999c0 -23.333 -0.666992 -48.166 -2 -74.499s-5.33301 -52.333 -12 -78s-16.667 -49.834 -30 -72.501
s-31.666 -41.5 -54.999 -56.5s-52.666 -25.167 -87.999 -30.5s-78.666 -3.66602 -129.999 5.00098c-10.667 10.667 -16.834 27.334 -18.501 50.001s-2.5 53.334 -2.5 92.001v382c0 37.333 3.66699 64.666 11 81.999c4 5.33301 9.83301 8.83301 17.5 10.5
s17.834 2.5 30.501 2.5z" />
    <glyph glyph-name="E" unicode="E" horiz-adv-x="624" 
d="M592 55l-210.999 0.00195312c-20.667 0 -41.334 2.66699 -62.001 8s-39.167 14.833 -55.5 28.5s-29.666 31.5 -39.999 53.5s-15.5 49.667 -15.5 83v151h273v46h-273v111c0 27.333 0.333008 50.666 1 69.999s3.16699 35.166 7.5 47.499s11 21.833 20 28.5s21.5 11 37.5 13
h319v55h-591v-42l10 -3c20 0 35.333 -2.66699 46 -8s18.667 -14.166 24 -26.499s8.5 -28.666 9.5 -48.999s1.5 -45.833 1.5 -76.5v-285c0 -80.667 24.667 -144.334 74 -191.001s120.666 -70.334 213.999 -71.001h211v57z" />
    <glyph glyph-name="F" unicode="F" horiz-adv-x="522" 
d="M487 692l-0.000976562 58.002h-94c-93.333 -0.666992 -164.666 -24.334 -213.999 -71.001s-74 -110.334 -74 -191.001v-285c0 -30.667 -0.5 -56.167 -1.5 -76.5s-4.16699 -36.666 -9.5 -48.999s-13.333 -21.166 -24 -26.499s-26 -8 -46 -8l-10 -3v-42h300v46h-28
c-16.667 -0.666992 -29.5 2 -38.5 8s-15.5 15.667 -19.5 29s-6.33301 30.166 -7 50.499s-1 44.166 -1 71.499v129h273v46h-273v141c0 32.667 5.16699 60.167 15.5 82.5s23.666 40.333 39.999 54s34.833 23.167 55.5 28.5s41.334 8 62.001 8h94z" />
    <glyph glyph-name="G" unicode="G" horiz-adv-x="755" 
d="M431 -155l0.00488281 -45.0029h296v45h-10c-19.333 0 -34.5 2.66699 -45.5 8s-19.167 14 -24.5 26s-8.5 27.833 -9.5 47.5s-1.16699 44.167 -0.5 73.5v189c0 30.667 0.5 55.334 1.5 74.001s4.16699 33.167 9.5 43.5s14.166 17.333 26.499 21s29.5 5.5 51.5 5.5v45h-296
v-45c22 0 39.333 -0.166992 52 -0.5s22 -3.66602 28 -9.99902s9.66699 -17.666 11 -33.999s1.66602 -40.5 0.999023 -72.5v-110c-22 -13.333 -44.667 -22.5 -68 -27.5s-49 -7.5 -77 -7.5c-33.333 0 -63.5 6.83301 -90.5 20.5s-50 33.5 -69 59.5s-33.833 57.667 -44.5 95
s-16 79.666 -16 126.999c0 100 20.333 177.167 61 231.5s95.667 81.5 165 81.5c50.667 0 93.834 -14.333 129.501 -43s62.834 -76 81.501 -142h30c-6 27.333 -9.83301 53.833 -11.5 79.5s-2.83398 48.334 -3.50098 68.001s-1.16699 35.334 -1.5 47.001s-2.5 17.5 -6.5 17.5
c-16 0 -33.667 2 -53 6s-39.166 8.5 -59.499 13.5s-40.833 9.5 -61.5 13.5s-40.334 6 -59.001 6c-50 0 -95.833 -9.33301 -137.5 -28s-77.834 -44.834 -108.501 -78.501s-54.5 -74 -71.5 -121s-25.5 -98.833 -25.5 -155.5c0 -57.333 8 -109 24 -155
s38.667 -85.167 68 -117.5s64.666 -57.333 105.999 -75s87.666 -26.5 138.999 -26.5c61.333 0 114.666 17.667 159.999 53v-48c0 -29.333 -0.666992 -53.833 -2 -73.5s-5 -35.5 -11 -47.5s-15 -20.667 -27 -26s-29 -8 -51 -8z" />
    <glyph glyph-name="H" unicode="H" horiz-adv-x="691" 
d="M28 705h10c20 0 35.333 -2.66699 46 -8s18.667 -14.166 24 -26.499s8.5 -28.666 9.5 -48.999s1.5 -45.833 1.5 -76.5v-546h115v326h231v-326h115v546c0 30.667 0.5 56.167 1.5 76.5s4.33301 36.666 10 48.999s14.667 21.166 27 26.499s29.5 8 51.5 8v45h-296v-45h10
c20 0 35.333 -2.66699 46 -8s18.667 -14.166 24 -26.499s8.5 -28.666 9.5 -48.999s1.5 -45.833 1.5 -76.5v-174h-231v174c0 30.667 0.5 56.167 1.5 76.5s4.33301 36.666 10 48.999s14.667 21.166 27 26.499s29.5 8 51.5 8v45h-296v-45z" />
    <glyph glyph-name="I" unicode="I" 
d="M235 545c0 30.667 0.5 56.167 1.5 76.5s4.33301 36.666 10 48.999s14.667 21.166 27 26.499s29.5 8 51.5 8v45h-296v-45h10c20 0 35.333 -2.66699 46 -8s18.667 -14.166 24 -26.499s8.5 -28.666 9.5 -48.999s1.5 -45.833 1.5 -76.5v-340
c0 -30.667 -0.5 -56.167 -1.5 -76.5s-4.33301 -36.666 -10 -48.999s-14.667 -21.166 -27 -26.499s-29.5 -8 -51.5 -8v-45h296v45h-10c-20 0 -35.333 2.66699 -46 8s-18.667 14.166 -24 26.499s-8.5 28.666 -9.5 48.999s-1.5 45.833 -1.5 76.5v340z" />
    <glyph glyph-name="J" unicode="J" horiz-adv-x="345" 
d="M324 705l0.000976562 45.001h-296v-45c22 0 39.167 -2.66699 51.5 -8s21.333 -14.166 27 -26.499s9 -28.666 10 -48.999s1.5 -45.833 1.5 -76.5v-513c0 -32.667 -5 -60 -15 -82s-23 -39.833 -39 -53.5s-33.667 -23.334 -53 -29.001s-38 -8.5 -56 -8.5
c-7.33301 0 -14.333 0.5 -21 1.5s-13.334 2.16699 -20.001 3.5v-62c5.33301 -0.666992 11 -1.16699 17 -1.5s12.333 -0.5 19 -0.5c44.667 0 84.5 6.16699 119.5 18.5s64.667 29.833 89 52.5s42.833 50.167 55.5 82.5s19 68.833 19 109.5v482c0 30.667 0.5 56.167 1.5 76.5
s4.16699 36.666 9.5 48.999s13.333 21.166 24 26.499s26 8 46 8h10z" />
    <glyph glyph-name="K" unicode="K" horiz-adv-x="759" 
d="M526 199l0.000976562 -18.002c0 -30.667 -0.5 -55 -1.5 -73s-4.33301 -31.667 -10 -41s-14.667 -15.333 -27 -18s-29.5 -4 -51.5 -4v-45h296v45h-10c-18 0 -32.333 1.5 -43 4.5s-18.834 8.83301 -24.501 17.5s-9.33398 20.334 -11.001 35.001s-2.5 34 -2.5 58
c0 52 -10.333 96.5 -31 133.5s-51 64.5 -91 82.5c38 17.333 67.333 43.166 88 77.499s31.667 75.833 33 124.5c0 26.667 0.666992 48.334 2 65.001s4.66602 29.667 9.99902 39s13.333 15.5 24 18.5s25.667 4.5 45 4.5h10v45h-296v-45c22 0 39.167 -1.33301 51.5 -4
s21.333 -8.66699 27 -18s9 -23 10 -41s1.5 -42.333 1.5 -73v-15c0 -28 -3.66699 -51.167 -11 -69.5s-17.166 -33.166 -29.499 -44.499s-26.666 -19.5 -42.999 -24.5s-33.166 -8.16699 -50.499 -9.5h-23h-42h-48c-16.667 0 -31 0.333008 -43 1v138
c0 30.667 0.5 56.167 1.5 76.5s4.33301 36.666 10 48.999s14.667 21.166 27 26.499s29.5 8 51.5 8v45h-296v-45h10c20 0 35.333 -2.66699 46 -8s18.667 -14.166 24 -26.499s8.5 -28.666 9.5 -48.999s1.5 -45.833 1.5 -76.5v-340c0 -30.667 -0.5 -56.167 -1.5 -76.5
s-4.33301 -36.666 -10 -48.999s-14.667 -21.166 -27 -26.499s-29.5 -8 -51.5 -8v-45h296v45h-10c-20 0 -35.333 2.66699 -46 8s-18.667 14.166 -24 26.499s-8.5 28.666 -9.5 48.999s-1.5 45.833 -1.5 76.5v140c16 1.33301 32.667 2.16602 50 2.49902s33.333 0.333008 48 0
s27.334 -0.5 38.001 -0.5h20c17.333 -1.33301 34.166 -4.5 50.499 -9.5s30.666 -13.167 42.999 -24.5s22.333 -26.166 30 -44.499s11.5 -41.5 11.5 -69.5z" />
    <glyph glyph-name="L" unicode="L" horiz-adv-x="604" 
d="M604 50l-210.999 0.00195312c-20.667 0 -41.334 2.66699 -62.001 8s-39.167 14.833 -55.5 28.5s-29.666 31.5 -39.999 53.5s-15.5 49.667 -15.5 83v322c0 27.333 0.333008 50.666 1 69.999s3.16699 35.166 7.5 47.499s11 21.833 20 28.5s21.5 11 37.5 13h14v46h-286v-42
l10 -3c20 0 35.333 -2.66699 46 -8s18.667 -14.166 24 -26.499s8.5 -28.666 9.5 -48.999s1.5 -45.833 1.5 -76.5v-285c0 -80.667 24.667 -144.334 74 -191.001s120.666 -70.334 213.999 -71.001h211v52z" />
    <glyph glyph-name="M" unicode="M" horiz-adv-x="952" 
d="M533 692c21.333 -2.66699 43.6699 -7.83203 67.0029 -15.499s44.666 -18.334 63.999 -32.001s35.333 -30.5 48 -50.5s19 -44 19 -72v-317c0 -30.667 -0.5 -56.167 -1.5 -76.5s-4.33301 -36.666 -10 -48.999s-14.667 -21.166 -27 -26.499s-29.5 -8 -51.5 -8v-45h296v45
h-10c-20 0 -35.333 2.66699 -46 8s-18.667 14.166 -24 26.499s-8.5 28.666 -9.5 48.999s-1.5 45.833 -1.5 76.5v286c0 36.667 -8.5 70.167 -25.5 100.5s-39.833 56.833 -68.5 79.5s-61.5 40.834 -98.5 54.501s-75.833 22.5 -116.5 26.5c3.33301 22 11.166 37.5 23.499 46.5
s33.166 13.5 62.499 13.5v45h-296v-45h10c26 0 44.5 -4.83301 55.5 -14.5s18.167 -26.167 21.5 -49.5c-40 -6 -78.333 -16.167 -115 -30.5s-68.834 -32.5 -96.501 -54.5s-49.667 -47.5 -66 -76.5s-24.5 -60.833 -24.5 -95.5v-286c0 -30.667 -0.5 -56.167 -1.5 -76.5
s-4.16699 -36.666 -9.5 -48.999s-13.333 -21.166 -24 -26.499s-26 -8 -46 -8l-10 -3v-42h296v45c-22 0 -39.167 2.66699 -51.5 8s-21.333 14.166 -27 26.499s-9 28.666 -10 48.999s-1.5 45.833 -1.5 76.5v317c0 26 5.83301 48.5 17.5 67.5s26.834 35.167 45.501 48.5
s39.167 24.166 61.5 32.499s44.5 14.5 66.5 18.5v-395c0 -30.667 -0.5 -55.5 -1.5 -74.5s-4.33301 -33.833 -10 -44.5s-14.667 -17.834 -27 -21.501s-29.5 -5.5 -51.5 -5.5v-45h296v45h-10c-20 0 -35.333 1.83301 -46 5.5s-18.667 10.834 -24 21.501s-8.5 25.5 -9.5 44.5
s-1.5 43.833 -1.5 74.5v398z" />
    <glyph glyph-name="N" unicode="N" horiz-adv-x="800" 
d="M227 518c0 33.333 5.16504 61.166 15.498 83.499s23.833 40.166 40.5 53.499s35.334 22.833 56.001 28.5s41.334 8.16699 62.001 7.5c20.667 0.666992 41.5 -1.66602 62.5 -6.99902s39.833 -14.666 56.5 -27.999s30.167 -31.333 40.5 -54s15.5 -50.667 15.5 -84v-313
c0 -30.667 -0.5 -56.167 -1.5 -76.5s-4.33301 -36.666 -10 -48.999s-14.667 -21.166 -27 -26.499s-29.5 -8 -51.5 -8v-45h296v45h-10c-20 0 -35.333 2.66699 -46 8s-18.667 14.166 -24 26.499s-8.5 28.666 -9.5 48.999s-1.5 45.833 -1.5 76.5v282
c0 40.667 -6.33301 77.167 -19 109.5s-31.334 59.833 -56.001 82.5s-54.667 40.167 -90 52.5s-75.333 18.5 -120 18.5c-95.333 0 -168.166 -23.5 -218.499 -70.5s-75.5 -111.167 -75.5 -192.5v-282c0 -30.667 -0.5 -56.167 -1.5 -76.5s-4.16699 -36.666 -9.5 -48.999
s-13.333 -21.166 -24 -26.499s-26 -8 -46 -8l-10 -3v-42h296v45c-22 0 -39.167 2.66699 -51.5 8s-21.333 14.166 -27 26.499s-9 28.666 -10 48.999s-1.5 45.833 -1.5 76.5v313z" />
    <glyph glyph-name="O" unicode="O" horiz-adv-x="657" 
d="M620 488c0 40.667 -6.33301 77.167 -19 109.5s-31.334 59.833 -56.001 82.5s-54.667 40.167 -90 52.5s-75.333 18.5 -120 18.5c-95.333 0 -168.166 -23.5 -218.499 -70.5s-75.5 -111.167 -75.5 -192.5v-225c0 -81.333 25.167 -145.5 75.5 -192.5
s123.166 -70.5 218.499 -70.5c44.667 0 84.667 6.16699 120 18.5s65.333 29.833 90 52.5s43.334 50.167 56.001 82.5s19 68.833 19 109.5v225zM156 232v287c0 33.333 5.16699 61.166 15.5 83.499s23.833 40.166 40.5 53.499s35.334 22.833 56.001 28.5
s41.334 8.16699 62.001 7.5c20.667 0.666992 41.5 -1.66602 62.5 -6.99902s39.833 -14.666 56.5 -27.999s30.167 -31.333 40.5 -54s15.5 -50.667 15.5 -84v-287c0 -33.333 -5.16699 -61.333 -15.5 -84s-23.833 -40.667 -40.5 -54s-35.5 -22.666 -56.5 -27.999
s-41.833 -7.66602 -62.5 -6.99902c-20.667 -0.666992 -41.334 1.83301 -62.001 7.5s-39.334 15.167 -56.001 28.5s-30.167 31.166 -40.5 53.499s-15.5 50.166 -15.5 83.499z" />
    <glyph glyph-name="P" unicode="P" horiz-adv-x="700" 
d="M393 751c-92.667 0 -164.167 -22.332 -214.5 -66.999s-76.833 -105.667 -79.5 -183v-296c0 -30.667 -0.5 -56.167 -1.5 -76.5s-4.33301 -36.666 -10 -48.999s-14.667 -21.166 -27 -26.499s-29.5 -8 -51.5 -8v-45h296v45h-10c-20 0 -35.333 2.66699 -46 8
s-18.667 14.166 -24 26.499s-8.5 28.666 -9.5 48.999s-1.5 45.833 -1.5 76.5v89c46 -28 105.667 -42 179 -42c88 0 156.667 22.167 206 66.5s75.666 105.166 78.999 182.499c-3.33301 77.333 -29.666 138.333 -78.999 183s-118 67 -206 67zM214 519.001
c0 33.333 5.16504 61.165 15.498 83.498s23.833 40.166 40.5 53.499s35.334 22.833 56.001 28.5s41.334 8.16699 62.001 7.5c20.667 0.666992 41.5 -1.66602 62.5 -6.99902s39.833 -14.666 56.5 -27.999s30.167 -31.333 40.5 -54s15.5 -50.667 15.5 -84v-35
c0 -33.333 -5.16699 -61.333 -15.5 -84s-23.833 -40.667 -40.5 -54s-35.5 -22.666 -56.5 -27.999s-41.833 -7.66602 -62.5 -6.99902c-20 -0.666992 -40 1.5 -60 6.5s-38.167 13.667 -54.5 26s-30 28.666 -41 48.999s-17.167 45.833 -18.5 76.5v50z" />
    <glyph glyph-name="Q" unicode="Q" horiz-adv-x="657" 
d="M620 488c0 40.667 -6.33398 77.1689 -19.001 109.502s-31.334 59.833 -56.001 82.5s-54.667 40.167 -90 52.5s-75.333 18.5 -120 18.5c-95.333 0 -168.166 -23.5 -218.499 -70.5s-75.5 -111.167 -75.5 -192.5v-225c0 -72 19.833 -130.667 59.5 -176
s96.834 -73 171.501 -83c0 -30.667 -0.5 -56.167 -1.5 -76.5s-4.33301 -36.666 -10 -48.999s-14.667 -21.166 -27 -26.499s-29.5 -8 -51.5 -8v-45h296v45h-10c-20 0 -35.333 2.66699 -46 8s-18.667 14.166 -24 26.499s-8.5 28.666 -9.5 48.999s-1.5 45.5 -1.5 75.5
c74.667 9.33301 132.167 36.666 172.5 81.999s60.5 104.666 60.5 177.999v225zM386.999 94.002c0 30.667 0.49707 56.168 1.49707 76.501s4.33301 36.666 10 48.999s14.667 21.166 27 26.499s29.5 8 51.5 8v45h-296v-45h10c20 0 35.333 -2.66699 46 -8
s18.667 -14.166 24 -26.499s8.5 -28.666 9.5 -48.999s1.5 -45.833 1.5 -76.5v-29c-16 4 -31 10.167 -45 18.5s-26.167 19.166 -36.5 32.499s-18.666 29.666 -24.999 48.999s-9.5 41.666 -9.5 66.999v287c0 33.333 5.16699 61.166 15.5 83.499s23.833 40.166 40.5 53.499
s35.334 22.833 56.001 28.5s41.334 8.16699 62.001 7.5c20.667 0.666992 41.5 -1.66602 62.5 -6.99902s39.833 -14.666 56.5 -27.999s30.167 -31.333 40.5 -54s15.5 -50.667 15.5 -84v-287c0 -26 -3.16699 -48.667 -9.5 -68s-15 -35.666 -26 -48.999
s-23.5 -24.166 -37.5 -32.499s-29 -14.5 -45 -18.5v30z" />
    <glyph glyph-name="R" unicode="R" horiz-adv-x="700" 
d="M305 0l0.000976562 45.0029h-10c-20 0 -35.333 2.66699 -46 8s-18.667 14.166 -24 26.499s-8.5 28.666 -9.5 48.999s-1.5 45.833 -1.5 76.5v114c18 -17.333 38.333 -31.333 61 -42s43.334 -18.334 62.001 -23.001c23.333 -9.33301 42.5 -17.666 57.5 -24.999
s27.167 -15.5 36.5 -24.5s16.166 -20.333 20.499 -34s7.5 -31.5 9.5 -53.5c-1.33301 -16 -3.33301 -28.667 -6 -38s-7.33398 -16.5 -14.001 -21.5s-15.5 -8.33301 -26.5 -10s-25.167 -2.5 -42.5 -2.5v-45h288v45h-2c-18 0 -32.5 0.666992 -43.5 2
s-19.333 3.66602 -25 6.99902s-9.33398 8.16602 -11.001 14.499s-2.16699 14.5 -1.5 24.5c0 22.667 -2.16699 42.667 -6.5 60s-10.5 32.5 -18.5 45.5s-18 24.5 -30 34.5s-26 19.333 -42 28c61.333 13.333 109 40.666 143 81.999s52.333 94 55 158
c-3.33301 77.333 -29.666 138.333 -78.999 183s-118 67 -206 67c-92.667 0 -164.167 -22.333 -214.5 -67s-76.833 -105.667 -79.5 -183v-296c0 -30.667 -0.5 -56.167 -1.5 -76.5s-4.33301 -36.666 -10 -48.999s-14.667 -21.166 -27 -26.499s-29.5 -8 -51.5 -8v-45h296z
M214.001 519.003c0 33.333 5.16504 61.165 15.498 83.498s23.833 40.166 40.5 53.499s35.334 22.833 56.001 28.5s41.334 8.16699 62.001 7.5c20.667 0.666992 41.5 -1.66602 62.5 -6.99902s39.833 -14.666 56.5 -27.999s30.167 -31.333 40.5 -54s15.5 -50.667 15.5 -84v-35
c0 -33.333 -5.16699 -61.333 -15.5 -84s-23.833 -40.667 -40.5 -54s-35.5 -22.666 -56.5 -27.999s-41.833 -7.66602 -62.5 -6.99902c-20 -0.666992 -40 1.5 -60 6.5s-38.167 13.667 -54.5 26s-30 28.666 -41 48.999s-17.167 45.833 -18.5 76.5v50z" />
    <glyph glyph-name="S" unicode="S" horiz-adv-x="582" 
d="M33 555c-1.33301 -38 10.999 -73.4961 36.999 -106.496s65.667 -59.167 119 -78.5l158 -57c18 -6.66699 32.833 -15.834 44.5 -27.501s21 -24 28 -37s12.167 -26.167 15.5 -39.5s5 -24.666 5 -33.999c0.666992 -22.667 -2.66602 -41.334 -9.99902 -56.001
s-17.5 -26.167 -30.5 -34.5s-28.333 -14.333 -46 -18s-36.5 -5.5 -56.5 -5.5c-24 2 -46.833 4.5 -68.5 7.5s-41 7.66699 -58 14s-30.333 14.666 -40 24.999s-14.5 23.833 -14.5 40.5l1 85h-48c-1.33301 -12.667 -3 -27 -5 -43s-4.16699 -32.333 -6.5 -49l-7 -49
c-2.33301 -16 -4.83301 -30.333 -7.5 -43c44.667 -14 89.167 -25.833 133.5 -35.5s89.5 -14.5 135.5 -14.5c33.333 0 64.5 4.5 93.5 13.5s54.333 22 76 39s39 37.5 52 61.5s20.167 51.333 21.5 82c0.666992 18 -1.16602 36.5 -5.49902 55.5s-11.833 37.333 -22.5 55
s-24.5 34.167 -41.5 49.5s-37.5 28 -61.5 38l-148 62c-18 7.33301 -35.333 15.666 -52 24.999s-31.167 19.5 -43.5 30.5s-22.333 22.167 -30 33.5s-11.5 22.666 -11.5 33.999c-0.666992 18 3 33.833 11 47.5s18.833 25.167 32.5 34.5s29.5 16.333 47.5 21
s36.667 7.66699 56 9c18 -1.33301 37.667 -3.83301 59 -7.5s41 -9 59 -16s33.167 -16 45.5 -27s18.5 -24.167 18.5 -39.5l-2 -85l48 -1c2 12.667 4 27 6 43s4.16699 32.333 6.5 49l7 49c2.33301 16 4.83301 30.333 7.5 43c-47.333 18 -92.5 30.833 -135.5 38.5
s-90.167 11.5 -141.5 11.5c-74 -4.66699 -130.833 -21.5 -170.5 -50.5s-59.834 -76.5 -60.501 -142.5z" />
    <glyph glyph-name="T" unicode="T" horiz-adv-x="652" 
d="M527 675c16.667 0 29.333 -0.666016 38 -1.99902s14.834 -4.83301 18.501 -10.5s5.66699 -14.5 6 -26.5s1.16602 -29 2.49902 -51h45v165h-622v-166h45v31c0.666992 16.667 2.66699 29.167 6 37.5s10.5 14.166 21.5 17.499s26.833 5 47.5 5h85h49v-470
c0 -30.667 -0.5 -56.167 -1.5 -76.5s-4.33301 -36.666 -10 -48.999s-14.667 -21.166 -27 -26.499s-29.5 -8 -51.5 -8v-45h296v45h-10c-20 0 -35.333 2.66699 -46 8s-18.667 14.166 -24 26.499s-8.5 28.666 -9.5 48.999s-1.5 45.833 -1.5 76.5v470h143z" />
    <glyph glyph-name="U" unicode="U" horiz-adv-x="800" 
d="M227 232l0.00195312 313c0 30.667 0.5 56.167 1.5 76.5s4.33301 36.666 10 48.999s14.667 21.166 27 26.499s29.5 8 51.5 8v45h-296v-42l10 -3c20 0 35.333 -2.66699 46 -8s18.667 -14.166 24 -26.499s8.5 -28.666 9.5 -48.999s1.5 -45.833 1.5 -76.5v-282
c0 -81.333 25.167 -145.5 75.5 -192.5s123.166 -70.5 218.499 -70.5c44.667 0 84.667 6.16699 120 18.5s65.333 29.833 90 52.5s43.334 50.167 56.001 82.5s19 68.833 19 109.5v282c0 30.667 0.5 56.167 1.5 76.5s4.16699 36.666 9.5 48.999s13.333 21.166 24 26.499
s26 8 46 8h10v45h-296v-45c22 0 39.167 -2.66699 51.5 -8s21.333 -14.166 27 -26.499s9 -28.666 10 -48.999s1.5 -45.833 1.5 -76.5v-313c0 -33.333 -5.16699 -61.333 -15.5 -84s-23.833 -40.667 -40.5 -54s-35.5 -22.666 -56.5 -27.999s-41.833 -7.66602 -62.5 -6.99902
c-20.667 -0.666992 -41.334 1.83301 -62.001 7.5s-39.334 15.167 -56.001 28.5s-30.167 31.166 -40.5 53.499s-15.5 50.166 -15.5 83.499z" />
    <glyph glyph-name="V" unicode="V" horiz-adv-x="849" 
d="M448 -2l194.003 462c20 50 38.167 90.833 54.5 122.5s32.166 56.834 47.499 75.501s31.333 31.667 48 39s35.667 12 57 14v40h-315v-41h34c24 0 42 -3.5 54 -10.5s18 -19.167 18 -36.5c0 -18 -4.83301 -41.833 -14.5 -71.5s-24.167 -67.834 -43.5 -114.501l-132 -315
l-129 315c-18.667 46 -35.167 84.667 -49.5 116s-21.5 56 -21.5 74s8.5 29.667 25.5 35s38.167 8 63.5 8h34v41h-373v-40c22.667 -1.33301 42.667 -7 60 -17s33.666 -25 48.999 -45s30.666 -45.5 45.999 -76.5s32 -68.5 50 -112.5l195 -462h48z" />
    <glyph glyph-name="W" unicode="W" horiz-adv-x="952" 
d="M538 60v398c0 30.667 0.5 55.5 1.5 74.5s4.16699 33.833 9.5 44.5s13.333 17.834 24 21.501s26 5.5 46 5.5h10v45h-296v-45c22 0 39.167 -1.83301 51.5 -5.5s21.333 -10.834 27 -21.501s9 -25.5 10 -44.5s1.5 -43.833 1.5 -74.5v-395c-22 4 -44.5 10.167 -67.5 18.5
s-44 19.166 -63 32.499s-34.667 29.5 -47 48.5s-18.5 41.5 -18.5 67.5v317c0 30.667 0.5 56.167 1.5 76.5s4.33301 36.666 10 48.999s14.667 21.166 27 26.499s29.5 8 51.5 8v45h-296v-42l10 -3c20 0 35.333 -2.66699 46 -8s18.667 -14.166 24 -26.499
s8.5 -28.666 9.5 -48.999s1.5 -45.833 1.5 -76.5v-286c0 -35.333 8.5 -67.333 25.5 -96s39.667 -54 68 -76s61 -40.167 98 -54.5s75.5 -24.5 115.5 -30.5c15.333 -1.33301 27.166 -2.16602 35.499 -2.49902s16 -0.666016 23 -0.999023s15.167 -0.5 24.5 -0.5h40
c40.667 4 79.334 12.833 116.001 26.5s69 31.834 97 54.501s50.167 49 66.5 79s24.5 63.667 24.5 101v286c0 30.667 0.5 56.167 1.5 76.5s4.16699 36.666 9.5 48.999s13.333 21.166 24 26.499s26 8 46 8h10v45h-296v-45c22 0 39.167 -2.66699 51.5 -8
s21.333 -14.166 27 -26.499s9 -28.666 10 -48.999s1.5 -45.833 1.5 -76.5v-317c0 -28 -6 -52 -18 -72s-27.5 -36.833 -46.5 -50.5s-39.833 -24.334 -62.5 -32.001s-44.667 -12.834 -66 -15.501z" />
    <glyph glyph-name="X" unicode="X" horiz-adv-x="759" 
d="M240 199c0 27.333 3.5 50 10.5 68s16.5 32.667 28.5 44s25.667 19.666 41 24.999s31.666 8.66602 48.999 9.99902h27c16.667 -1.33301 32.834 -4.66602 48.501 -9.99902s29.5 -13.666 41.5 -24.999s21.667 -26 29 -44s11 -40.667 11 -68v-18c0 -30.667 -0.5 -55 -1.5 -73
s-4.33301 -31.667 -10 -41s-14.667 -15.333 -27 -18s-29.5 -4 -51.5 -4v-45h296v45h-10c-18 0 -32.333 1.5 -43 4.5s-18.834 8.83301 -24.501 17.5s-9.33398 20.334 -11.001 35.001s-2.5 34 -2.5 58c0 52 -10.333 96.5 -31 133.5s-51 64.5 -91 82.5
c38 17.333 67.333 43.166 88 77.499s31.667 75.833 33 124.5c0 26.667 0.666992 48.334 2 65.001s4.66602 29.667 9.99902 39s13.333 15.5 24 18.5s25.667 4.5 45 4.5h10v45h-296v-45c22 0 39.167 -1.33301 51.5 -4s21.333 -8.66699 27 -18s9 -23 10 -41
s1.5 -42.333 1.5 -73v-15c0 -28 -3.66699 -51.167 -11 -69.5s-17.166 -33.166 -29.499 -44.499s-26.666 -19.5 -42.999 -24.5s-33.166 -8.16699 -50.499 -9.5h-16c-17.333 1.33301 -34.166 4.5 -50.499 9.5s-30.666 13.167 -42.999 24.5s-22.166 26.166 -29.499 44.499
s-11 41.5 -11 69.5v15c0 30.667 0.5 55 1.5 73s4.33301 31.667 10 41s14.667 15.333 27 18s29.5 4 51.5 4v45h-296v-45h10c18.667 0 33.5 -1.5 44.5 -4.5s19.167 -9.16699 24.5 -18.5s8.66602 -22.333 9.99902 -39s2 -38.334 2 -65.001
c1.33301 -48.667 12.333 -90.167 33 -124.5s50 -60.166 88 -77.499c-40 -18 -70.333 -45.5 -91 -82.5s-31 -81.5 -31 -133.5c0 -24 -0.833008 -43.333 -2.5 -58s-5.33398 -26.334 -11.001 -35.001s-13.834 -14.5 -24.501 -17.5s-25 -4.5 -43 -4.5h-10v-45h296v45
c-22 0 -39.167 1.33301 -51.5 4s-21.333 8.66699 -27 18s-9 23 -10 41s-1.5 42.333 -1.5 73v18z" />
    <glyph glyph-name="Y" unicode="Y" horiz-adv-x="797" 
d="M225 489l0.00195312 56.9971c0 30.667 0.5 56.167 1.5 76.5s4.33301 36.666 10 48.999s14.667 21.166 27 26.499s29.5 8 51.5 8v45h-296v-45h10c20 0 35.333 -2.66699 46 -8s18.667 -14.166 24 -26.499s8.5 -28.666 9.5 -48.999s1.5 -45.833 1.5 -76.5v-26
c0 -72.667 20 -131.667 60 -177s98 -73 174 -83v-55c0 -30.667 -0.5 -56.167 -1.5 -76.5s-4.33301 -36.666 -10 -48.999s-14.667 -21.166 -27 -26.499s-29.5 -8 -51.5 -8v-45h296v45h-10c-20 0 -35.333 2.66699 -46 8s-18.667 14.166 -24 26.499s-8.5 28.666 -9.5 48.999
s-1.5 45.833 -1.5 76.5v55c73.333 9.33301 130 36.833 170 82.5s60 104.834 60 177.501v27c0 30.667 0.5 56.167 1.5 76.5s4.16699 36.5 9.5 48.5s13.333 20.5 24 25.5s26 7.5 46 7.5h10v45l-296 1v-45c22 0 39.167 -2.66699 51.5 -8s21.333 -14.166 27 -26.499
s9 -28.666 10 -48.999s1.5 -45.833 1.5 -76.5v-57c0 -33.333 -5.16699 -61.333 -15.5 -84s-23.833 -40.667 -40.5 -54s-35.5 -22.666 -56.5 -27.999s-41.833 -7.66602 -62.5 -6.99902c-20.667 -0.666992 -41.334 1.83301 -62.001 7.5s-39.334 15.167 -56.001 28.5
s-30.167 31.166 -40.5 53.499s-15.5 50.166 -15.5 83.499z" />
    <glyph glyph-name="Z" unicode="Z" horiz-adv-x="748" 
d="M52 601l44.999 0.000976562c0 16 0.166992 29.833 0.5 41.5s2.33301 21.334 6 29.001s9.5 13.167 17.5 16.5s20 5 36 5l391 1l-65 -82.5l-79 -101l-86.5 -110.5l-87 -111l-79.5 -102l-65 -83l-43.5 -54.5c-10.333 -13 -14.833 -18.833 -13.5 -17.5l11 -32
c100 0 185 0.166992 255 0.5s128.333 0.5 175 0.5h113h65h33h19v150h-45c0 -16 -0.166992 -29.833 -0.5 -41.5s-2.16602 -21.334 -5.49902 -29.001s-9 -13.334 -17 -17.001s-20 -5.5 -36 -5.5h-392l97 125.5l104 135.5l102 133l91 117l69.5 88c19 24 32.167 39.667 39.5 47
v46l-655 1v-150z" />
    <glyph glyph-name="bracketleft" unicode="[" horiz-adv-x="315" 
d="M139 578c0 26.667 0.669922 48.3311 2.00293 64.998s4.66602 29.667 9.99902 39s13.333 15.5 24 18.5s25.667 4.5 45 4.5h77v45h-259v-750h255v45h-72c-18 0 -32.333 1.5 -43 4.5s-18.834 8.83301 -24.501 17.5s-9.33398 20.334 -11.001 35.001s-2.5 34 -2.5 58v27
c0 16.667 -0.166992 37.334 -0.5 62.001s-0.5 52 -0.5 82v91v87v69z" />
    <glyph glyph-name="backslash" unicode="\" horiz-adv-x="472" 
d="M35 813h-87.001l22 -37l57.5 -98l81 -138.5l93.5 -158.5l93.5 -158.5l81.5 -138.5l58 -98c14.667 -24.667 22.334 -37 23.001 -37h51c0.666992 0 -5.83301 12.333 -19.5 37l-53.5 98l-75.5 138.5l-87 158.5l-87.5 158.5l-76.5 138.5l-54 98z" />
    <glyph glyph-name="bracketright" unicode="]" horiz-adv-x="315" 
d="M172 578l0.00292969 -68.9971v-87v-91c0 -30 -0.166992 -57.333 -0.5 -82s-0.5 -45.334 -0.5 -62.001v-27c0 -24 -0.833008 -43.333 -2.5 -58s-5.33398 -26.334 -11.001 -35.001s-13.834 -14.5 -24.501 -17.5s-25 -4.5 -43 -4.5h-72v-45h255v750h-259v-45h77
c18.667 0 33.5 -1.5 44.5 -4.5s19.167 -9.16699 24.5 -18.5s8.66602 -22.333 9.99902 -39s2 -38.334 2 -65.001z" />
    <glyph glyph-name="asciicircum" unicode="^" horiz-adv-x="395" 
d="M385 470l-191 238l-187 -235l9 -22l183 132l177 -135z" />
    <glyph glyph-name="underscore" unicode="_" horiz-adv-x="399" 
d="M-1 35v-75h401v75h-401z" />
    <glyph glyph-name="grave" unicode="`" horiz-adv-x="614" 
d="M216 999c-37.333 -57.333 -54.667 -87 -52 -89c1.33301 -3.33301 79.333 -31 234 -83l15 31z" />
    <glyph glyph-name="a" unicode="a" horiz-adv-x="571" 
d="M535 3v136.002v72v30v8c-1.33301 38.667 -7 73.334 -17 104.001s-25.333 56.834 -46 78.501s-47.167 38.334 -79.5 50.001s-71.5 17.5 -117.5 17.5c-44 0 -81.333 -5.83301 -112 -17.5s-56 -28.334 -76 -50.001s-35 -47.834 -45 -78.501s-15.667 -65.334 -17 -104.001
c1.33301 -38.667 7 -73.334 17 -104.001s25 -56.834 45 -78.501s45.333 -38.167 76 -49.5s68 -17 112 -17c14.667 0 28.5 1.5 41.5 4.5s25.167 8.33301 36.5 16s22.5 18.167 33.5 31.5s22.167 30.333 33.5 51l-1 -100v-3h116v3zM420 265.002
c0 -66.667 -12.832 -117.998 -38.499 -153.998s-59.5 -53.333 -101.5 -52c-20.667 -0.666992 -39.667 1.66602 -57 6.99902s-32.166 14.666 -44.499 27.999s-21.833 31.333 -28.5 54s-10 50.667 -10 84v35c0 33.333 3.33301 61.333 10 84s16.167 40.667 28.5 54
s27.166 22.666 44.499 27.999s36.333 7.66602 57 6.99902c20.667 0.666992 39.667 -1.83301 57 -7.5s32.166 -15.167 44.499 -28.5s21.833 -31.166 28.5 -53.499s10 -50.166 10 -83.499v-2z" />
    <glyph glyph-name="b" unicode="b" horiz-adv-x="634" 
d="M14 705c22 0 39.167 -2.66504 51.5 -7.99805s21.333 -14.166 27 -26.499s9 -28.666 10 -48.999s1.5 -45.833 1.5 -76.5c0 -58.667 -0.166992 -106.667 -0.5 -144s-0.5 -67 -0.5 -89v-47v-15c1.33301 -38.667 7 -73.334 17 -104.001s25.333 -56.834 46 -78.501
s47.167 -38.334 79.5 -50.001s71.5 -17.5 117.5 -17.5c44 0 81.333 5.83301 112 17.5s56 28.334 76 50.001s35 47.834 45 78.501s15.667 65.334 17 104.001c-1.33301 38.667 -7 73.667 -17 105s-25 58.166 -45 80.499s-45.333 39.666 -76 51.999s-68 18.5 -112 18.5
c-30 0 -56.5 -3.5 -79.5 -10.5s-44.167 -15.167 -63.5 -24.5l-1 74c0 30.667 0.333008 56.167 1 76.5s3.5 36.666 8.5 48.999s12.667 21.166 23 26.499s25.5 8 45.5 8h10v45h-293v-45zM218 267.002c0 33.333 3.33301 61.5 10 84.5s16.167 41.667 28.5 56
s27.166 24.666 44.499 30.999s36.333 9.16602 57 8.49902c20.667 0.666992 39.667 -2 57 -8s32.166 -16.167 44.499 -30.5s21.833 -33.166 28.5 -56.499s10 -51.666 10 -84.999v-35c0 -33.333 -3.33301 -61.333 -10 -84s-16.167 -40.667 -28.5 -54
s-27.166 -22.666 -44.499 -27.999s-36.333 -7.66602 -57 -6.99902c-20.667 -0.666992 -39.667 1.83301 -57 7.5s-32.166 15.167 -44.499 28.5s-21.833 31.166 -28.5 53.499s-10 50.166 -10 83.499v35z" />
    <glyph glyph-name="c" unicode="c" horiz-adv-x="513" 
d="M284 428c19.333 0 35.6631 -1.67383 48.9961 -5.00684s25 -8.66602 35 -15.999s19 -16.666 27 -27.999s16.667 -24.666 26 -39.999c18.667 16 32.834 27.167 42.501 33.5s16.667 10.333 21 12s6.33301 2.33398 6 2.00098s-1.16602 0.833984 -2.49902 3.50098
c-7.33301 15.333 -20.666 32 -39.999 50s-47.666 33 -84.999 45c-48 11.333 -92.333 12.666 -133 3.99902s-76 -24.5 -106 -47.5s-53.5 -52.167 -70.5 -87.5s-25.5 -74.333 -25.5 -117c0 -36 6 -69.333 18 -100s29 -57 51 -79s48 -39.167 78 -51.5s63 -18.166 99 -17.499
c31.333 0.666992 57.833 2.5 79.5 5.5s40.5 6.83301 56.5 11.5s30.333 9.83398 43 15.501l40 17.5l-2 32c-53.333 -18 -101.333 -24.833 -144 -20.5s-79.167 15 -109.5 32s-54.333 37.667 -72 62s-27.834 47.833 -30.501 70.5c-4.66699 37.333 -3.5 69 3.5 95
s17.833 47.167 32.5 63.5s31.834 28.833 51.501 37.5s40.167 14.334 61.5 17.001z" />
    <glyph glyph-name="d" unicode="d" horiz-adv-x="643" 
d="M624 705v44.998h-293v-45h10c20 0 35.167 -2.66699 45.5 -8s17.833 -14.166 22.5 -26.499s7.33398 -28.666 8.00098 -48.999s1 -45.833 1 -76.5v-74c-19.333 9.33301 -40.5 17.5 -63.5 24.5s-49.5 10.5 -79.5 10.5c-44 0 -81.333 -6.16699 -112 -18.5
s-56 -29.666 -76 -51.999s-35 -49.166 -45 -80.499s-15.667 -66.333 -17 -105c1.33301 -38.667 7 -73.334 17 -104.001s25 -56.834 45 -78.501s45.333 -38.334 76 -50.001s68 -17.5 112 -17.5c46 0 85.167 5.83301 117.5 17.5s58.666 28.334 78.999 50.001
s35.5 47.834 45.5 78.501s15.667 65.334 17 104.001v15v47v89v144c0 30.667 0.5 56.167 1.5 76.5s4.33301 36.666 10 48.999s14.667 21.166 27 26.499s29.5 8 51.5 8zM420 266.998v-35c0 -33.333 -3.33301 -61.166 -10 -83.499s-16.167 -40.166 -28.5 -53.499
s-27.166 -22.833 -44.499 -28.5s-36.333 -8.16699 -57 -7.5c-20.667 -0.666992 -39.667 1.66602 -57 6.99902s-32.166 14.666 -44.499 27.999s-21.833 31.333 -28.5 54s-10 50.667 -10 84v35c0 33.333 3.33301 61.666 10 84.999s16.167 42.166 28.5 56.499
s27.166 24.5 44.499 30.5s36.333 8.66699 57 8c20.667 0.666992 39.667 -2.16602 57 -8.49902s32.166 -16.666 44.499 -30.999s21.833 -33 28.5 -56s10 -51.167 10 -84.5z" />
    <glyph glyph-name="e" unicode="e" horiz-adv-x="538" 
d="M516 218c0 4 0.166992 9.16699 0.5 15.5s0.5 11.166 0.5 14.499c1.33301 32.667 -3.66699 64 -15 94s-27.666 56.5 -48.999 79.5s-47 41.333 -77 55s-63.333 20.834 -100 21.501c-34.667 -1.33301 -66.667 -9 -96 -23s-54.833 -32.333 -76.5 -55s-38.5 -49 -50.5 -79
s-18 -61.667 -18 -95c1.33301 -36 8.5 -69 21.5 -99s30.5 -55.833 52.5 -77.5s47.833 -38.5 77.5 -50.5s62.167 -18 97.5 -18c23.333 -1.33301 45.666 2 66.999 10s42.333 16.667 63 26l-8 33c-42 -11.333 -75.333 -17 -100 -17c-30 0 -55 5.33301 -75 16
s-36.167 24 -48.5 40s-21.333 33.667 -27 53s-9.5 38 -11.5 56h372zM272 436l2.00098 0.000976562c36.667 0 66.667 -12.333 90 -37s37.666 -64.334 42.999 -119.001h-262c2 20 6 39.333 12 58s14.167 35.167 24.5 49.5s23 26 38 35s32.5 13.5 52.5 13.5z" />
    <glyph glyph-name="f" unicode="f" horiz-adv-x="462" 
d="M427 692l-0.000976562 58.002h-94c-93.333 -0.666992 -164.666 -24.334 -213.999 -71.001s-74 -110.334 -74 -191.001v-483c0 -30.667 -0.5 -56.167 -1.5 -76.5s-4.16699 -36.666 -9.5 -48.999s-13.333 -21.166 -24 -26.499s-26 -8 -46 -8l-10 -3v-42h300v46h-28
c-16.667 -0.666992 -29.5 2 -38.5 8s-15.5 15.667 -19.5 29s-6.33301 30.166 -7 50.499s-1 44.166 -1 71.499v329h273v46h-273v139c0 32.667 5.16699 60.167 15.5 82.5s23.666 40.333 39.999 54s34.833 23.167 55.5 28.5s41.334 8 62.001 8h94z" />
    <glyph glyph-name="g" unicode="g" horiz-adv-x="645" 
d="M61 -199l287.998 0.00390625v45c-17.333 0 -31.666 0.5 -42.999 1.5s-20.166 3.66699 -26.499 8s-11 10.833 -14 19.5s-4.83301 21 -5.5 37c5.33301 30.667 19.666 52.167 42.999 64.5s50.333 20.166 81 23.499c42.667 -1.33301 79 5.16699 109 19.5
s54.5 33.166 73.5 56.499s33 50 42 80s13.5 60.333 13.5 91c-2.66699 77.333 -29.167 138.333 -79.5 183s-121.833 67 -214.5 67c-88 0 -156.667 -22.333 -206 -67s-75.666 -105.667 -78.999 -183c2.66699 -64 21 -116.667 55 -158s81.667 -68.666 143 -81.999
c-16 -8.66699 -29.667 -16.834 -41 -24.501s-21 -15.834 -29 -24.501s-14.167 -18.667 -18.5 -30s-7.16602 -24.666 -8.49902 -39.999c0.666992 -10 0.166992 -17.833 -1.5 -23.5s-5.33398 -9.83398 -11.001 -12.501s-14 -4.33398 -25 -5.00098s-25.5 -1 -43.5 -1h-2v-45z
M506.998 265.004l-0.00195312 -49.999c-1.33301 -30.667 -7.5 -56.167 -18.5 -76.5s-24.667 -36.666 -41 -48.999s-34.5 -21 -54.5 -26s-40 -7.16699 -60 -6.5c-20.667 -0.666992 -41.5 1.66602 -62.5 6.99902s-39.833 14.666 -56.5 27.999s-30.167 31.333 -40.5 54
s-15.5 50.667 -15.5 84v35c0 33.333 5.16699 61.333 15.5 84s23.833 40.667 40.5 54s35.5 22.666 56.5 27.999s41.833 7.66602 62.5 6.99902c20.667 0.666992 41.334 -1.83301 62.001 -7.5s39.334 -15.167 56.001 -28.5s30.167 -31.166 40.5 -53.499
s15.5 -50.166 15.5 -83.499z" />
    <glyph glyph-name="h" unicode="h" horiz-adv-x="730" 
d="M322 705v44.999h-296v-45c22 0 39.167 -2.66699 51.5 -8s21.333 -14.166 27 -26.499s9 -28.666 10 -48.999s1.5 -45.833 1.5 -76.5v-344c0 -30.667 -0.5 -56.167 -1.5 -76.5s-4.16699 -36.666 -9.5 -48.999s-13.333 -21.166 -24 -26.499s-26 -8 -46 -8h-10v-45h296v45
c-22 0 -39.167 2.66699 -51.5 8s-21.333 14.166 -27 26.499s-9 28.666 -10 48.999s-1.5 45.833 -1.5 76.5v73c0.666992 31.333 4.5 57.666 11.5 78.999s16.667 38.333 29 51s27 21.5 44 26.5s35.5 7.16699 55.5 6.5c20.667 0.666992 39 -1.83301 55 -7.5
s29.333 -15.167 40 -28.5s18.667 -31.166 24 -53.499s8 -50.166 8 -83.499v-63c0 -30.667 -0.5 -56.167 -1.5 -76.5s-4.33301 -36.666 -10 -48.999s-14.667 -21.166 -27 -26.499s-29.5 -8 -51.5 -8v-45h296v42l-10 3c-20 0 -35.333 2.66699 -46 8s-18.667 14.166 -24 26.499
s-8.5 28.666 -9.5 48.999s-1.5 45.833 -1.5 76.5v32c0 40.667 -4.5 77.167 -13.5 109.5s-23.333 59.833 -43 82.5s-45.167 40.167 -76.5 52.5s-69.333 18.5 -114 18.5c-52.667 0 -97.667 -10.667 -135 -32v81c0 30.667 0.5 56.167 1.5 76.5s4.16699 36.666 9.5 48.999
s13.333 21.166 24 26.499s26 8 46 8h10z" />
    <glyph glyph-name="i" unicode="i" 
d="M235 295c0 30.667 0.5 56.167 1.5 76.5s4.33301 36.666 10 48.999s14.667 21.166 27 26.499s29.5 8 51.5 8v45h-296v-45h10c20 0 35.333 -2.66699 46 -8s18.667 -14.166 24 -26.499s8.5 -28.666 9.5 -48.999s1.5 -45.833 1.5 -76.5v-90
c0 -30.667 -0.5 -56.167 -1.5 -76.5s-4.33301 -36.666 -10 -48.999s-14.667 -21.166 -27 -26.499s-29.5 -8 -51.5 -8v-45h296v45h-10c-20 0 -35.333 2.66699 -46 8s-18.667 14.166 -24 26.499s-8.5 28.666 -9.5 48.999s-1.5 45.833 -1.5 76.5v90zM101 674
c0 -20.667 7.16699 -38.334 21.5 -53.001s31.833 -22 52.5 -22s38.334 7.33301 53.001 22s22 32.334 22 53.001s-7.33301 38.334 -22 53.001s-32.334 22 -53.001 22s-38.167 -7.33301 -52.5 -22s-21.5 -32.334 -21.5 -53.001z" />
    <glyph glyph-name="j" unicode="j" horiz-adv-x="345" 
d="M324 456l0.000976562 45.001h-296v-45c22 0 39.167 -2.66699 51.5 -8s21.333 -14.166 27 -26.499s9 -28.666 10 -48.999s1.5 -45.833 1.5 -76.5v-265c0 -32.667 -5 -60 -15 -82s-23 -39.833 -39 -53.5s-33.667 -23.334 -53 -29.001s-38 -8.5 -56 -8.5
c-7.33301 0 -14.333 0.5 -21 1.5s-13.334 2.16699 -20.001 3.5v-62c5.33301 -0.666992 11 -1.16699 17 -1.5s12.333 -0.5 19 -0.5c44.667 0 84.5 6.16699 119.5 18.5s64.667 29.833 89 52.5s42.833 50.167 55.5 82.5s19 68.833 19 109.5v234c0 30.667 0.5 56.167 1.5 76.5
s4.16699 36.666 9.5 48.999s13.333 21.166 24 26.499s26 8 46 8h10zM97.001 674.001c0 -20.667 7.16699 -38.334 21.5 -53.001s31.833 -22 52.5 -22s38.334 7.33301 53.001 22s22 32.334 22 53.001s-7.33301 38.334 -22 53.001s-32.334 22 -53.001 22
s-38.167 -7.33301 -52.5 -22s-21.5 -32.334 -21.5 -53.001z" />
    <glyph glyph-name="k" unicode="k" horiz-adv-x="715" 
d="M471 395c0 16 1.83105 28.001 5.49805 36.001s9.33398 13.667 17.001 17s17.334 5.16602 29.001 5.49902s25.5 0.5 41.5 0.5v45h-187c0 -41.333 -0.166992 -72 -0.5 -92s-4.83301 -32.333 -13.5 -37c-19.333 -5.33301 -40.333 -13.833 -63 -25.5s-44.667 -27.5 -66 -47.5
v248c0 30.667 0.666992 56.167 2 76.5s5 36.666 11 48.999s15.167 21.166 27.5 26.499s29.5 8 51.5 8v45h-297v-45c20 0 35.833 -2.66699 47.5 -8s20.834 -14.166 27.501 -26.499s11 -28.666 13 -48.999s3 -45.833 3 -76.5v-340c0 -30.667 -0.5 -56.167 -1.5 -76.5
s-4.33301 -36.666 -10 -48.999s-14.667 -21.166 -27 -26.499s-29.5 -8 -51.5 -8v-45h296v45h-10c-18 0 -32.5 2.16699 -43.5 6.5s-19.167 11.833 -24.5 22.5s-8.83301 24.667 -10.5 42s-2.5 38.666 -2.5 63.999c3.33301 24 12.166 45.167 26.499 63.5
s30.833 33.666 49.5 45.999s37.5 21.666 56.5 27.999s35.167 9.5 48.5 9.5c18 0 36.333 -3.66699 55 -11s35.667 -19 51 -35s28 -36.333 38 -61s15 -54.334 15 -89.001c0 -48 -1.66699 -88.333 -5 -121s-9.33301 -60.667 -18 -84s-20 -43.666 -34 -60.999
s-31.333 -34.333 -52 -51l15 -18c65.333 26 116.333 62.833 153 110.5s55 111.834 55 192.501c0 72.667 -19 133 -57 181s-91.667 78.667 -161 92c1.33301 4 1.33301 7.83301 0 11.5s-1.33301 7.5 0 11.5z" />
    <glyph glyph-name="l" unicode="l" horiz-adv-x="345" 
d="M324 45h-10c-20 0 -35.333 2.66699 -46 8s-18.667 14.166 -24 26.499s-8.5 28.666 -9.5 48.999s-1.5 45.833 -1.5 76.5v546h-115v-546c0 -30.667 -0.5 -56.167 -1.5 -76.5s-4.33301 -36.666 -10 -48.999s-14.667 -21.166 -27 -26.499s-29.5 -8 -51.5 -8v-45h296v45z" />
    <glyph glyph-name="m" unicode="m" horiz-adv-x="1064" 
d="M854 268l-0.00292969 -62.9941c0 -30.667 -0.5 -56.167 -1.5 -76.5s-4.33301 -36.666 -10 -48.999s-14.667 -21.166 -27 -26.499s-29.5 -8 -51.5 -8v-45h296v44l-10 1c-20 0 -35.333 2.66699 -46 8s-18.667 14.166 -24 26.499s-8.5 28.666 -9.5 48.999
s-1.5 45.833 -1.5 76.5v32c0 40.667 -4.5 77.167 -13.5 109.5s-23.333 59.833 -43 82.5s-45.167 40.167 -76.5 52.5s-69.333 18.5 -114 18.5c-42 0 -78.833 -6.5 -110.5 -19.5s-58.167 -31.833 -79.5 -56.5c-19.333 23.333 -44.666 41.166 -75.999 53.499
s-69.666 18.5 -114.999 18.5c-80.667 0 -142.5 -23.5 -185.5 -70.5s-64.5 -111.167 -64.5 -192.5v-32c0 -30.667 -0.5 -56.167 -1.5 -76.5s-4.16699 -36.666 -9.5 -48.999s-13.333 -21.166 -24 -26.499s-26 -8 -46 -8h-10v-45h296v45c-22 0 -39.167 2.66699 -51.5 8
s-21.333 14.166 -27 26.499s-9 28.666 -10 48.999s-1.5 45.833 -1.5 76.5v63c0 33.333 3.33301 61.333 10 84s16.167 40.667 28.5 54s27.166 22.666 44.499 27.999s36.333 7.66602 57 6.99902c20.667 0.666992 38.834 -1.83301 54.501 -7.5s28.834 -15.167 39.501 -28.5
s18.834 -31 24.501 -53s8.5 -49.333 8.5 -82l-1 -86h1c0 -26 -0.833008 -48 -2.5 -66s-5.5 -32.333 -11.5 -43s-15 -18.334 -27 -23.001s-28.333 -7 -49 -7v-45h296v42l-10 3c-20 0 -35.333 2.66699 -46 8s-18.667 14.166 -24 26.499s-8.5 28.666 -9.5 48.999
s-1.5 45.833 -1.5 76.5v46c0 8.66699 -0.333008 15.667 -1 21c0 33.333 3.33301 61.333 10 84s16.167 40.667 28.5 54s27.166 22.666 44.499 27.999s36.333 7.66602 57 6.99902c20.667 0.666992 39 -1.83301 55 -7.5s29.333 -15.167 40 -28.5s18.667 -31.166 24 -53.499
s8 -50.166 8 -83.499z" />
    <glyph glyph-name="n" unicode="n" horiz-adv-x="730" 
d="M498 264l0.000976562 -63c0 -30.667 -0.5 -56.167 -1.5 -76.5s-4.33301 -36.666 -10 -48.999s-14.667 -21.166 -27 -26.499s-29.5 -8 -51.5 -8v-45h296v42l-10 3c-20 0 -35.333 2.66699 -46 8s-18.667 14.166 -24 26.499s-8.5 28.666 -9.5 48.999s-1.5 45.833 -1.5 76.5
v32c0 40.667 -4.5 77.167 -13.5 109.5s-23.333 59.833 -43 82.5s-45.167 40.167 -76.5 52.5s-69.333 18.5 -114 18.5c-80.667 0 -142.5 -23.5 -185.5 -70.5s-64.5 -111.167 -64.5 -192.5v-32c0 -30.667 -0.5 -56.167 -1.5 -76.5s-4.16699 -36.666 -9.5 -48.999
s-13.333 -21.166 -24 -26.499s-26 -8 -46 -8h-10v-45h296v45c-22 0 -39.167 2.66699 -51.5 8s-21.333 14.166 -27 26.499s-9 28.666 -10 48.999s-1.5 45.833 -1.5 76.5v63c0 33.333 3.33301 61.333 10 84s16.167 40.667 28.5 54s27.166 22.666 44.499 27.999
s36.333 7.66602 57 6.99902c20.667 0.666992 39 -1.83301 55 -7.5s29.333 -15.167 40 -28.5s18.667 -31.166 24 -53.499s8 -50.166 8 -83.499z" />
    <glyph glyph-name="o" unicode="o" horiz-adv-x="577" 
d="M292 499c-46 0 -85.332 -6.99805 -117.999 -20.998s-59.334 -32.5 -80.001 -55.5s-36 -49.5 -46 -79.5s-15.333 -61.333 -16 -94c1.33301 -33.333 7 -65 17 -95s25.333 -56.5 46 -79.5s47.167 -41.167 79.5 -54.5s71.5 -20 117.5 -20c44 0 81.5 6.66699 112.5 20
s56.5 31.166 76.5 53.499s34.833 48.666 44.5 78.999s15.167 62.5 16.5 96.5c-1.33301 32.667 -7 64 -17 94s-25 56.5 -45 79.5s-45.333 41.5 -76 55.5s-68 21 -112 21zM147.001 232.002v35c0 33.333 3.33301 61.166 10 83.499s16.167 40.166 28.5 53.499
s27.166 22.833 44.499 28.5s36.333 8.16699 57 7.5c20.667 0.666992 39.667 -1.66602 57 -6.99902s32.166 -14.666 44.499 -27.999s21.833 -31.333 28.5 -54s10 -50.667 10 -84v-35c0 -33.333 -3.33301 -61.333 -10 -84s-16.167 -40.667 -28.5 -54
s-27.166 -22.666 -44.499 -27.999s-36.333 -7.66602 -57 -6.99902c-20.667 -0.666992 -39.667 1.83301 -57 7.5s-32.166 15.167 -44.499 28.5s-21.833 31.166 -28.5 53.499s-10 50.166 -10 83.499z" />
    <glyph glyph-name="p" unicode="p" horiz-adv-x="577" 
d="M-57 -157l-0.000976562 -45.002h293v45h-10c-20 0 -35.167 2.66699 -45.5 8s-18 14.166 -23 26.499s-7.83301 28.666 -8.5 48.999s-1 45.833 -1 76.5l1 25c19.333 -9.33301 40.5 -16.333 63.5 -21s49.5 -7 79.5 -7c44 0 81.333 5.66699 112 17s56 27.833 76 49.5
s35 47.834 45 78.501s15.667 65.334 17 104.001c-1.33301 38.667 -7 73.334 -17 104.001s-25 56.834 -45 78.501s-45.333 38.334 -76 50.001s-68 17.5 -112 17.5c-46 0 -85.167 -5.83301 -117.5 -17.5s-58.666 -28.334 -78.999 -50.001s-35.5 -47.834 -45.5 -78.501
s-15.667 -65.334 -17 -104.001v-8v-30v-72v-136c0 -30.667 -0.5 -56.167 -1.5 -76.5s-4.33301 -36.666 -10 -48.999s-14.667 -21.166 -27 -26.499s-29.5 -8 -51.5 -8zM146.999 231.998v35c0 33.333 3.33301 61.166 10 83.499s16.167 40.166 28.5 53.499
s27.166 22.833 44.499 28.5s36.333 8.16699 57 7.5c20.667 0.666992 39.667 -1.66602 57 -6.99902s32.166 -14.666 44.499 -27.999s21.833 -31.333 28.5 -54s10 -50.667 10 -84v-35c0 -33.333 -3.33301 -61.333 -10 -84s-16.167 -40.667 -28.5 -54
s-27.166 -22.666 -44.499 -27.999s-36.333 -7.66602 -57 -6.99902c-20.667 -0.666992 -39.667 1.83301 -57 7.5s-32.166 15.167 -44.499 28.5s-21.833 31.166 -28.5 53.499s-10 50.166 -10 83.499z" />
    <glyph glyph-name="q" unicode="q" horiz-adv-x="645" 
d="M605 -199l0.000976562 44.9961h-2c-18 0 -32.5 0.333008 -43.5 1s-19.333 2.33398 -25 5.00098s-9.33398 6.83398 -11.001 12.501s-2.16699 13.5 -1.5 23.5c-1.33301 15.333 -4.16602 28.666 -8.49902 39.999s-10.5 21.333 -18.5 30s-17.667 16.834 -29 24.501
s-25 15.834 -41 24.501c61.333 13.333 109 40.666 143 81.999s52.333 94 55 158c-3.33301 77.333 -29.666 138.333 -78.999 183s-118 67 -206 67c-92.667 0 -164.167 -22.333 -214.5 -67s-76.833 -105.667 -79.5 -183c0 -30.667 4.5 -61 13.5 -91s23 -56.667 42 -80
s43.5 -42.166 73.5 -56.499s66.333 -20.833 109 -19.5c30.667 -3.33301 57.667 -11.166 81 -23.499s37.666 -33.833 42.999 -64.5c-1.33301 -16 -3.33301 -28.333 -6 -37s-7.33398 -15.167 -14.001 -19.5s-15.5 -7 -26.5 -8s-25.167 -1.5 -42.5 -1.5v-45h288z
M159.001 264.996c0 33.333 5.16504 61.165 15.498 83.498s23.833 40.166 40.5 53.499s35.334 22.833 56.001 28.5s41.334 8.16699 62.001 7.5c20.667 0.666992 41.5 -1.66602 62.5 -6.99902s39.833 -14.666 56.5 -27.999s30.167 -31.333 40.5 -54s15.5 -50.667 15.5 -84v-35
c0 -33.333 -5.16699 -61.333 -15.5 -84s-23.833 -40.667 -40.5 -54s-35.5 -22.666 -56.5 -27.999s-41.833 -7.66602 -62.5 -6.99902c-20 -0.666992 -40 1.5 -60 6.5s-38.167 13.667 -54.5 26s-30 28.666 -41 48.999s-17.167 45.833 -18.5 76.5v50z" />
    <glyph glyph-name="r" unicode="r" horiz-adv-x="446" 
d="M396 500c-95.333 0 -168.169 -23.499 -218.502 -70.499s-75.5 -111.167 -75.5 -192.5v-32c0 -30.667 -0.5 -56.167 -1.5 -76.5s-4.16699 -36.666 -9.5 -48.999s-13.333 -21.166 -24 -26.499s-26 -8 -46 -8l-10 -3v-42h296v45c-22 0 -39.167 2.66699 -51.5 8
s-21.333 14.166 -27 26.499s-9 28.666 -10 48.999s-1.5 45.833 -1.5 76.5v72c0 33.333 5.16699 61.166 15.5 83.499s23.833 40.166 40.5 53.499s35.334 22.833 56.001 28.5s41.334 8.16699 62.001 7.5c8 0 16.333 -0.166992 25 -0.5s17 -1.16602 25 -2.49902v52
c-7.33301 0.666992 -15 1 -23 1h-22z" />
    <glyph glyph-name="s" unicode="s" horiz-adv-x="420" 
d="M188 44c-19.333 0 -35.8252 3.00586 -49.4922 9.00586s-25.167 13.5 -34.5 22.5s-16.833 18.833 -22.5 29.5s-10.5 21 -14.5 31h-43l17 -135c29.333 0 56.666 -1.16699 81.999 -3.5s50.666 -3.83301 75.999 -4.5c22.667 0 45.667 2.83301 69 8.5s44.333 14.5 63 26.5
s33.834 27.5 45.501 46.5s17.5 41.5 17.5 67.5c0 23.333 -4.66699 43.166 -14 59.499s-21.5 30.333 -36.5 42s-31.833 21.667 -50.5 30s-37.334 16.166 -56.001 23.499l-42.5 17.5c-13.667 5.66699 -25.834 12.167 -36.501 19.5s-19.167 15.333 -25.5 24s-9.5 19 -9.5 31
c0 11.333 3 21.166 9 29.499s13.667 15.333 23 21s20.166 10 32.499 13s24.833 4.5 37.5 4.5c24.667 0.666992 43.667 -2 57 -8s23.333 -13.833 30 -23.5s11.167 -20.167 13.5 -31.5s5.5 -22 9.5 -32h49c-2 11.333 -3 21 -3 29s0.166992 15.833 0.5 23.5
s0.5 15.167 0.5 22.5c0 8 -1 17 -3 27c-13.333 8 -25.666 14.833 -36.999 20.5s-23.333 10.167 -36 13.5s-26.334 5.66602 -41.001 6.99902s-31.334 2 -50.001 2c-24 0 -47 -3 -69 -9s-41.5 -14.833 -58.5 -26.5s-30.5 -25.834 -40.5 -42.501s-15 -35.334 -15 -56.001
c0 -24.667 4.66699 -45.5 14 -62.5s21.5 -31.333 36.5 -43s31.833 -21.5 50.5 -29.5s37.667 -15.333 57 -22l42 -16c13.333 -5.33301 25.166 -11.5 35.499 -18.5s18.666 -15 24.999 -24s9.5 -19.5 9.5 -31.5c0 -13.333 -3 -25 -9 -35s-14.333 -18.5 -25 -25.5
s-22.834 -12.333 -36.501 -16s-28.167 -5.5 -43.5 -5.5z" />
    <glyph glyph-name="t" unicode="t" horiz-adv-x="385" 
d="M367 500h-116v251h-115v-251h-119v-58h119v-237c0 -30.667 -0.5 -56.167 -1.5 -76.5s-4.33301 -36.666 -10 -48.999s-14.667 -21.166 -27 -26.499s-29.5 -8 -51.5 -8v-45h296v45c-22 0 -39.167 2.66699 -51.5 8s-21.5 14.166 -27.5 26.499s-9.5 28.666 -10.5 48.999
s-1.5 45.833 -1.5 76.5v237h116v58z" />
    <glyph glyph-name="u" unicode="u" horiz-adv-x="725" 
d="M227 232l0.000976562 63c0 30.667 0.5 56.167 1.5 76.5s4.33301 36.666 10 48.999s14.667 21.166 27 26.499s29.5 8 51.5 8v45h-296v-42l10 -3c20 0 35.333 -2.66699 46 -8s18.667 -14.166 24 -26.499s8.5 -28.666 9.5 -48.999s1.5 -45.833 1.5 -76.5v-32
c0 -40.667 5 -77.167 15 -109.5s25.333 -59.833 46 -82.5s47 -40.167 79 -52.5s70.333 -18.5 115 -18.5c80 0 140.333 23.5 181 70.5s61 111.167 61 192.5v32c0 30.667 0.5 56.167 1.5 76.5s4.16699 36.666 9.5 48.999s13.333 21.166 24 26.499s26 8 46 8h10v45h-296v-45
c22 0 39.167 -2.66699 51.5 -8s21.333 -14.166 27 -26.499s9 -28.666 10 -48.999s1.5 -45.833 1.5 -76.5v-63c0 -33.333 -3 -61.333 -9 -84s-14.667 -40.667 -26 -54s-25.166 -22.666 -41.499 -27.999s-34.833 -7.66602 -55.5 -6.99902
c-20.667 -0.666992 -39.334 1.83301 -56.001 7.5s-30.834 15.167 -42.501 28.5s-20.667 31.166 -27 53.499s-9.5 50.166 -9.5 83.499z" />
    <glyph glyph-name="v" unicode="v" horiz-adv-x="570" 
d="M306 -1l127 300.001c12.667 31.333 24.167 56.833 34.5 76.5s20.5 35.334 30.5 47.001s20.5 20 31.5 25s23.833 8.16699 38.5 9.5v41h-221v-42h39c9.33301 0 15.833 -0.833008 19.5 -2.5s5.83398 -3.83398 6.50098 -6.50098s1 -6.33398 1 -11.001l-115 -276l-59.5 143
l-32.5 77.5c-7.33301 17.667 -12 29.5 -14 35.5s-3 11.667 -3 17c0 15.333 13.333 23 40 23h30v42h-257v-41c15.333 -1.33301 28.666 -5 39.999 -11s22 -15.333 32 -28s19.833 -28.667 29.5 -48s20.167 -43 31.5 -71l128 -300h43z" />
    <glyph glyph-name="w" unicode="w" horiz-adv-x="1099" 
d="M231 228l-0.000976562 65.9941c0 30.667 0.5 56.167 1.5 76.5s4.33301 36.666 10 48.999s14.667 21.166 27 26.499s29.5 8 51.5 8v45h-296v-44l10 -1c20 0 35.333 -2.66699 46 -8s18.667 -14.166 24 -26.499s8.5 -28.666 9.5 -48.999s1.5 -45.833 1.5 -76.5v-35
c0 -40.667 4.5 -77.167 13.5 -109.5s23.333 -59.833 43 -82.5s45.167 -40.167 76.5 -52.5s69.333 -18.5 114 -18.5c42 0 78.833 6.5 110.5 19.5s58.167 31.833 79.5 56.5c19.333 -23.333 44.666 -41.166 75.999 -53.499s69.666 -18.5 114.999 -18.5
c80.667 0 142.5 23.5 185.5 70.5s64.5 111.167 64.5 192.5v32c0 30.667 0.5 56.167 1.5 76.5s4.16699 36.666 9.5 48.999s13.333 21.166 24 26.499s26 8 46 8h10v45h-296v-45c22 0 39.167 -2.66699 51.5 -8s21.333 -14.166 27 -26.499s9 -28.666 10 -48.999
s1.5 -45.833 1.5 -76.5v-63c0 -33.333 -3.33301 -61.333 -10 -84s-16.167 -40.667 -28.5 -54s-27.166 -22.666 -44.499 -27.999s-36.333 -7.66602 -57 -6.99902c-41.333 -1.33301 -72.666 10.5 -93.999 35.5s-32.333 70.167 -33 135.5v86h-1c0 26 1 48 3 66s6 32.333 12 43
s15 18.334 27 23.001s28.333 7 49 7v45h-296v-45h10c20 0 35.333 -2.66699 46 -8s18.667 -14.166 24 -26.499s8.5 -28.666 9.5 -48.999s1.5 -45.833 1.5 -76.5v-46c0 -8.66699 0.333008 -15.667 1 -21c0 -33.333 -3.33301 -61.333 -10 -84s-16.167 -40.667 -28.5 -54
s-27.166 -22.666 -44.499 -27.999s-36.333 -7.66602 -57 -6.99902c-20.667 -0.666992 -39 1.83301 -55 7.5s-29.333 15.167 -40 28.5s-18.667 31.166 -24 53.499s-8 50.166 -8 83.499z" />
    <glyph glyph-name="x" unicode="x" horiz-adv-x="602" 
d="M583 48h-20.9971c-10.667 0 -19.167 0.833008 -25.5 2.5s-11.333 5 -15 10s-6 11.667 -7 20s-1.5 19.166 -1.5 32.499c0 64 -26.667 110.333 -80 139c49.333 26.667 75.666 70 78.999 130c0 15.333 0.333008 27.666 1 36.999s2.66699 16.666 6 21.999
s8.16602 8.83301 14.499 10.5s15.5 2.5 27.5 2.5h19v48h-241v-48c16 0 28.5 -0.833008 37.5 -2.5s15.667 -5.16699 20 -10.5s6.83301 -13.166 7.5 -23.499s1 -24.166 1 -41.499c0 -16 -3 -29.5 -9 -40.5s-13.667 -20 -23 -27s-19.5 -12 -30.5 -15s-21.5 -4.5 -31.5 -4.5
c-12 0.666992 -23.833 2.66699 -35.5 6s-22.334 8.33301 -32.001 15s-17.5 15.334 -23.5 26.001s-9 24 -9 40c0 17.333 0.333008 31.166 1 41.499s3.16699 18.166 7.5 23.499s11 8.83301 20 10.5s22.167 2.5 39.5 2.5v48h-245v-48h18c12 0 21.333 -0.833008 28 -2.5
s11.667 -5.16699 15 -10.5s5.33301 -12.666 6 -21.999s1 -21.666 1 -36.999c3.33301 -60 29.666 -103.333 78.999 -130c-53.333 -28.667 -80 -75 -80 -139c0 -13.333 -0.5 -24.166 -1.5 -32.499s-3.33301 -15 -7 -20s-8.66699 -8.33301 -15 -10s-14.833 -2.5 -25.5 -2.5h-19
v-48h248l1 48c-16.667 0 -29.667 0.833008 -39 2.5s-16.166 5.16699 -20.499 10.5s-6.83301 13.166 -7.5 23.499s-1 24.166 -1 41.499c0 13.333 2.83301 25.5 8.5 36.5s13.334 20.5 23.001 28.5s20.334 14.167 32.001 18.5s23.5 7.16602 35.5 8.49902
c11.333 -1.33301 22.666 -3.83301 33.999 -7.5s21.666 -9.16699 30.999 -16.5s16.833 -16.5 22.5 -27.5s8.5 -24.5 8.5 -40.5c0 -17.333 -0.333008 -31.166 -1 -41.499s-3.16699 -18.166 -7.5 -23.499s-11 -8.83301 -20 -10.5s-21.833 -2.5 -38.5 -2.5v-48h241v48z" />
    <glyph glyph-name="y" unicode="y" horiz-adv-x="725" 
d="M621 -196l-0.000976562 44.998h-2c-18 0 -32.5 0.333008 -43.5 1s-19.333 2.33398 -25 5.00098s-9.33398 6.83398 -11.001 12.501s-2.16699 13.5 -1.5 23.5c-1.33301 15.333 -4.16602 28.666 -8.49902 39.999s-10.5 21.333 -18.5 30s-17.667 16.834 -29 24.501
s-24.666 15.5 -39.999 23.5c8.66699 3.33301 17 5.83301 25 7.5s16 5.16699 24 10.5c38.667 20.667 67.667 51 87 91s29 88.333 29 145v32c0 30.667 0.5 56.167 1.5 76.5s4.16699 36.666 9.5 48.999s13.333 21.166 24 26.499s26 8 46 8h10v45h-296v-45
c22 0 39.167 -2.66699 51.5 -8s21.333 -14.166 27 -26.499s9 -28.666 10 -48.999s1.5 -45.833 1.5 -76.5v-63c0 -33.333 -3 -61.333 -9 -84s-14.667 -40.667 -26 -54s-25.166 -22.666 -41.499 -27.999s-34.833 -7.66602 -55.5 -6.99902
c-20.667 -0.666992 -39.334 1.83301 -56.001 7.5s-30.834 15.167 -42.501 28.5s-20.667 31.166 -27 53.499s-9.5 50.166 -9.5 83.499v63c0 30.667 0.5 56.167 1.5 76.5s4.33301 36.666 10 48.999s14.667 21.166 27 26.499s29.5 8 51.5 8v45h-296v-42l10 -3
c20 0 35.333 -2.66699 46 -8s18.667 -14.166 24 -26.499s8.5 -28.666 9.5 -48.999s1.5 -45.833 1.5 -76.5v-32c0 -68 13.833 -124.167 41.5 -168.5s71.834 -73.166 132.501 -86.499l46 -10c15.333 -3.33301 29.5 -8.33301 42.5 -15s23.833 -15.334 32.5 -26.001
s14.334 -24.667 17.001 -42c-1.33301 -16 -3.33301 -28.333 -6 -37s-7.33398 -15.167 -14.001 -19.5s-15.5 -7 -26.5 -8s-25.167 -1.5 -42.5 -1.5v-45h288z" />
    <glyph glyph-name="z" unicode="z" horiz-adv-x="547" 
d="M59 350l45 -1c0 16 0.166992 29.833 0.5 41.5s2.33301 21.334 6 29.001s9.5 13.334 17.5 17.001s20 5.5 36 5.5l209 1l-75.5 -93l-77.5 -94l-72.5 -87l-60.5 -71.5l-42 -48.5l-16 -18l11 -31c70 0 129.833 0.166992 179.5 0.5s91.5 0.5 125.5 0.5h81h49h28h18v150h-45
c0 -16 -0.166992 -29.833 -0.5 -41.5s-2.16602 -21.334 -5.49902 -29.001s-9 -13.334 -17 -17.001s-20 -5.5 -36 -5.5h-227c90 116 161.667 205.5 215 268.5s90.666 105.167 111.999 126.5v47h-458v-150z" />
    <glyph glyph-name="braceleft" unicode="{" horiz-adv-x="450" 
d="M194 199l0.00195312 -18.0029c0 -30.667 -0.5 -55 -1.5 -73s-4.33301 -31.667 -10 -41s-14.667 -15.333 -27 -18s-29.5 -4 -51.5 -4v-45h324v45h-38c-18 0 -32.333 1.5 -43 4.5s-18.834 8.83301 -24.501 17.5s-9.33398 20.334 -11.001 35.001s-2.5 34 -2.5 58
c0 52 -10.333 96.5 -31 133.5s-51 64.5 -91 82.5c38 17.333 67.333 43.166 88 77.499s31.667 75.833 33 124.5c0 26.667 0.666992 48.334 2 65.001s4.66602 29.667 9.99902 39s13.333 15.5 24 18.5s25.667 4.5 45 4.5h43v45h-329v-45c22 0 39.167 -1.33301 51.5 -4
s21.333 -8.66699 27 -18s9 -23 10 -41s1.5 -42.333 1.5 -73v-15c0 -28 -3.66699 -51.167 -11 -69.5s-17.166 -33.166 -29.499 -44.499s-26.666 -19.5 -42.999 -24.5s-33.166 -8.16699 -50.499 -9.5h-25v-59h15h6h2h2c17.333 -1.33301 34.166 -4.5 50.499 -9.5
s30.666 -13.167 42.999 -24.5s22.333 -26.166 30 -44.499s11.5 -41.5 11.5 -69.5z" />
    <glyph glyph-name="bar" unicode="|" horiz-adv-x="189" 
d="M139 -114v1000h-89v-1000h89z" />
    <glyph glyph-name="braceright" unicode="}" horiz-adv-x="445" 
d="M262 199c0 28 3.66797 51.1699 11.001 69.5029s17.333 33.166 30 44.499s27.167 19.5 43.5 24.5s33.166 8.16699 50.499 9.5h2h1h6h16v59h-25c-17.333 1.33301 -34.166 4.5 -50.499 9.5s-30.666 13.167 -42.999 24.5s-22.166 26.166 -29.499 44.499s-11 41.5 -11 69.5v15
c0 30.667 0.5 55 1.5 73s4.33301 31.667 10 41s14.667 15.333 27 18s29.5 4 51.5 4v45h-329v-45h43c18.667 0 33.5 -1.5 44.5 -4.5s19.167 -9.16699 24.5 -18.5s8.66602 -22.333 9.99902 -39s2 -38.334 2 -65.001c1.33301 -48.667 12.333 -90.167 33 -124.5
s50 -60.166 88 -77.499c-40 -18 -70.333 -45.5 -91 -82.5s-31 -81.5 -31 -133.5c0 -24 -0.833008 -43.333 -2.5 -58s-5.33398 -26.334 -11.001 -35.001s-13.834 -14.5 -24.501 -17.5s-25 -4.5 -43 -4.5h-39v-45h325v45c-22 0 -39.167 1.33301 -51.5 4
s-21.333 8.66699 -27 18s-9 23 -10 41s-1.5 42.333 -1.5 73v18z" />
    <glyph glyph-name="asciitilde" unicode="~" horiz-adv-x="443" 
d="M427 594l-18.001 14.999c-11.333 -9.33301 -24.833 -18 -40.5 -26s-31.167 -12 -46.5 -12c-10 0 -21.167 1.83301 -33.5 5.5s-26.833 9.16699 -43.5 16.5c-32 16 -59.667 24 -83 24c-66 0 -113.333 -34 -142 -102c4.66699 -4 8.83398 -5.5 12.501 -4.5
s7.5 -1.5 11.5 -7.5c12 16 25.667 27.167 41 33.5s29.666 9.5 42.999 9.5c11.333 0 24.333 -2.16699 39 -6.5s31.667 -10.166 51 -17.499c37.333 -16.667 67.333 -25 90 -25c48.667 0 88.334 32.333 119.001 97z" />
    <glyph glyph-name="exclamdown" unicode="&#xa1;" horiz-adv-x="174" 
d="M26 -202h123l-34 600h-51zM87 433c21.333 0 36.5 5.83301 45.5 17.5s13.833 25.167 14.5 40.5c-0.666992 15.333 -5.5 28.666 -14.5 39.999s-24.167 17 -45.5 17c-20 0 -34.333 -5.66699 -43 -17s-13.667 -24.666 -15 -39.999c1.33301 -15.333 6.33301 -28.833 15 -40.5
s23 -17.5 43 -17.5z" />
    <glyph glyph-name="cent" unicode="&#xa2;" horiz-adv-x="521" 
d="M320 0l-0.00292969 114.995c22.667 2 42.167 4.66699 58.5 8s31 7.16602 44 11.499s25.167 9 36.5 14l35 15.5l-2 32c-53.333 -18 -101.333 -24.833 -144 -20.5s-79.167 15 -109.5 32s-54.333 37.667 -72 62s-27.834 47.833 -30.501 70.5c-4.66699 37.333 -3.5 69 3.5 95
s17.833 47.167 32.5 63.5s31.834 28.833 51.501 37.5s40.167 14.334 61.5 17.001c19.333 0 35.666 -1.66699 48.999 -5s25 -8.66602 35 -15.999s19 -16.666 27 -27.999s16.667 -24.666 26 -39.999c18.667 16 32.834 27.167 42.501 33.5s16.667 10.333 21 12
s6.33301 2.33398 6 2.00098s-1.16602 0.833984 -2.49902 3.50098c-7.33301 15.333 -20.666 32 -39.999 50s-47.666 33 -84.999 45l-22 4c-7.33301 1.33301 -14.666 2.33301 -21.999 3v133h-89v-136c-30 -6 -57.5 -16.5 -82.5 -31.5s-46.333 -33.5 -64 -55.5
s-31.334 -47 -41.001 -75s-14.5 -58 -14.5 -90c0 -32.667 4.83301 -63 14.5 -91s23.5 -52.667 41.5 -74s39.333 -39 64 -53s52 -23 82 -27v-117h89z" />
    <glyph glyph-name="sterling" unicode="&#xa3;" horiz-adv-x="533" 
d="M494 256l-0.000976562 42.001h-274v80h273v46h-273v95c0 32.667 5.16699 60.167 15.5 82.5s23.666 40.333 39.999 54s34.833 23.167 55.5 28.5s41.334 8 62.001 8h102v58h-102c-93.333 -0.666992 -164.666 -24.334 -213.999 -71.001s-74 -110.334 -74 -191.001v-66h-89
v-42h89v-82h-91v-42h91v-53c0 -30.667 -0.5 -56.167 -1.5 -76.5s-4.16699 -36.666 -9.5 -48.999s-13.333 -21.166 -24 -26.499s-26 -8 -46 -8l-10 -3v-42h486v46h-214c-16 2 -28.5 6.16699 -37.5 12.5s-15.667 15.833 -20 28.5s-6.83301 28.667 -7.5 48s-1 42.666 -1 69.999
v53h274z" />
    <glyph glyph-name="currency" unicode="&#xa4;" horiz-adv-x="647" 
d="M469 280l0.00195312 42h-310c-0.666992 5.33301 -1.16699 10.5 -1.5 15.5s-0.5 10.167 -0.5 15.5v46v3h358v46l-354 -1c10 76.667 34.333 135.667 73 177s88.334 62 149.001 62c50.667 0 93.834 -14.333 129.501 -43s62.834 -76 81.501 -142h30
c-6 27.333 -9.83301 53.833 -11.5 79.5s-2.83398 48.334 -3.50098 68.001s-1.16699 35.334 -1.5 47.001s-2.5 17.5 -6.5 17.5c-16 0 -33.667 2 -53 6s-39.166 8.5 -59.499 13.5s-40.833 9.5 -61.5 13.5s-40.334 6 -59.001 6c-50 0 -95.833 -9.33301 -137.5 -28
s-77.834 -44.834 -108.501 -78.501s-54.5 -74 -71.5 -121s-25.5 -98.833 -25.5 -155.5c0 -44 5.33301 -85.833 16 -125.5s26.667 -75.667 48 -108s47.666 -60 78.999 -83s67.666 -39.167 108.999 -48.5c29.333 -7.33301 59 -11 89 -11c18.667 0 38.334 2 59.001 6
s41.167 8.5 61.5 13.5s40.166 9.5 59.499 13.5s37 6 53 6c4 0 6.16699 5.83301 6.5 17.5s0.833008 27.334 1.5 47.001s1.83398 42.334 3.50098 68.001s5.5 52.167 11.5 79.5h-30c-18.667 -66 -45.834 -113.333 -81.501 -142s-78.834 -43 -129.501 -43
c-3.33301 -2 -9.83301 -2.33301 -19.5 -1s-20 3.16602 -31 5.49902s-21.167 5.16602 -30.5 8.49902s-15.333 6.66602 -18 9.99902c-30 17.333 -55 43 -75 77s-34 74.333 -42 121h304z" />
    <glyph glyph-name="yen" unicode="&#xa5;" horiz-adv-x="797" 
d="M687 118l0.000976562 41.998h-228v79l227 -1v48h-134c44 20.667 77.833 50.834 101.5 90.501s35.5 87.5 35.5 143.5v27c0 30.667 0.5 56.167 1.5 76.5s4.16699 36.5 9.5 48.5s13.333 20.5 24 25.5s26 7.5 46 7.5h10v45l-296 1v-45c22 0 39.167 -2.66699 51.5 -8
s21.333 -14.166 27 -26.499s9 -28.666 10 -48.999s1.5 -45.833 1.5 -76.5v-57c0 -33.333 -5.16699 -61.333 -15.5 -84s-23.833 -40.667 -40.5 -54s-35.5 -22.666 -56.5 -27.999s-41.833 -7.66602 -62.5 -6.99902c-20.667 -0.666992 -41.334 1.83301 -62.001 7.5
s-39.334 15.167 -56.001 28.5s-30.167 31.166 -40.5 53.499s-15.5 50.166 -15.5 83.499v57c0 30.667 0.5 56.167 1.5 76.5s4.33301 36.666 10 48.999s14.667 21.166 27 26.499s29.5 8 51.5 8v45h-296v-45h10c20 0 35.333 -2.66699 46 -8s18.667 -14.166 24 -26.499
s8.5 -28.666 9.5 -48.999s1.5 -45.833 1.5 -76.5v-26c0 -56 11.833 -103.833 35.5 -143.5s58.167 -69.834 103.5 -90.501h-136v-47h231v-79h-233v-42h230c-1.33301 -13.333 -3.66602 -24.666 -6.99902 -33.999s-8.33301 -16.833 -15 -22.5s-15.167 -9.83398 -25.5 -12.501
s-23.5 -4 -39.5 -4v-45h296v45h-10c-28 0 -47.5 5.33301 -58.5 16s-17.833 29.667 -20.5 57h226z" />
    <glyph glyph-name="brokenbar" unicode="&#xa6;" horiz-adv-x="189" 
d="M139 -114v437h-89v-437h89zM139 886h-89v-413h89v413z" />
    <glyph glyph-name="section" unicode="&#xa7;" horiz-adv-x="527" 
d="M188 -33c-19.333 0 -35.8262 3.00391 -49.4932 9.00391s-25.167 13.5 -34.5 22.5s-16.833 18.833 -22.5 29.5s-10.5 21 -14.5 31h-43l17 -135c29.333 0 56.666 -1.16699 81.999 -3.5s50.666 -3.83301 75.999 -4.5c22.667 0 45.667 2.83301 69 8.5s44.333 14.5 63 26.5
s33.834 27.5 45.501 46.5s17.5 41.5 17.5 67.5c0 18.667 -3.66699 35.334 -11 50.001c16.667 4.66699 32.334 10.834 47.001 18.501s27.667 17.334 39 29.001s20.333 25.167 27 40.5s10 32.666 10 51.999c0 23.333 -4.66699 43.166 -14 59.499s-21.5 30.333 -36.5 42
s-31.833 21.667 -50.5 30s-37.334 16.166 -56.001 23.499l-42.5 17.5c-13.667 5.66699 -25.834 12.167 -36.501 19.5s-19.167 15.333 -25.5 24s-9.5 19 -9.5 31c0 11.333 3 21.166 9 29.499s13.667 15.333 23 21s20.166 10 32.499 13s24.833 4.5 37.5 4.5
c24.667 0.666992 43.667 -2 57 -8s23.333 -13.833 30 -23.5s11.167 -20.167 13.5 -31.5s5.5 -22 9.5 -32h49c-2 11.333 -3 21 -3 29s0.166992 15.833 0.5 23.5s0.5 15.167 0.5 22.5c0 8 -1 17 -3 27c-13.333 8 -25.666 14.833 -36.999 20.5s-23.333 10.167 -36 13.5
s-26.334 5.66602 -41.001 6.99902s-31.334 2 -50.001 2c-24 0 -47 -3 -69 -9s-41.5 -14.833 -58.5 -26.5s-30.5 -25.834 -40.5 -42.501s-15 -35.334 -15 -56.001c0 -13.333 1.83301 -25 5.5 -35s8.5 -18.667 14.5 -26c-18.667 -4 -36 -9.66699 -52 -17s-30 -16.5 -42 -27.5
s-21.333 -23.5 -28 -37.5s-10 -29.667 -10 -47c0 -24.667 4.66699 -45.5 14 -62.5s21.5 -31.333 36.5 -43s31.833 -21.5 50.5 -29.5s37.667 -15.333 57 -22l42 -16c13.333 -5.33301 25.166 -11.5 35.499 -18.5s18.666 -15 24.999 -24s9.5 -19.5 9.5 -31.5
c0 -13.333 -3 -25 -9 -35s-14.333 -18.5 -25 -25.5s-22.834 -12.333 -36.501 -16s-28.167 -5.5 -43.5 -5.5zM237.007 220.004c-9.33301 5.33301 -18.9971 10.1719 -28.9971 14.5049s-19.667 8.83301 -29 13.5v1h-1c-15.333 8 -28.333 17 -39 27s-16 22 -16 36
c0 11.333 3 21.166 9 29.499s13.667 15.333 23 21s20.166 10 32.499 13s24.833 4.5 37.5 4.5h10c3.33301 0 6.66602 -0.333008 9.99902 -1c14 -4.66699 28.333 -8.83398 43 -12.501s28.667 -7.83398 42 -12.501c29.333 -10.667 50.666 -26.334 63.999 -47.001
s20 -43.334 20 -68.001c0 -20 -6.66699 -36.5 -20 -49.5s-30.333 -22.167 -51 -27.5c-15.333 11.333 -32.333 21.5 -51 30.5z" />
    <glyph glyph-name="dieresis" unicode="&#xa8;" horiz-adv-x="595" 
d="M158 883c0 -18 6 -32.833 18 -44.5s26.667 -17.5 44 -17.5s32.166 5.83301 44.499 17.5s18.5 26.5 18.5 44.5c0 16.667 -6.16699 31 -18.5 43s-27.166 18 -44.499 18s-32 -6 -44 -18s-18 -26.333 -18 -43zM346 883c0 -18 6 -32.833 18 -44.5s26.333 -17.5 43 -17.5
c18 0 33.167 5.83301 45.5 17.5s18.5 26.5 18.5 44.5c0 16.667 -6.33301 31 -19 43s-27.667 18 -45 18c-16 0 -30.167 -6 -42.5 -18s-18.5 -26.333 -18.5 -43z" />
    <glyph glyph-name="copyright" unicode="&#xa9;" horiz-adv-x="829" 
d="M415 4c52.667 0 102.834 9.83301 150.501 29.5s89.5 46.5 125.5 80.5s64.667 74.167 86 120.5s32 96.166 32 149.499c0 52.667 -10.667 102.167 -32 148.5s-50 86.5 -86 120.5s-77.833 60.833 -125.5 80.5s-97.834 29.5 -150.501 29.5
c-53.333 0 -103.833 -9.83301 -151.5 -29.5s-89.5 -46.5 -125.5 -80.5s-64.667 -74.167 -86 -120.5s-32 -95.833 -32 -148.5c0 -53.333 10.667 -103.166 32 -149.499s50 -86.5 86 -120.5s77.833 -60.833 125.5 -80.5s98.167 -29.5 151.5 -29.5zM79 384
c0 44.667 9 86.5 27 125.5s42.333 73 73 102s66.334 51.667 107.001 68s83.667 24.5 129 24.5s88.333 -8.16699 129 -24.5s76.167 -39 106.5 -68s54.5 -63 72.5 -102s27 -80.833 27 -125.5s-9 -86.5 -27 -125.5s-42.167 -73 -72.5 -102s-65.833 -51.833 -106.5 -68.5
s-83.667 -25 -129 -25s-88.333 8.33301 -129 25s-76.334 39.5 -107.001 68.5s-55 63 -73 102s-27 80.833 -27 125.5zM415 570c19.333 0 35.6631 -1.67383 48.9961 -5.00684s25 -8.66602 35 -15.999s19 -16.666 27 -27.999s16.667 -24.666 26 -39.999
c18.667 16 32.834 27.167 42.501 33.5s16.667 10.333 21 12s6.33301 2.33398 6 2.00098s-1.16602 0.833984 -2.49902 3.50098c-7.33301 15.333 -20.666 32 -39.999 50s-47.666 33 -84.999 45c-48 11.333 -92.333 12.666 -133 3.99902s-76 -24.5 -106 -47.5
s-53.5 -52.167 -70.5 -87.5s-25.5 -74.333 -25.5 -117c0 -36 6 -69.333 18 -100s29 -57 51 -79s48 -39.167 78 -51.5s63 -18.166 99 -17.499c31.333 0.666992 57.833 2.5 79.5 5.5s40.5 6.83301 56.5 11.5s30.333 9.83398 43 15.501l40 17.5l-2 32
c-53.333 -18 -101.333 -24.833 -144 -20.5s-79.167 15 -109.5 32s-54.333 37.667 -72 62s-27.834 47.833 -30.501 70.5c-4.66699 37.333 -3.5 69 3.5 95s17.833 47.167 32.5 63.5s31.834 28.833 51.501 37.5s40.167 14.334 61.5 17.001z" />
    <glyph glyph-name="ordfeminine" unicode="&#xaa;" horiz-adv-x="414" 
d="M373 405l-0.000976562 167.002c0 51.333 -14 92.166 -42 122.499s-72 45.5 -132 45.5c-58 0 -100.5 -15 -127.5 -45s-40.5 -71 -40.5 -123s13.5 -92.833 40.5 -122.5s69.5 -44.5 127.5 -44.5c16.667 0 31.334 2.66699 44.001 8s24.667 15.666 36 30.999v-39h94z
M279.999 582.002c0 -38 -7.16797 -67.501 -21.501 -88.501s-34.166 -31.5 -59.499 -31.5c-22.667 0 -40.834 7.33301 -54.501 22s-20.5 40.667 -20.5 78c0 24 1.66699 43.833 5 59.5s8.33301 28 15 37s14.334 15.333 23.001 19s18.667 5.5 30 5.5
c26 0 46.333 -7.16699 61 -21.5s22 -40.166 22 -77.499v-2zM52.998 326.001v-75h320v75h-320z" />
    <glyph glyph-name="guillemotleft" unicode="&#xab;" horiz-adv-x="433" 
d="M62 194l99.5 -116c24.333 -29.333 38.166 -44 41.499 -44s7.5 1 12.5 3s6.5 5.33301 4.5 10c-4.66699 10 -11.667 23.667 -21 41s-18.5 35.5 -27.5 54.5s-17 37.833 -24 56.5s-10.5 34.667 -10.5 48l8.5 24c5.66699 16 12.834 35.167 21.501 57.5l27.5 68.5
c9.66699 23.333 18.167 42 25.5 56c1.33301 3.33301 -0.333984 5.83301 -5.00098 7.5s-8.66699 2.5 -12 2.5c-1.33301 0 -7.5 -6.16699 -18.5 -18.5l-39 -45.5l-47.5 -56.5l-44 -51.5c-11.333 -13.333 -18.333 -22.666 -21 -27.999s-4 -10.333 -4 -15
s1.83301 -10.834 5.5 -18.501s12.834 -19.5 27.501 -35.5zM247 193l99.5 -116c24.333 -29.333 38.166 -44 41.499 -44s7.5 1 12.5 3s6.5 5.33301 4.5 10c-4.66699 10 -11.667 23.667 -21 41s-18.5 35.5 -27.5 54.5s-17 37.833 -24 56.5s-10.5 34.667 -10.5 48l8.5 24
c5.66699 16 12.834 35.167 21.501 57.5l27.5 68.5c9.66699 23.333 18.167 42 25.5 56c1.33301 3.33301 -0.333984 5.83301 -5.00098 7.5s-8.66699 2.5 -12 2.5c-1.33301 0 -7.5 -6.16699 -18.5 -18.5l-39 -45.5l-47.5 -56.5l-44 -51.5
c-11.333 -13.333 -18.333 -22.666 -21 -27.999s-4 -10.333 -4 -15s1.83301 -10.834 5.5 -18.501s12.834 -19.5 27.501 -35.5z" />
    <glyph glyph-name="logicalnot" unicode="&#xac;" horiz-adv-x="1024" 
d="M41 -4l824 -0.00195312c22 0 41.667 2.83301 59 8.5s32 13.5 44 23.5s21.167 21.5 27.5 34.5s9.5 26.833 9.5 41.5c0 28.667 -7.5 51.334 -22.5 68.001s-34.833 29 -59.5 37c16.667 8 30.167 19.5 40.5 34.5s15.5 32.833 15.5 53.5c0 11.333 -1.33301 21.833 -4 31.5
s-7.66699 18.834 -15 27.501h3v140h-47l-4 -93h-292v188h-231v125h53v48h-415l-9 -106h49l4 58h109v-313h-139v-407zM230 355.998v360h108v-173h232v-139h-53v-48h2l75 -186h-192l-20 -47h230l32 -79h-554v312h140zM699 43.998l-3 -0.000976562l-128 312h266
c20 0 36 -2.16699 48 -6.5s21.5 -9.66602 28.5 -15.999s11.667 -13 14 -20s3.5 -13.167 3.5 -18.5c0 -18.667 -8.33301 -34.167 -25 -46.5s-36.667 -18.5 -60 -18.5h-114v-48h103c5.33301 0 14.666 -0.5 27.999 -1.5s26.833 -3.66699 40.5 -8s25.834 -11.333 36.501 -21
s16 -23.167 16 -40.5s-4.16699 -30.5 -12.5 -39.5s-19 -15.667 -32 -20s-27 -6.83301 -42 -7.5s-29.5 -1 -43.5 -1h-124v1zM914 622.997h46l-3 140h-294v-221h153v-51h47v151h-47v-52h-103v125h193zM338 404.997l13 -178h48l12 178h-73z" />
    <glyph glyph-name="registered" unicode="&#xae;" horiz-adv-x="829" 
d="M415 4c52.667 0 102.834 9.83301 150.501 29.5s89.5 46.5 125.5 80.5s64.667 74.167 86 120.5s32 96.166 32 149.499c0 52.667 -10.667 102.167 -32 148.5s-50 86.5 -86 120.5s-77.833 60.833 -125.5 80.5s-97.834 29.5 -150.501 29.5
c-53.333 0 -103.833 -9.83301 -151.5 -29.5s-89.5 -46.5 -125.5 -80.5s-64.667 -74.167 -86 -120.5s-32 -95.833 -32 -148.5c0 -53.333 10.667 -103.166 32 -149.499s50 -86.5 86 -120.5s77.833 -60.833 125.5 -80.5s98.167 -29.5 151.5 -29.5zM79 384
c0 44.667 8.99707 86.5 26.9971 125.5s42.333 73 73 102s66.334 51.667 107.001 68s83.667 24.5 129 24.5c34.667 0 67.834 -5 99.501 -15s61.5 -24 89.5 -42c-89.333 -3.33301 -157.5 -28.166 -204.5 -74.499s-70.5 -108.833 -70.5 -187.5v-32
c0 -30.667 -0.5 -56.167 -1.5 -76.5s-4.16699 -36.666 -9.5 -48.999s-13.333 -21.166 -24 -26.499s-26 -8 -46 -8l-10 -3v-42h296v45c-22 0 -39.167 2.66699 -51.5 8s-21.333 14.166 -27 26.499s-9 28.666 -10 48.999s-1.5 45.833 -1.5 76.5v72
c0 33.333 5.16699 61.166 15.5 83.499s23.833 40.166 40.5 53.499s35.334 22.833 56.001 28.5s41.334 8.16699 62.001 7.5c7.33301 0 15.333 -0.166992 24 -0.5s16.667 -1.16602 24 -2.49902c26 -28 46.5 -59.833 61.5 -95.5s22.5 -74.167 22.5 -115.5
c0 -44.667 -9 -86.5 -27 -125.5s-42.167 -73 -72.5 -102s-65.833 -51.833 -106.5 -68.5s-83.667 -25 -129 -25s-88.333 8.33301 -129 25s-76.334 39.5 -107.001 68.5s-55 63 -73 102s-27 80.833 -27 125.5z" />
    <glyph glyph-name="macron" unicode="&#xaf;" horiz-adv-x="293" 
d="M22 924v-75h253v75h-253z" />
    <glyph glyph-name="macron" unicode="&#x2c9;" horiz-adv-x="293" 
d="M22 924v-75h253v75h-253z" />
    <glyph glyph-name="degree" unicode="&#xb0;" horiz-adv-x="224" 
d="M213 601c0 13.333 -2.5 26 -7.5 38s-12 22.5 -21 31.5s-19.5 16.167 -31.5 21.5s-25 8 -39 8c-28 0 -51.5 -9.5 -70.5 -28.5s-28.5 -42.5 -28.5 -70.5c0 -13.333 2.5 -26 7.5 -38s12 -22.5 21 -31.5s19.5 -16.167 31.5 -21.5s25 -8 39 -8c13.333 0 26 2.5 38 7.5
s22.5 12 31.5 21s16.167 19.5 21.5 31.5s8 25 8 39zM117 546c-16 0 -29.5 5.5 -40.5 16.5s-16.5 24.167 -16.5 39.5s5.5 28.666 16.5 39.999s24.5 17 40.5 17c15.333 0 28.5 -5.66699 39.5 -17s16.5 -24.666 16.5 -39.999c0 -16 -5.5 -29.333 -16.5 -40
s-24.167 -16 -39.5 -16z" />
    <glyph glyph-name="plusminus" unicode="&#xb1;" horiz-adv-x="493" 
d="M215 409h-196v-65h196v-195h64v195h196v65h-196v195h-64v-195zM20 113v-65h456v65h-456z" />
    <glyph glyph-name="twosuperior" unicode="&#xb2;" horiz-adv-x="363" 
d="M327 421l-49.9971 0.000976562l-1 -52c-1.33301 -7.33301 -5.33301 -12.333 -12 -15s-17.667 -4.33398 -33 -5.00098l-105 -1l-1 52c-0.666992 20 4.5 35.667 15.5 47s24 20.5 39 27.5s30 12.5 45 16.5s26.5 8.66699 34.5 14c4.66699 2 11.667 6.66699 21 14
s18.666 16.166 27.999 26.499s17.5 22.333 24.5 36s10.5 28.167 10.5 43.5v1c-2 39.333 -15.667 71.333 -41 96s-63.666 37 -114.999 37c-28 0 -56.5 -3.16699 -85.5 -9.5s-58.167 -14.166 -87.5 -23.499c2 -8.66699 3.83301 -18.667 5.5 -30l5 -35
c1.66699 -12 3.16699 -23.5 4.5 -34.5s2.66602 -20.167 3.99902 -27.5h47v62c0 8 2.83301 14.333 8.5 19s13 8.5 22 11.5s19.5 5.16699 31.5 6.5l37 4c20 -0.666992 37.5 -5.66699 52.5 -15s22.5 -25.666 22.5 -48.999c-0.666992 -10.667 -4.33398 -22.834 -11.001 -36.501
s-19.334 -24.167 -38.001 -31.5l-96 -34c-10.667 -4 -20.5 -10.167 -29.5 -18.5s-17 -18 -24 -29s-12.5 -22.667 -16.5 -35s-6 -24.5 -6 -36.5v-127h294v131z" />
    <glyph glyph-name="threesuperior" unicode="&#xb3;" horiz-adv-x="349" 
d="M88 417c-18.667 -16.667 -31.8311 -26.499 -39.498 -29.499s-12.167 -4.5 -13.5 -4.5c0.666992 -12 1 -18.667 1 -20s0 -0.333008 0 3c5.33301 -10 14.666 -20.833 27.999 -32.5s33 -21.834 59 -30.501c13.333 -3.33301 26.666 -5 39.999 -5c22.667 0 43.667 4 63 12
s36 19 50 33s24.833 30.667 32.5 50s11.5 40.333 11.5 63c0 29.333 -8.5 54.333 -25.5 75s-40.5 33.667 -70.5 39l94 98v81h-290v-113h48v19c0.666992 11.333 1.83398 19.666 3.50098 24.999s8.16699 8 19.5 8h126l-116 -173c48 0 80.833 -4.33301 98.5 -13
s27.167 -20.334 28.5 -35.001c0.666992 -4 1 -8 1 -12v-10c0 -15.333 -2.16699 -28.166 -6.5 -38.499s-10 -18.833 -17 -25.5s-15 -11.667 -24 -15s-17.833 -5.66602 -26.5 -6.99902c-18.667 0 -32.834 4.66699 -42.501 14s-20.5 24 -32.5 44z" />
    <glyph glyph-name="acute" unicode="&#xb4;" horiz-adv-x="614" 
d="M397 997l-198 -141l16 -31c152.667 51.333 231 79 235 83c2 1.33301 -15.667 31 -53 89z" />
    <glyph glyph-name="mu" unicode="&#xb5;" horiz-adv-x="725" 
d="M229 232l-0.000976562 62.998c0 30.667 0.333008 56.167 1 76.5s3.83398 36.666 9.50098 48.999s14.5 21.166 26.5 26.499s29 8 51 8v45h-296v-44l10 -1c20 0 35.333 -2.66699 46 -8s18.667 -14.166 24 -26.499s8.5 -28.666 9.5 -48.999s1.5 -45.833 1.5 -76.5v-292
c0 -30.667 -0.166992 -56.167 -0.5 -76.5s-2.83301 -36.666 -7.5 -48.999s-12.834 -21.166 -24.501 -26.499s-28.5 -8 -50.5 -8v-45h293v45c-22 0 -39.5 3 -52.5 9s-22.667 16 -29 30s-10 32.667 -11 56s-0.5 52.666 1.5 87.999c36.667 -17.333 82 -26 136 -26h332v75h-147
c38 44.667 57 107.334 57 188.001v32c0 30.667 0.5 56.167 1.5 76.5s4.16699 36.666 9.5 48.999s13.333 21.166 24 26.499s26 8 46 8h10v45h-296v-45c22 0 39.167 -2.66699 51.5 -8s21.333 -14.166 27 -26.499s9 -28.666 10 -48.999s1.5 -45.833 1.5 -76.5v-63
c0 -33.333 -3 -61.333 -9 -84s-14.667 -40.667 -26 -54s-25.166 -22.666 -41.499 -27.999s-34.833 -7.66602 -55.5 -6.99902c-20.667 -0.666992 -39.167 1.83301 -55.5 7.5s-30.333 15.167 -42 28.5s-20.5 31.166 -26.5 53.499s-9 50.166 -9 83.499z" />
    <glyph glyph-name="mu" unicode="&#x3bc;" horiz-adv-x="725" 
d="M229 232l-0.000976562 62.998c0 30.667 0.333008 56.167 1 76.5s3.83398 36.666 9.50098 48.999s14.5 21.166 26.5 26.499s29 8 51 8v45h-296v-44l10 -1c20 0 35.333 -2.66699 46 -8s18.667 -14.166 24 -26.499s8.5 -28.666 9.5 -48.999s1.5 -45.833 1.5 -76.5v-292
c0 -30.667 -0.166992 -56.167 -0.5 -76.5s-2.83301 -36.666 -7.5 -48.999s-12.834 -21.166 -24.501 -26.499s-28.5 -8 -50.5 -8v-45h293v45c-22 0 -39.5 3 -52.5 9s-22.667 16 -29 30s-10 32.667 -11 56s-0.5 52.666 1.5 87.999c36.667 -17.333 82 -26 136 -26h332v75h-147
c38 44.667 57 107.334 57 188.001v32c0 30.667 0.5 56.167 1.5 76.5s4.16699 36.666 9.5 48.999s13.333 21.166 24 26.499s26 8 46 8h10v45h-296v-45c22 0 39.167 -2.66699 51.5 -8s21.333 -14.166 27 -26.499s9 -28.666 10 -48.999s1.5 -45.833 1.5 -76.5v-63
c0 -33.333 -3 -61.333 -9 -84s-14.667 -40.667 -26 -54s-25.166 -22.666 -41.499 -27.999s-34.833 -7.66602 -55.5 -6.99902c-20.667 -0.666992 -39.167 1.83301 -55.5 7.5s-30.333 15.167 -42 28.5s-20.5 31.166 -26.5 53.499s-9 50.166 -9 83.499z" />
    <glyph glyph-name="paragraph" unicode="&#xb6;" horiz-adv-x="565" 
d="M282 -266h114v741l62 -26v-718h78l1 611c-1.33301 38.667 -7 73.334 -17 104.001s-25.167 56.834 -45.5 78.501s-46.666 38.334 -78.999 50.001s-71.5 17.5 -117.5 17.5c-44 0 -81.333 -5.83301 -112 -17.5s-56 -28.334 -76 -50.001s-35 -47.834 -45 -78.501
s-15.667 -65.334 -17 -104.001c1.33301 -36 8.16602 -68.5 20.499 -97.5s29.5 -54.167 51.5 -75.5s48.333 -38.5 79 -51.5s64.667 -20.833 102 -23.5z" />
    <glyph glyph-name="periodcentered" unicode="&#xb7;" horiz-adv-x="166" 
d="M83 379c-21.333 0 -36.5 -5.83301 -45.5 -17.5s-13.833 -25.167 -14.5 -40.5c0.666992 -15.333 5.5 -28.666 14.5 -39.999s24.167 -17 45.5 -17c20 0 34.333 5.66699 43 17s13.667 24.666 15 39.999c-1.33301 15.333 -6.33301 28.833 -15 40.5s-23 17.5 -43 17.5z" />
    <glyph glyph-name="cedilla" unicode="&#xb8;" horiz-adv-x="281" 
d="M137 32l-33.002 -0.00195312c-2.66699 -1.33301 -5.66699 -7.16602 -9 -17.499s-6.66602 -22 -9.99902 -35l-10 -39.5c-3.33301 -13.333 -6.33301 -23.666 -9 -30.999c-1.33301 -3.33301 0.5 -5.5 5.5 -6.5s10.833 -1.33301 17.5 -1s13 1 19 2l9 1.5
c11.333 0 23 -3.5 35 -10.5s19.667 -16.167 23 -27.5c3.33301 -12.667 2.16602 -21.667 -3.50098 -27s-13.834 -8.16602 -24.501 -8.49902s-23 1 -37 4s-27.667 6.66699 -41 11l-36 12c-10.667 3.66699 -18 5.83398 -22 6.50098s-6.16699 -2.83301 -6.5 -10.5
s-0.166016 -12.834 0.500977 -15.501c2 -9.33301 12.5 -17.666 31.5 -24.999s41 -12.666 66 -15.999s50.333 -3.5 76 -0.5s45.834 10.5 60.501 22.5c7.33301 6 13.666 14.167 18.999 24.5s8 21.166 8 32.499s-3.5 22.166 -10.5 32.499s-19.167 18.166 -36.5 23.499
c-17.333 6.66699 -33.5 10.667 -48.5 12s-34.5 -2 -58.5 -10c4.66699 16 8.83398 33.167 12.501 51.5s7.83398 33.5 12.501 45.5z" />
    <glyph glyph-name="onesuperior" unicode="&#xb9;" horiz-adv-x="236" 
d="M163 421v329h-144v-47c9.33301 0 17.5 -0.333008 24.5 -1s12.667 -3.66699 17 -9s7.66602 -14 9.99902 -26s3.5 -29 3.5 -51v-195c0 -16 -0.333008 -29.5 -1 -40.5s-2.66699 -19.833 -6 -26.5s-8.66602 -11.5 -15.999 -14.5s-17.666 -4.5 -30.999 -4.5v-48h198v48h-16
c-18.667 0 -29.834 6.16699 -33.501 18.5s-5.5 34.833 -5.5 67.5z" />
    <glyph glyph-name="ordmasculine" unicode="&#xba;" horiz-adv-x="417" 
d="M215 730c-31.333 0 -57.832 -4.66504 -79.499 -13.998s-39.5 -21.833 -53.5 -37.5s-24.333 -33.667 -31 -54s-10.334 -41.5 -11.001 -63.5c0.666992 -22.667 4.5 -44.167 11.5 -64.5s17.333 -38.333 31 -54s31.334 -28 53.001 -37s48.167 -13.5 79.5 -13.5
c30 0 55.5 4.5 76.5 13.5s38.167 21.167 51.5 36.5s23.333 33.166 30 53.499s10 42.166 10 65.499c-0.666992 22 -4.16699 43.167 -10.5 63.5s-16.333 38.333 -30 54s-30.834 28.167 -51.501 37.5s-46 14 -76 14zM131.001 550.002c0 24.667 2 45 6 61s9.5 28.667 16.5 38
s15.167 16 24.5 20s19.666 6 30.999 6c26.667 0 47.334 -7.66699 62.001 -23s22 -42 22 -80c0 -24.667 -1.83301 -45 -5.5 -61s-9.16699 -28.667 -16.5 -38s-16.333 -15.833 -27 -19.5s-23 -5.5 -37 -5.5c-22 0 -40.167 7.5 -54.5 22.5s-21.5 41.5 -21.5 79.5z
M53.001 325.002v-75h314v75h-314z" />
    <glyph glyph-name="guillemotright" unicode="&#xbb;" horiz-adv-x="433" 
d="M374 202c14.667 16 23.835 27.832 27.502 35.499s5.5 13.834 5.5 18.501s-1.33301 9.66699 -4 15s-9.66699 14.666 -21 27.999l-44 51.5l-47.5 56.5l-39 45.5c-11 12.333 -17.167 18.5 -18.5 18.5c-3.33301 0 -7.33301 -0.833008 -12 -2.5
s-6.33398 -4.16699 -5.00098 -7.5c7.33301 -14 15.833 -32.667 25.5 -56s18.667 -46.166 27 -68.499l21.5 -57.5l9 -24c0 -13.333 -3.5 -29.333 -10.5 -48s-15 -37.5 -24 -56.5s-18.167 -37.167 -27.5 -54.5s-16.333 -31 -21 -41c-2 -4.66699 -0.5 -8 4.5 -10
s9.16699 -3 12.5 -3s17.166 14.667 41.499 44zM189.001 200.999c14.667 16 23.835 27.832 27.502 35.499s5.5 13.834 5.5 18.501s-1.33301 9.66699 -4 15s-9.66699 14.666 -21 27.999l-44 51.5l-47.5 56.5l-39 45.5c-11 12.333 -17.167 18.5 -18.5 18.5
c-3.33301 0 -7.33301 -0.833008 -12 -2.5s-6.33398 -4.16699 -5.00098 -7.5c7.33301 -14 15.833 -32.667 25.5 -56s18.667 -46.166 27 -68.499l21.5 -57.5l9 -24c0 -13.333 -3.5 -29.333 -10.5 -48s-15 -37.5 -24 -56.5s-18.167 -37.167 -27.5 -54.5s-16.333 -31 -21 -41
c-2 -4.66699 -0.5 -8 4.5 -10s9.16699 -3 12.5 -3s17.166 14.667 41.499 44z" />
    <glyph glyph-name="onequarter" unicode="&#xbc;" horiz-adv-x="727" 
d="M332 148l11.998 -30h192c0 -13.333 -0.666992 -24.5 -2 -33.5s-3.66602 -16.333 -6.99902 -22s-8.66602 -9.66699 -15.999 -12s-17 -3.5 -29 -3.5v-47h198v47h-16c-17.333 0 -28 5.16699 -32 15.5s-6 28.833 -6 55.5h66v110h-47v-20
c0 -11.333 -0.833008 -19.833 -2.5 -25.5s-7.16699 -9.16699 -16.5 -10.5v300h-85zM537.998 750l-18 -32l-47 -85l-66 -120.5l-76 -137.5l-76 -137.5l-66 -120.5l-46.5 -85c-11.667 -21.333 -17.167 -32 -16.5 -32h51c0.666992 0 7.5 10.667 20.5 32l51 85l71.5 120.5
l82 137.5l82 137.5l71.5 120.5l50.5 85l19 32h-87zM168.998 412v339h-144v-47c9.33301 0 17.5 -0.333008 24.5 -1s12.667 -3.66699 17 -9s7.66602 -14 9.99902 -26s3.5 -29 3.5 -51v-205c0 -16 -0.333008 -29.5 -1 -40.5s-2.66699 -19.833 -6 -26.5
s-8.66602 -11.5 -15.999 -14.5s-17.666 -4.5 -30.999 -4.5v-48h198v48h-16c-18.667 0 -29.834 6.16699 -33.501 18.5s-5.5 34.833 -5.5 67.5zM424.998 172l116 171v-171h-116z" />
    <glyph glyph-name="onehalf" unicode="&#xbd;" horiz-adv-x="846" 
d="M807 132l-49.9971 0.000976562l-1 -52c-1.33301 -7.33301 -5.33301 -12.333 -12 -15s-17.667 -4.33398 -33 -5.00098l-105 -1l-1 52c-0.666992 20 4.5 35.667 15.5 47s24 20.5 39 27.5s30 12.5 45 16.5s26.5 8.66699 34.5 14c4.66699 2 11.667 6.66699 21 14
s18.666 16.166 27.999 26.499s17.5 22.333 24.5 36s10.5 28.167 10.5 43.5v1c-2 39.333 -15.667 71.333 -41 96s-63.666 37 -114.999 37c-28 0 -56.5 -3.16699 -85.5 -9.5s-58.167 -14.166 -87.5 -23.499c2 -8.66699 3.83301 -18.667 5.5 -30l5 -35
c1.66699 -12 3.16699 -23.5 4.5 -34.5s2.66602 -20.167 3.99902 -27.5h47v62c0 8 2.83301 14.333 8.5 19s13 8.5 22 11.5s19.5 5.16699 31.5 6.5l37 4c20 -0.666992 37.5 -5.66699 52.5 -15s22.5 -25.666 22.5 -48.999c-0.666992 -10.667 -4.33398 -22.834 -11.001 -36.501
s-19.334 -24.167 -38.001 -31.5l-96 -34c-10.667 -4 -20.5 -10.167 -29.5 -18.5s-17 -18 -24 -29s-12.5 -22.667 -16.5 -35s-6 -24.5 -6 -36.5v-127h294v131zM538.003 750.001l-18 -32l-47 -85l-66 -120.5l-76 -137.5l-76 -137.5l-66 -120.5l-46.5 -85
c-11.667 -21.333 -17.167 -32 -16.5 -32h51c0.666992 0 7.5 10.667 20.5 32l51 85l71.5 120.5l82 137.5l82 137.5l71.5 120.5l50.5 85l19 32h-87zM169.003 412.001v339h-144v-47c9.33301 0 17.5 -0.333008 24.5 -1s12.667 -3.66699 17 -9s7.66602 -14 9.99902 -26
s3.5 -29 3.5 -51v-205c0 -16 -0.333008 -29.5 -1 -40.5s-2.66699 -19.833 -6 -26.5s-8.66602 -11.5 -15.999 -14.5s-17.666 -4.5 -30.999 -4.5v-48h198v48h-16c-18.667 0 -29.834 6.16699 -33.501 18.5s-5.5 34.833 -5.5 67.5z" />
    <glyph glyph-name="threequarters" unicode="&#xbe;" horiz-adv-x="739" 
d="M351 148l11.998 -30h192c0 -13.333 -0.666992 -24.5 -2 -33.5s-3.66602 -16.333 -6.99902 -22s-8.66602 -9.66699 -15.999 -12s-17 -3.5 -29 -3.5v-47h198v47h-16c-17.333 0 -28 5.16699 -32 15.5s-6 28.833 -6 55.5h66v110h-47v-20
c0 -11.333 -0.833008 -19.833 -2.5 -25.5s-7.16699 -9.16699 -16.5 -10.5v300h-85zM82.998 418c-18.667 -16.667 -31.8311 -26.499 -39.498 -29.499s-12.167 -4.5 -13.5 -4.5c0.666992 -12 1 -18.667 1 -20s0 -0.333008 0 3c5.33301 -10 14.666 -20.833 27.999 -32.5
s33 -21.834 59 -30.501c13.333 -3.33301 26.666 -5 39.999 -5c22.667 0 43.667 4 63 12s36 19 50 33s24.833 30.667 32.5 50s11.5 40.333 11.5 63c0 29.333 -8.5 54.333 -25.5 75s-40.5 33.667 -70.5 39l94 98v81h-290v-113h48v19
c0.666992 11.333 1.83398 19.666 3.50098 24.999s8.16699 8 19.5 8h126l-116 -173c48 0 80.833 -4.33301 98.5 -13s27.167 -20.334 28.5 -35.001c0.666992 -4 1 -8 1 -12v-10c0 -15.333 -2.16699 -28.166 -6.5 -38.499s-10 -18.833 -17 -25.5s-15 -11.667 -24 -15
s-17.833 -5.66602 -26.5 -6.99902c-18.667 0 -32.834 4.66699 -42.501 14s-20.5 24 -32.5 44zM557.001 750.001l-18 -32l-47 -85l-66 -120.5l-76 -137.5l-76 -137.5l-66 -120.5l-46.5 -85c-11.667 -21.333 -17.167 -32 -16.5 -32h51c0.666992 0 7.5 10.667 20.5 32l51 85
l71.5 120.5l82 137.5l82 137.5l71.5 120.5l50.5 85l19 32h-87zM444.001 172.001l116 171v-171h-116z" />
    <glyph glyph-name="questiondown" unicode="&#xbf;" horiz-adv-x="525" 
d="M153 184c-7.33301 -4 -18.3359 -11.6719 -33.0029 -23.0049s-29.334 -25.333 -44.001 -42s-27.5 -35.5 -38.5 -56.5s-16.167 -43.167 -15.5 -66.5c0.666992 -30.667 6.33398 -58.667 17.001 -84s26.167 -47 46.5 -65s45.333 -32 75 -42s64.5 -15 104.5 -15
c46 0.666992 91.167 5.66699 135.5 15s88.833 21 133.5 35c-2.66699 12.667 -5.16699 27 -7.5 43l-7 49c-2.33301 16.667 -4.5 33 -6.5 49s-3.66699 30.333 -5 43h-48l1 -85c0 -16.667 -4.83301 -30.167 -14.5 -40.5s-23 -18.666 -40 -24.999s-36.333 -11 -58 -14
s-44.5 -5.5 -68.5 -7.5c-20 0 -38.833 2.33301 -56.5 7s-33 11.834 -46 21.501s-23.167 22.334 -30.5 38.001s-10.666 34.834 -9.99902 57.501c0 9.33301 1.66699 20 5 32s8.5 24 15.5 36s16.333 23.333 28 34s26.5 19.334 44.5 26.001l45 24
c16.667 6 32.334 15.833 47.001 29.5s27.334 29.167 38.001 46.5s18.834 35.666 24.501 54.999s8.5 38 8.5 56v77h-121v-48c-2.66699 -26 -6.33398 -46.833 -11.001 -62.5s-11.5 -28.667 -20.5 -39s-20.667 -19.666 -35 -27.999zM327.997 433.995
c21.333 0 36.5 5.83301 45.5 17.5s13.833 25.167 14.5 40.5c-0.666992 15.333 -5.5 28.666 -14.5 39.999s-24.167 17 -45.5 17c-20 0 -34.333 -5.66699 -43 -17s-13.667 -24.666 -15 -39.999c1.33301 -15.333 6.33301 -28.833 15 -40.5s23 -17.5 43 -17.5z" />
    <glyph glyph-name="Agrave" unicode="&#xc0;" horiz-adv-x="797" 
d="M21 0h296v45c-22 0 -39.167 2.66699 -51.5 8s-21.333 14.166 -27 26.499s-9 28.666 -10 48.999s-1.5 45.833 -1.5 76.5v128h349v-128c0 -30.667 -0.5 -56.167 -1.5 -76.5s-4.33301 -36.666 -10 -48.999s-14.667 -21.166 -27 -26.499s-29.5 -8 -51.5 -8v-45h296v45h-10
c-20 0 -35.333 2.66699 -46 8s-18.667 14.166 -24 26.499s-8.5 28.666 -9.5 48.999s-1.5 45.833 -1.5 76.5v282c0 40.667 -6.33301 77.167 -19 109.5s-31.334 59.833 -56.001 82.5s-54.667 40.167 -90 52.5s-75.333 18.5 -120 18.5c-95.333 0 -168.166 -23.5 -218.499 -70.5
s-75.5 -111.167 -75.5 -192.5v-282c0 -30.667 -0.5 -56.167 -1.5 -76.5s-4.16699 -36.666 -9.5 -48.999s-13.333 -21.166 -24 -26.499s-26 -8 -46 -8l-10 -3v-42zM227 518c0 33.333 5.16504 61.166 15.498 83.499s23.833 40.166 40.5 53.499s35.334 22.833 56.001 28.5
s41.334 8.16699 62.001 7.5c20.667 0.666992 41.5 -1.66602 62.5 -6.99902s39.833 -14.666 56.5 -27.999s30.167 -31.333 40.5 -54s15.5 -50.667 15.5 -84v-139h-349v139zM310.998 997c-37.333 -58 -55 -87.667 -53 -89c4 -4 82.333 -31.667 235 -83l16 31z" />
    <glyph glyph-name="Aacute" unicode="&#xc1;" horiz-adv-x="797" 
d="M21 0h296v45c-22 0 -39.167 2.66699 -51.5 8s-21.333 14.166 -27 26.499s-9 28.666 -10 48.999s-1.5 45.833 -1.5 76.5v128h349v-128c0 -30.667 -0.5 -56.167 -1.5 -76.5s-4.33301 -36.666 -10 -48.999s-14.667 -21.166 -27 -26.499s-29.5 -8 -51.5 -8v-45h296v45h-10
c-20 0 -35.333 2.66699 -46 8s-18.667 14.166 -24 26.499s-8.5 28.666 -9.5 48.999s-1.5 45.833 -1.5 76.5v282c0 40.667 -6.33301 77.167 -19 109.5s-31.334 59.833 -56.001 82.5s-54.667 40.167 -90 52.5s-75.333 18.5 -120 18.5c-95.333 0 -168.166 -23.5 -218.499 -70.5
s-75.5 -111.167 -75.5 -192.5v-282c0 -30.667 -0.5 -56.167 -1.5 -76.5s-4.16699 -36.666 -9.5 -48.999s-13.333 -21.166 -24 -26.499s-26 -8 -46 -8l-10 -3v-42zM227 518c0 33.333 5.16504 61.166 15.498 83.499s23.833 40.166 40.5 53.499s35.334 22.833 56.001 28.5
s41.334 8.16699 62.001 7.5c20.667 0.666992 41.5 -1.66602 62.5 -6.99902s39.833 -14.666 56.5 -27.999s30.167 -31.333 40.5 -54s15.5 -50.667 15.5 -84v-139h-349v139zM507.998 997l-198 -141l16 -31c152.667 51.333 231 79 235 83c2 1.33301 -15.667 31 -53 89z" />
    <glyph glyph-name="Acircumflex" unicode="&#xc2;" horiz-adv-x="800" 
d="M21 0h296v45c-22 0 -39.167 2.66699 -51.5 8s-21.333 14.166 -27 26.499s-9 28.666 -10 48.999s-1.5 45.833 -1.5 76.5v128h349v-128c0 -30.667 -0.5 -56.167 -1.5 -76.5s-4.33301 -36.666 -10 -48.999s-14.667 -21.166 -27 -26.499s-29.5 -8 -51.5 -8v-45h296v45h-10
c-20 0 -35.333 2.66699 -46 8s-18.667 14.166 -24 26.499s-8.5 28.666 -9.5 48.999s-1.5 45.833 -1.5 76.5v282c0 40.667 -6.33301 77.167 -19 109.5s-31.334 59.833 -56.001 82.5s-54.667 40.167 -90 52.5s-75.333 18.5 -120 18.5c-95.333 0 -168.166 -23.5 -218.499 -70.5
s-75.5 -111.167 -75.5 -192.5v-282c0 -30.667 -0.5 -56.167 -1.5 -76.5s-4.16699 -36.666 -9.5 -48.999s-13.333 -21.166 -24 -26.499s-26 -8 -46 -8l-10 -3v-42zM227 518c0 33.333 5.16504 61.166 15.498 83.499s23.833 40.166 40.5 53.499s35.334 22.833 56.001 28.5
s41.334 8.16699 62.001 7.5c20.667 0.666992 41.5 -1.66602 62.5 -6.99902s39.833 -14.666 56.5 -27.999s30.167 -31.333 40.5 -54s15.5 -50.667 15.5 -84v-139h-349v139zM543.998 815l-147 183l-144 -181l7 -17l139 84l138 -86z" />
    <glyph glyph-name="Atilde" unicode="&#xc3;" horiz-adv-x="800" 
d="M21 0h296v45c-22 0 -39.167 2.66699 -51.5 8s-21.333 14.166 -27 26.499s-9 28.666 -10 48.999s-1.5 45.833 -1.5 76.5v128h349v-128c0 -30.667 -0.5 -56.167 -1.5 -76.5s-4.33301 -36.666 -10 -48.999s-14.667 -21.166 -27 -26.499s-29.5 -8 -51.5 -8v-45h296v45h-10
c-20 0 -35.333 2.66699 -46 8s-18.667 14.166 -24 26.499s-8.5 28.666 -9.5 48.999s-1.5 45.833 -1.5 76.5v282c0 40.667 -6.33301 77.167 -19 109.5s-31.334 59.833 -56.001 82.5s-54.667 40.167 -90 52.5s-75.333 18.5 -120 18.5c-95.333 0 -168.166 -23.5 -218.499 -70.5
s-75.5 -111.167 -75.5 -192.5v-282c0 -30.667 -0.5 -56.167 -1.5 -76.5s-4.16699 -36.666 -9.5 -48.999s-13.333 -21.166 -24 -26.499s-26 -8 -46 -8l-10 -3v-42zM227 518c0 33.333 5.16504 61.166 15.498 83.499s23.833 40.166 40.5 53.499s35.334 22.833 56.001 28.5
s41.334 8.16699 62.001 7.5c20.667 0.666992 41.5 -1.66602 62.5 -6.99902s39.833 -14.666 56.5 -27.999s30.167 -31.333 40.5 -54s15.5 -50.667 15.5 -84v-139h-349v139zM564.998 923l-14.999 17c-8.66699 -10 -19.334 -19.5 -32.001 -28.5s-25.334 -13.5 -38.001 -13.5
c-8 0 -17 2.16699 -27 6.5s-21.667 10.5 -35 18.5c-25.333 16.667 -47.666 25 -66.999 25c-54 0 -92.333 -36.667 -115 -110c2 -2 3.83301 -3.16699 5.5 -3.5s3.16699 -0.666016 4.5 -0.999023s2.83301 -1 4.5 -2s3.16699 -3.16699 4.5 -6.5
c10 17.333 21.167 29.5 33.5 36.5s23.833 10.5 34.5 10.5c9.33301 0 20 -2.33301 32 -7s25.667 -11.334 41 -20.001c30 -17.333 54.333 -26 73 -26c38.667 0 70.667 34.667 96 104z" />
    <glyph glyph-name="Adieresis" unicode="&#xc4;" horiz-adv-x="797" 
d="M21 0h296v45c-22 0 -39.167 2.66699 -51.5 8s-21.333 14.166 -27 26.499s-9 28.666 -10 48.999s-1.5 45.833 -1.5 76.5v128h349v-128c0 -30.667 -0.5 -56.167 -1.5 -76.5s-4.33301 -36.666 -10 -48.999s-14.667 -21.166 -27 -26.499s-29.5 -8 -51.5 -8v-45h296v45h-10
c-20 0 -35.333 2.66699 -46 8s-18.667 14.166 -24 26.499s-8.5 28.666 -9.5 48.999s-1.5 45.833 -1.5 76.5v282c0 40.667 -6.33301 77.167 -19 109.5s-31.334 59.833 -56.001 82.5s-54.667 40.167 -90 52.5s-75.333 18.5 -120 18.5c-95.333 0 -168.166 -23.5 -218.499 -70.5
s-75.5 -111.167 -75.5 -192.5v-282c0 -30.667 -0.5 -56.167 -1.5 -76.5s-4.16699 -36.666 -9.5 -48.999s-13.333 -21.166 -24 -26.499s-26 -8 -46 -8l-10 -3v-42zM227 518c0 33.333 5.16504 61.166 15.498 83.499s23.833 40.166 40.5 53.499s35.334 22.833 56.001 28.5
s41.334 8.16699 62.001 7.5c20.667 0.666992 41.5 -1.66602 62.5 -6.99902s39.833 -14.666 56.5 -27.999s30.167 -31.333 40.5 -54s15.5 -50.667 15.5 -84v-139h-349v139zM245.998 883c0 -18 6 -32.833 18 -44.5s26.667 -17.5 44 -17.5s32.166 5.83301 44.499 17.5
s18.5 26.5 18.5 44.5c0 16.667 -6.16699 31 -18.5 43s-27.166 18 -44.499 18s-32 -6 -44 -18s-18 -26.333 -18 -43zM433.998 883c0 -18 6 -32.833 18 -44.5s26.333 -17.5 43 -17.5c18 0 33.167 5.83301 45.5 17.5s18.5 26.5 18.5 44.5c0 16.667 -6.33301 31 -19 43
s-27.667 18 -45 18c-16 0 -30.167 -6 -42.5 -18s-18.5 -26.333 -18.5 -43z" />
    <glyph glyph-name="Aring" unicode="&#xc5;" horiz-adv-x="800" 
d="M21 0h296v45c-22 0 -39.167 2.66699 -51.5 8s-21.333 14.166 -27 26.499s-9 28.666 -10 48.999s-1.5 45.833 -1.5 76.5v128h349v-128c0 -30.667 -0.5 -56.167 -1.5 -76.5s-4.33301 -36.666 -10 -48.999s-14.667 -21.166 -27 -26.499s-29.5 -8 -51.5 -8v-45h296v45h-10
c-20 0 -35.333 2.66699 -46 8s-18.667 14.166 -24 26.499s-8.5 28.666 -9.5 48.999s-1.5 45.833 -1.5 76.5v282c0 40.667 -6.33301 77.167 -19 109.5s-31.334 59.833 -56.001 82.5s-54.667 40.167 -90 52.5s-75.333 18.5 -120 18.5c-95.333 0 -168.166 -23.5 -218.499 -70.5
s-75.5 -111.167 -75.5 -192.5v-282c0 -30.667 -0.5 -56.167 -1.5 -76.5s-4.16699 -36.666 -9.5 -48.999s-13.333 -21.166 -24 -26.499s-26 -8 -46 -8l-10 -3v-42zM227 518c0 33.333 5.16504 61.166 15.498 83.499s23.833 40.166 40.5 53.499s35.334 22.833 56.001 28.5
s41.334 8.16699 62.001 7.5c20.667 0.666992 41.5 -1.66602 62.5 -6.99902s39.833 -14.666 56.5 -27.999s30.167 -31.333 40.5 -54s15.5 -50.667 15.5 -84v-139h-349v139zM498.998 900c0 13.333 -2.5 26 -7.5 38s-12 22.5 -21 31.5s-19.5 16.167 -31.5 21.5s-25 8 -39 8
c-28 0 -51.5 -9.5 -70.5 -28.5s-28.5 -42.5 -28.5 -70.5c0 -13.333 2.5 -26 7.5 -38s12 -22.5 21 -31.5s19.5 -16.167 31.5 -21.5s25 -8 39 -8c13.333 0 26 2.5 38 7.5s22.5 12 31.5 21s16.167 19.5 21.5 31.5s8 25 8 39zM402.998 845c-16 0 -29.5 5.5 -40.5 16.5
s-16.5 24.167 -16.5 39.5s5.5 28.666 16.5 39.999s24.5 17 40.5 17c15.333 0 28.5 -5.66699 39.5 -17s16.5 -24.666 16.5 -39.999c0 -16 -5.5 -29.333 -16.5 -40s-24.167 -16 -39.5 -16z" />
    <glyph glyph-name="AE" unicode="&#xc6;" horiz-adv-x="1104" 
d="M1075 53l-211.001 0.00195312c-20.667 0 -41.334 2.66699 -62.001 8s-39.167 14.833 -55.5 28.5s-29.666 31.5 -39.999 53.5s-15.5 49.667 -15.5 83v149h273v46h-273v121c0 27.333 0.333008 50.666 1 69.999s3.16699 35.166 7.5 47.499s11 21.833 20 28.5
s21.5 11 37.5 13h319v48c-106 0 -195.667 0.166992 -269 0.5s-134.333 0.5 -183 0.5h-115h-63h-28h-12c-95.333 0 -168.166 -23.5 -218.499 -70.5s-75.5 -111.167 -75.5 -192.5v-282c0 -30.667 -0.5 -56.167 -1.5 -76.5s-4.16699 -36.666 -9.5 -48.999
s-13.333 -21.166 -24 -26.499s-26 -8 -46 -8l-10 -3v-42h296v45c-22 0 -39.167 2.66699 -51.5 8s-21.333 14.166 -27 26.499s-9 28.666 -10 48.999s-1.5 45.833 -1.5 76.5v128h349v-135c11.333 -62.667 42 -112 92 -148s115.333 -54.333 196 -55h211v58zM226.999 518.002
c0 33.333 5.16406 61.167 15.4971 83.5s23.833 40.166 40.5 53.499s35.334 22.833 56.001 28.5s41.334 8.16699 62.001 7.5c20 0.666992 40.167 -1.5 60.5 -6.5s38.833 -13.833 55.5 -26.5s30.334 -29.667 41.001 -51s16.667 -47.666 18 -78.999v-149h-349v139z" />
    <glyph glyph-name="Ccedilla" unicode="&#xc7;" horiz-adv-x="721" 
d="M678 137c-32 -21.333 -65.166 -37.6631 -99.499 -48.9961s-69.166 -17 -104.499 -17c-48.667 0 -92.834 8 -132.501 24s-73.5 38.5 -101.5 67.5s-49.5 63.5 -64.5 103.5s-22.5 84.333 -22.5 133c0 42 6.16699 81.167 18.5 117.5s30 67.666 53 93.999s51.167 47 84.5 62
s71 22.5 113 22.5c18 0 38.333 -1.5 61 -4.5s44 -8 64 -15s37 -16.167 51 -27.5s21 -25.333 21 -42l-1 -85h48c1.33301 12.667 3 27 5 43s4.16699 32.333 6.5 49l7 49c2.33301 16 4.83301 30.333 7.5 43c-46 16 -92.333 28.167 -139 36.5s-91 12.5 -133 12.5
c-53.333 0 -103.666 -8.5 -150.999 -25.5s-88.833 -41.667 -124.5 -74s-64 -71.833 -85 -118.5s-31.5 -99.667 -31.5 -159c0 -51.333 7.83301 -97.833 23.5 -139.5s37.5 -78 65.5 -109s61 -56.5 99 -76.5s79.333 -34.333 124 -43c-4.66699 -14.667 -9 -30.834 -13 -48.501
s-7.66699 -31.167 -11 -40.5c-1.33301 -3.33301 0.5 -5.5 5.5 -6.5s10.833 -1.33301 17.5 -1s13 1 19 2l9 1.5c11.333 0 23 -3.5 35 -10.5s19.667 -16.167 23 -27.5c3.33301 -12.667 2.16602 -21.667 -3.50098 -27s-13.834 -8.16602 -24.501 -8.49902s-23 1 -37 4
s-27.667 6.66699 -41 11l-36 12c-10.667 3.66699 -18 5.83398 -22 6.50098s-6.16699 -2.83301 -6.5 -10.5s-0.166016 -12.834 0.500977 -15.501c2 -9.33301 12.5 -17.666 31.5 -24.999s41 -12.666 66 -15.999s50.333 -3.5 76 -0.5s45.834 10.5 60.501 22.5
c7.33301 6 13.666 14.167 18.999 24.5s8 21.166 8 32.499s-3.5 22.166 -10.5 32.499s-19.167 18.166 -36.5 23.499c-17.333 6.66699 -33.5 10.667 -48.5 12s-34.5 -2 -58.5 -10c2.66699 9.33301 5 19 7 29s4.33301 19.667 7 29c10.667 -1.33301 21.167 -2.33301 31.5 -3
s21.166 -1 32.499 -1c16 0 34.167 1.5 54.5 4.5s41 7.16699 62 12.5s41.667 11.666 62 18.999s38.5 15.666 54.5 24.999z" />
    <glyph glyph-name="Egrave" unicode="&#xc8;" horiz-adv-x="636" 
d="M604 55l-210.999 0.00195312c-20.667 0 -41.334 2.66699 -62.001 8s-39.167 14.833 -55.5 28.5s-29.666 31.5 -39.999 53.5s-15.5 49.667 -15.5 83v151h273v46h-273v111c0 27.333 0.333008 50.666 1 69.999s3.16699 35.166 7.5 47.499s11 21.833 20 28.5s21.5 11 37.5 13
h319v55h-591v-42l10 -3c20 0 35.333 -2.66699 46 -8s18.667 -14.166 24 -26.499s8.5 -28.666 9.5 -48.999s1.5 -45.833 1.5 -76.5v-285c0 -80.667 24.667 -144.334 74 -191.001s120.666 -70.334 213.999 -71.001h211v57zM270.001 999.002
c-37.333 -57.333 -54.667 -87 -52 -89c1.33301 -3.33301 79.333 -31 234 -83l15 31z" />
    <glyph glyph-name="Eacute" unicode="&#xc9;" horiz-adv-x="636" 
d="M604 55l-210.999 0.00195312c-20.667 0 -41.334 2.66699 -62.001 8s-39.167 14.833 -55.5 28.5s-29.666 31.5 -39.999 53.5s-15.5 49.667 -15.5 83v151h273v46h-273v111c0 27.333 0.333008 50.666 1 69.999s3.16699 35.166 7.5 47.499s11 21.833 20 28.5s21.5 11 37.5 13
h319v55h-591v-42l10 -3c20 0 35.333 -2.66699 46 -8s18.667 -14.166 24 -26.499s8.5 -28.666 9.5 -48.999s1.5 -45.833 1.5 -76.5v-285c0 -80.667 24.667 -144.334 74 -191.001s120.666 -70.334 213.999 -71.001h211v57zM472.001 997.002l-198 -141l16 -31
c152.667 51.333 231 79 235 83c2 1.33301 -15.667 31 -53 89z" />
    <glyph glyph-name="Ecircumflex" unicode="&#xca;" horiz-adv-x="636" 
d="M604 55l-210.999 0.00195312c-20.667 0 -41.334 2.66699 -62.001 8s-39.167 14.833 -55.5 28.5s-29.666 31.5 -39.999 53.5s-15.5 49.667 -15.5 83v151h273v46h-273v111c0 27.333 0.333008 50.666 1 69.999s3.16699 35.166 7.5 47.499s11 21.833 20 28.5s21.5 11 37.5 13
h319v55h-591v-42l10 -3c20 0 35.333 -2.66699 46 -8s18.667 -14.166 24 -26.499s8.5 -28.666 9.5 -48.999s1.5 -45.833 1.5 -76.5v-285c0 -80.667 24.667 -144.334 74 -191.001s120.666 -70.334 213.999 -71.001h211v57zM507.001 815.002l-147 183l-144 -181l7 -17l139 84
l138 -86z" />
    <glyph glyph-name="Edieresis" unicode="&#xcb;" horiz-adv-x="636" 
d="M604 55l-210.999 0.00195312c-20.667 0 -41.334 2.66699 -62.001 8s-39.167 14.833 -55.5 28.5s-29.666 31.5 -39.999 53.5s-15.5 49.667 -15.5 83v151h273v46h-273v111c0 27.333 0.333008 50.666 1 69.999s3.16699 35.166 7.5 47.499s11 21.833 20 28.5s21.5 11 37.5 13
h319v55h-591v-42l10 -3c20 0 35.333 -2.66699 46 -8s18.667 -14.166 24 -26.499s8.5 -28.666 9.5 -48.999s1.5 -45.833 1.5 -76.5v-285c0 -80.667 24.667 -144.334 74 -191.001s120.666 -70.334 213.999 -71.001h211v57zM199.001 883.002c0 -18 6 -32.833 18 -44.5
s26.667 -17.5 44 -17.5s32.166 5.83301 44.499 17.5s18.5 26.5 18.5 44.5c0 16.667 -6.16699 31 -18.5 43s-27.166 18 -44.499 18s-32 -6 -44 -18s-18 -26.333 -18 -43zM387.001 883.002c0 -18 6 -32.833 18 -44.5s26.333 -17.5 43 -17.5c18 0 33.167 5.83301 45.5 17.5
s18.5 26.5 18.5 44.5c0 16.667 -6.33301 31 -19 43s-27.667 18 -45 18c-16 0 -30.167 -6 -42.5 -18s-18.5 -26.333 -18.5 -43z" />
    <glyph glyph-name="Igrave" unicode="&#xcc;" 
d="M235 545c0 30.667 0.5 56.167 1.5 76.5s4.33301 36.666 10 48.999s14.667 21.166 27 26.499s29.5 8 51.5 8v45h-296v-45h10c20 0 35.333 -2.66699 46 -8s18.667 -14.166 24 -26.499s8.5 -28.666 9.5 -48.999s1.5 -45.833 1.5 -76.5v-340
c0 -30.667 -0.5 -56.167 -1.5 -76.5s-4.33301 -36.666 -10 -48.999s-14.667 -21.166 -27 -26.499s-29.5 -8 -51.5 -8v-45h296v45h-10c-20 0 -35.333 2.66699 -46 8s-18.667 14.166 -24 26.499s-8.5 28.666 -9.5 48.999s-1.5 45.833 -1.5 76.5v340zM77 999
c-37.333 -57.333 -54.667 -87 -52 -89c1.33301 -3.33301 79.333 -31 234 -83l15 31z" />
    <glyph glyph-name="Iacute" unicode="&#xcd;" 
d="M235 545c0 30.667 0.5 56.167 1.5 76.5s4.33301 36.666 10 48.999s14.667 21.166 27 26.499s29.5 8 51.5 8v45h-296v-45h10c20 0 35.333 -2.66699 46 -8s18.667 -14.166 24 -26.499s8.5 -28.666 9.5 -48.999s1.5 -45.833 1.5 -76.5v-340
c0 -30.667 -0.5 -56.167 -1.5 -76.5s-4.33301 -36.666 -10 -48.999s-14.667 -21.166 -27 -26.499s-29.5 -8 -51.5 -8v-45h296v45h-10c-20 0 -35.333 2.66699 -46 8s-18.667 14.166 -24 26.499s-8.5 28.666 -9.5 48.999s-1.5 45.833 -1.5 76.5v340zM276 997l-198 -141l16 -31
c152.667 51.333 231 79 235 83c2 1.33301 -15.667 31 -53 89z" />
    <glyph glyph-name="Icircumflex" unicode="&#xce;" 
d="M235 545c0 30.667 0.5 56.167 1.5 76.5s4.33301 36.666 10 48.999s14.667 21.166 27 26.499s29.5 8 51.5 8v45h-296v-45h10c20 0 35.333 -2.66699 46 -8s18.667 -14.166 24 -26.499s8.5 -28.666 9.5 -48.999s1.5 -45.833 1.5 -76.5v-340
c0 -30.667 -0.5 -56.167 -1.5 -76.5s-4.33301 -36.666 -10 -48.999s-14.667 -21.166 -27 -26.499s-29.5 -8 -51.5 -8v-45h296v45h-10c-20 0 -35.333 2.66699 -46 8s-18.667 14.166 -24 26.499s-8.5 28.666 -9.5 48.999s-1.5 45.833 -1.5 76.5v340zM323 815l-147 183
l-144 -181l7 -17l139 84l138 -86z" />
    <glyph glyph-name="Idieresis" unicode="&#xcf;" 
d="M235 545c0 30.667 0.5 56.167 1.5 76.5s4.33301 36.666 10 48.999s14.667 21.166 27 26.499s29.5 8 51.5 8v45h-296v-45h10c20 0 35.333 -2.66699 46 -8s18.667 -14.166 24 -26.499s8.5 -28.666 9.5 -48.999s1.5 -45.833 1.5 -76.5v-340
c0 -30.667 -0.5 -56.167 -1.5 -76.5s-4.33301 -36.666 -10 -48.999s-14.667 -21.166 -27 -26.499s-29.5 -8 -51.5 -8v-45h296v45h-10c-20 0 -35.333 2.66699 -46 8s-18.667 14.166 -24 26.499s-8.5 28.666 -9.5 48.999s-1.5 45.833 -1.5 76.5v340zM21 883
c0 -18 6 -32.833 18 -44.5s26.667 -17.5 44 -17.5s32.166 5.83301 44.499 17.5s18.5 26.5 18.5 44.5c0 16.667 -6.16699 31 -18.5 43s-27.166 18 -44.499 18s-32 -6 -44 -18s-18 -26.333 -18 -43zM209 883c0 -18 6 -32.833 18 -44.5s26.333 -17.5 43 -17.5
c18 0 33.167 5.83301 45.5 17.5s18.5 26.5 18.5 44.5c0 16.667 -6.33301 31 -19 43s-27.667 18 -45 18c-16 0 -30.167 -6 -42.5 -18s-18.5 -26.333 -18.5 -43z" />
    <glyph glyph-name="Eth" unicode="&#xd0;" horiz-adv-x="709" 
d="M33 412l-0.00195312 -75.0039h75v-132c0 -30.667 -0.5 -56.167 -1.5 -76.5s-4.33301 -36.666 -10 -48.999s-14.667 -21.166 -27 -26.499s-29.5 -8 -51.5 -8v-45c78.667 -0.666992 140.334 -1 185.001 -1h102c23.333 0 39.333 0.166992 48 0.5s16 0.5 22 0.5
c42 -1.33301 81.333 7.83398 118 27.501s68.834 46.667 96.501 81s49.5 75.166 65.5 122.499s24 98 24 152c0 56.667 -8.16699 107.667 -24.5 153s-40 83.833 -71 115.5s-69.167 56 -114.5 73s-97.333 25.5 -156 25.5h-296v-45h10c20 0 35.333 -2.66699 46 -8
s18.667 -14.166 24 -26.499s8.5 -28.666 9.5 -48.999s1.5 -45.833 1.5 -76.5v-133h-75zM281.998 681.996c92 0 161.497 -26.6699 208.497 -80.0029s70.5 -130.666 70.5 -231.999c0 -23.333 -0.666992 -48.166 -2 -74.499s-5.33301 -52.333 -12 -78
s-16.667 -49.834 -30 -72.501s-31.666 -41.5 -54.999 -56.5s-52.666 -25.167 -87.999 -30.5s-78.666 -3.66602 -129.999 5.00098c-10.667 10.667 -16.834 27.334 -18.501 50.001s-2.5 53.334 -2.5 92.001v132h60v75h-60v175c0 37.333 3.66699 64.666 11 81.999
c4 5.33301 9.83301 8.83301 17.5 10.5s17.834 2.5 30.501 2.5z" />
    <glyph glyph-name="Ntilde" unicode="&#xd1;" horiz-adv-x="800" 
d="M227 518c0 33.333 5.16504 61.166 15.498 83.499s23.833 40.166 40.5 53.499s35.334 22.833 56.001 28.5s41.334 8.16699 62.001 7.5c20.667 0.666992 41.5 -1.66602 62.5 -6.99902s39.833 -14.666 56.5 -27.999s30.167 -31.333 40.5 -54s15.5 -50.667 15.5 -84v-313
c0 -30.667 -0.5 -56.167 -1.5 -76.5s-4.33301 -36.666 -10 -48.999s-14.667 -21.166 -27 -26.499s-29.5 -8 -51.5 -8v-45h296v45h-10c-20 0 -35.333 2.66699 -46 8s-18.667 14.166 -24 26.499s-8.5 28.666 -9.5 48.999s-1.5 45.833 -1.5 76.5v282
c0 40.667 -6.33301 77.167 -19 109.5s-31.334 59.833 -56.001 82.5s-54.667 40.167 -90 52.5s-75.333 18.5 -120 18.5c-95.333 0 -168.166 -23.5 -218.499 -70.5s-75.5 -111.167 -75.5 -192.5v-282c0 -30.667 -0.5 -56.167 -1.5 -76.5s-4.16699 -36.666 -9.5 -48.999
s-13.333 -21.166 -24 -26.499s-26 -8 -46 -8l-10 -3v-42h296v45c-22 0 -39.167 2.66699 -51.5 8s-21.333 14.166 -27 26.499s-9 28.666 -10 48.999s-1.5 45.833 -1.5 76.5v313zM564.998 923l-14.999 17c-8.66699 -10 -19.334 -19.5 -32.001 -28.5
s-25.334 -13.5 -38.001 -13.5c-8 0 -17 2.16699 -27 6.5s-21.667 10.5 -35 18.5c-25.333 16.667 -47.666 25 -66.999 25c-54 0 -92.333 -36.667 -115 -110c2 -2 3.83301 -3.16699 5.5 -3.5s3.16699 -0.666016 4.5 -0.999023s2.83301 -1 4.5 -2s3.16699 -3.16699 4.5 -6.5
c10 17.333 21.167 29.5 33.5 36.5s23.833 10.5 34.5 10.5c9.33301 0 20 -2.33301 32 -7s25.667 -11.334 41 -20.001c30 -17.333 54.333 -26 73 -26c38.667 0 70.667 34.667 96 104z" />
    <glyph glyph-name="Ograve" unicode="&#xd2;" horiz-adv-x="657" 
d="M620 488c0 40.667 -6.33301 77.167 -19 109.5s-31.334 59.833 -56.001 82.5s-54.667 40.167 -90 52.5s-75.333 18.5 -120 18.5c-95.333 0 -168.166 -23.5 -218.499 -70.5s-75.5 -111.167 -75.5 -192.5v-225c0 -81.333 25.167 -145.5 75.5 -192.5
s123.166 -70.5 218.499 -70.5c44.667 0 84.667 6.16699 120 18.5s65.333 29.833 90 52.5s43.334 50.167 56.001 82.5s19 68.833 19 109.5v225zM156 232v287c0 33.333 5.16699 61.166 15.5 83.499s23.833 40.166 40.5 53.499s35.334 22.833 56.001 28.5
s41.334 8.16699 62.001 7.5c20.667 0.666992 41.5 -1.66602 62.5 -6.99902s39.833 -14.666 56.5 -27.999s30.167 -31.333 40.5 -54s15.5 -50.667 15.5 -84v-287c0 -33.333 -5.16699 -61.333 -15.5 -84s-23.833 -40.667 -40.5 -54s-35.5 -22.666 -56.5 -27.999
s-41.833 -7.66602 -62.5 -6.99902c-20.667 -0.666992 -41.334 1.83301 -62.001 7.5s-39.334 15.167 -56.001 28.5s-30.167 31.166 -40.5 53.499s-15.5 50.166 -15.5 83.499zM249 999c-37.333 -57.333 -54.667 -87 -52 -89c1.33301 -3.33301 79.333 -31 234 -83l15 31z" />
    <glyph glyph-name="Oacute" unicode="&#xd3;" horiz-adv-x="657" 
d="M620 488c0 40.667 -6.33301 77.167 -19 109.5s-31.334 59.833 -56.001 82.5s-54.667 40.167 -90 52.5s-75.333 18.5 -120 18.5c-95.333 0 -168.166 -23.5 -218.499 -70.5s-75.5 -111.167 -75.5 -192.5v-225c0 -81.333 25.167 -145.5 75.5 -192.5
s123.166 -70.5 218.499 -70.5c44.667 0 84.667 6.16699 120 18.5s65.333 29.833 90 52.5s43.334 50.167 56.001 82.5s19 68.833 19 109.5v225zM156 232v287c0 33.333 5.16699 61.166 15.5 83.499s23.833 40.166 40.5 53.499s35.334 22.833 56.001 28.5
s41.334 8.16699 62.001 7.5c20.667 0.666992 41.5 -1.66602 62.5 -6.99902s39.833 -14.666 56.5 -27.999s30.167 -31.333 40.5 -54s15.5 -50.667 15.5 -84v-287c0 -33.333 -5.16699 -61.333 -15.5 -84s-23.833 -40.667 -40.5 -54s-35.5 -22.666 -56.5 -27.999
s-41.833 -7.66602 -62.5 -6.99902c-20.667 -0.666992 -41.334 1.83301 -62.001 7.5s-39.334 15.167 -56.001 28.5s-30.167 31.166 -40.5 53.499s-15.5 50.166 -15.5 83.499zM422 997l-198 -141l16 -31c152.667 51.333 231 79 235 83c2 1.33301 -15.667 31 -53 89z" />
    <glyph glyph-name="Ocircumflex" unicode="&#xd4;" horiz-adv-x="657" 
d="M620 488c0 40.667 -6.33301 77.167 -19 109.5s-31.334 59.833 -56.001 82.5s-54.667 40.167 -90 52.5s-75.333 18.5 -120 18.5c-95.333 0 -168.166 -23.5 -218.499 -70.5s-75.5 -111.167 -75.5 -192.5v-225c0 -81.333 25.167 -145.5 75.5 -192.5
s123.166 -70.5 218.499 -70.5c44.667 0 84.667 6.16699 120 18.5s65.333 29.833 90 52.5s43.334 50.167 56.001 82.5s19 68.833 19 109.5v225zM156 232v287c0 33.333 5.16699 61.166 15.5 83.499s23.833 40.166 40.5 53.499s35.334 22.833 56.001 28.5
s41.334 8.16699 62.001 7.5c20.667 0.666992 41.5 -1.66602 62.5 -6.99902s39.833 -14.666 56.5 -27.999s30.167 -31.333 40.5 -54s15.5 -50.667 15.5 -84v-287c0 -33.333 -5.16699 -61.333 -15.5 -84s-23.833 -40.667 -40.5 -54s-35.5 -22.666 -56.5 -27.999
s-41.833 -7.66602 -62.5 -6.99902c-20.667 -0.666992 -41.334 1.83301 -62.001 7.5s-39.334 15.167 -56.001 28.5s-30.167 31.166 -40.5 53.499s-15.5 50.166 -15.5 83.499zM480 815l-147 183l-144 -181l7 -17l139 84l138 -86z" />
    <glyph glyph-name="Otilde" unicode="&#xd5;" horiz-adv-x="657" 
d="M620 488c0 40.667 -6.33301 77.167 -19 109.5s-31.334 59.833 -56.001 82.5s-54.667 40.167 -90 52.5s-75.333 18.5 -120 18.5c-95.333 0 -168.166 -23.5 -218.499 -70.5s-75.5 -111.167 -75.5 -192.5v-225c0 -81.333 25.167 -145.5 75.5 -192.5
s123.166 -70.5 218.499 -70.5c44.667 0 84.667 6.16699 120 18.5s65.333 29.833 90 52.5s43.334 50.167 56.001 82.5s19 68.833 19 109.5v225zM156 232v287c0 33.333 5.16699 61.166 15.5 83.499s23.833 40.166 40.5 53.499s35.334 22.833 56.001 28.5
s41.334 8.16699 62.001 7.5c20.667 0.666992 41.5 -1.66602 62.5 -6.99902s39.833 -14.666 56.5 -27.999s30.167 -31.333 40.5 -54s15.5 -50.667 15.5 -84v-287c0 -33.333 -5.16699 -61.333 -15.5 -84s-23.833 -40.667 -40.5 -54s-35.5 -22.666 -56.5 -27.999
s-41.833 -7.66602 -62.5 -6.99902c-20.667 -0.666992 -41.334 1.83301 -62.001 7.5s-39.334 15.167 -56.001 28.5s-30.167 31.166 -40.5 53.499s-15.5 50.166 -15.5 83.499zM496 923l-14.999 17c-8.66699 -10 -19.334 -19.5 -32.001 -28.5s-25.334 -13.5 -38.001 -13.5
c-8 0 -17 2.16699 -27 6.5s-21.667 10.5 -35 18.5c-25.333 16.667 -47.666 25 -66.999 25c-54 0 -92.333 -36.667 -115 -110c2 -2 3.83301 -3.16699 5.5 -3.5s3.16699 -0.666016 4.5 -0.999023s2.83301 -1 4.5 -2s3.16699 -3.16699 4.5 -6.5
c10 17.333 21.167 29.5 33.5 36.5s23.833 10.5 34.5 10.5c9.33301 0 20 -2.33301 32 -7s25.667 -11.334 41 -20.001c30 -17.333 54.333 -26 73 -26c38.667 0 70.667 34.667 96 104z" />
    <glyph glyph-name="Odieresis" unicode="&#xd6;" horiz-adv-x="657" 
d="M620 488c0 40.667 -6.33301 77.167 -19 109.5s-31.334 59.833 -56.001 82.5s-54.667 40.167 -90 52.5s-75.333 18.5 -120 18.5c-95.333 0 -168.166 -23.5 -218.499 -70.5s-75.5 -111.167 -75.5 -192.5v-225c0 -81.333 25.167 -145.5 75.5 -192.5
s123.166 -70.5 218.499 -70.5c44.667 0 84.667 6.16699 120 18.5s65.333 29.833 90 52.5s43.334 50.167 56.001 82.5s19 68.833 19 109.5v225zM156 232v287c0 33.333 5.16699 61.166 15.5 83.499s23.833 40.166 40.5 53.499s35.334 22.833 56.001 28.5
s41.334 8.16699 62.001 7.5c20.667 0.666992 41.5 -1.66602 62.5 -6.99902s39.833 -14.666 56.5 -27.999s30.167 -31.333 40.5 -54s15.5 -50.667 15.5 -84v-287c0 -33.333 -5.16699 -61.333 -15.5 -84s-23.833 -40.667 -40.5 -54s-35.5 -22.666 -56.5 -27.999
s-41.833 -7.66602 -62.5 -6.99902c-20.667 -0.666992 -41.334 1.83301 -62.001 7.5s-39.334 15.167 -56.001 28.5s-30.167 31.166 -40.5 53.499s-15.5 50.166 -15.5 83.499zM176 883c0 -18 6 -32.833 18 -44.5s26.667 -17.5 44 -17.5s32.166 5.83301 44.499 17.5
s18.5 26.5 18.5 44.5c0 16.667 -6.16699 31 -18.5 43s-27.166 18 -44.499 18s-32 -6 -44 -18s-18 -26.333 -18 -43zM364 883c0 -18 6 -32.833 18 -44.5s26.333 -17.5 43 -17.5c18 0 33.167 5.83301 45.5 17.5s18.5 26.5 18.5 44.5c0 16.667 -6.33301 31 -19 43
s-27.667 18 -45 18c-16 0 -30.167 -6 -42.5 -18s-18.5 -26.333 -18.5 -43z" />
    <glyph glyph-name="multiply" unicode="&#xd7;" horiz-adv-x="398" 
d="M200 425l-139 139l-46 -46l139 -139l-138 -138l45 -45l138 138l139 -139l46 46l-139 139l138 138l-45 45z" />
    <glyph glyph-name="Oslash" unicode="&#xd8;" horiz-adv-x="657" 
d="M552 806l-14.501 -26.001l-37.5 -68c-22 12.667 -46.833 22.334 -74.5 29.001s-57.834 10 -90.501 10c-95.333 0 -168.166 -23.5 -218.499 -70.5s-75.5 -111.167 -75.5 -192.5v-225c0 -93.333 32 -163 96 -209l-44.5 -82c-11 -20.667 -16.167 -31 -15.5 -31h51l13.5 24
l36.5 65c42.667 -20 95 -30 157 -30c44.667 0 84.667 6.16699 120 18.5s65.333 29.833 90 52.5s43.334 50.167 56.001 82.5s19 68.833 19 109.5v225c0 42 -7 79.667 -21 113s-34 61.333 -60 84l48 88l18 33h-53zM155.999 231.999l-0.00292969 287.003
c0 33.333 5.16699 61.166 15.5 83.499s23.833 40.166 40.5 53.499s35.334 22.833 56.001 28.5s41.334 8.16699 62.001 7.5c23.333 0.666992 46.833 -2.66602 70.5 -9.99902s44.167 -20 61.5 -38l-65.5 -120l-73 -132.5l-74.5 -134.5l-69 -126
c-7.33301 13.333 -13.166 28.166 -17.499 44.499s-6.5 35.166 -6.5 56.499zM504.996 519.002v-287.002c0 -33.333 -5.16699 -61.333 -15.5 -84s-23.833 -40.667 -40.5 -54s-35.5 -22.666 -56.5 -27.999s-41.833 -7.66602 -62.5 -6.99902
c-20.667 -0.666992 -41.167 1.5 -61.5 6.5s-38.833 14.167 -55.5 27.5l64 116.5l72 130.5l73.5 133l68.5 125c9.33301 -22.667 14 -49 14 -79z" />
    <glyph glyph-name="Ugrave" unicode="&#xd9;" horiz-adv-x="797" 
d="M575 232c0 -33.333 -5.16504 -61.166 -15.498 -83.499s-23.833 -40.166 -40.5 -53.499s-35.334 -22.833 -56.001 -28.5s-41.334 -8.16699 -62.001 -7.5c-20.667 -0.666992 -41.5 1.66602 -62.5 6.99902s-39.833 14.666 -56.5 27.999s-30.167 31.333 -40.5 54
s-15.5 50.667 -15.5 84v313c0 30.667 0.5 56.167 1.5 76.5s4.33301 36.666 10 48.999s14.667 21.166 27 26.499s29.5 8 51.5 8v45h-296v-45h10c20 0 35.333 -2.66699 46 -8s18.667 -14.166 24 -26.499s8.5 -28.666 9.5 -48.999s1.5 -45.833 1.5 -76.5v-282
c0 -40.667 6.33301 -77.167 19 -109.5s31.334 -59.833 56.001 -82.5s54.5 -40.167 89.5 -52.5s75.167 -18.5 120.5 -18.5c95.333 0 168.166 23.5 218.499 70.5s75.5 111.167 75.5 192.5v282c0 30.667 0.5 56.167 1.5 76.5s4.16699 36.666 9.5 48.999
s13.333 21.166 24 26.499s26 8 46 8l10 3v42h-296v-45c22 0 39.167 -2.66699 51.5 -8s21.333 -14.166 27 -26.499s9 -28.666 10 -48.999s1.5 -45.833 1.5 -76.5v-313zM311.002 997c-37.333 -58 -55 -87.667 -53 -89c4 -4 82.333 -31.667 235 -83l16 31z" />
    <glyph glyph-name="Uacute" unicode="&#xda;" horiz-adv-x="797" 
d="M227 232l0.00195312 313c0 30.667 0.5 56.167 1.5 76.5s4.33301 36.666 10 48.999s14.667 21.166 27 26.499s29.5 8 51.5 8v45h-296v-42l10 -3c20 0 35.333 -2.66699 46 -8s18.667 -14.166 24 -26.499s8.5 -28.666 9.5 -48.999s1.5 -45.833 1.5 -76.5v-282
c0 -81.333 25.167 -145.5 75.5 -192.5s123.166 -70.5 218.499 -70.5c44.667 0 84.667 6.16699 120 18.5s65.333 29.833 90 52.5s43.334 50.167 56.001 82.5s19 68.833 19 109.5v282c0 30.667 0.5 56.167 1.5 76.5s4.16699 36.666 9.5 48.999s13.333 21.166 24 26.499
s26 8 46 8h10v45h-296v-45c22 0 39.167 -2.66699 51.5 -8s21.333 -14.166 27 -26.499s9 -28.666 10 -48.999s1.5 -45.833 1.5 -76.5v-313c0 -33.333 -5.16699 -61.333 -15.5 -84s-23.833 -40.667 -40.5 -54s-35.5 -22.666 -56.5 -27.999s-41.833 -7.66602 -62.5 -6.99902
c-20.667 -0.666992 -41.334 1.83301 -62.001 7.5s-39.334 15.167 -56.001 28.5s-30.167 31.166 -40.5 53.499s-15.5 50.166 -15.5 83.499zM535.002 997l-198 -141l16 -31c152.667 51.333 231 79 235 83c2 1.33301 -15.667 31 -53 89z" />
    <glyph glyph-name="Ucircumflex" unicode="&#xdb;" horiz-adv-x="800" 
d="M227 232l0.00195312 313c0 30.667 0.5 56.167 1.5 76.5s4.33301 36.666 10 48.999s14.667 21.166 27 26.499s29.5 8 51.5 8v45h-296v-42l10 -3c20 0 35.333 -2.66699 46 -8s18.667 -14.166 24 -26.499s8.5 -28.666 9.5 -48.999s1.5 -45.833 1.5 -76.5v-282
c0 -81.333 25.167 -145.5 75.5 -192.5s123.166 -70.5 218.499 -70.5c44.667 0 84.667 6.16699 120 18.5s65.333 29.833 90 52.5s43.334 50.167 56.001 82.5s19 68.833 19 109.5v282c0 30.667 0.5 56.167 1.5 76.5s4.16699 36.666 9.5 48.999s13.333 21.166 24 26.499
s26 8 46 8h10v45h-296v-45c22 0 39.167 -2.66699 51.5 -8s21.333 -14.166 27 -26.499s9 -28.666 10 -48.999s1.5 -45.833 1.5 -76.5v-313c0 -33.333 -5.16699 -61.333 -15.5 -84s-23.833 -40.667 -40.5 -54s-35.5 -22.666 -56.5 -27.999s-41.833 -7.66602 -62.5 -6.99902
c-20.667 -0.666992 -41.334 1.83301 -62.001 7.5s-39.334 15.167 -56.001 28.5s-30.167 31.166 -40.5 53.499s-15.5 50.166 -15.5 83.499zM544.002 815l-147 183l-144 -181l7 -17l139 84l138 -86z" />
    <glyph glyph-name="Udieresis" unicode="&#xdc;" horiz-adv-x="797" 
d="M227 232l0.00195312 313c0 30.667 0.5 56.167 1.5 76.5s4.33301 36.666 10 48.999s14.667 21.166 27 26.499s29.5 8 51.5 8v45h-296v-42l10 -3c20 0 35.333 -2.66699 46 -8s18.667 -14.166 24 -26.499s8.5 -28.666 9.5 -48.999s1.5 -45.833 1.5 -76.5v-282
c0 -81.333 25.167 -145.5 75.5 -192.5s123.166 -70.5 218.499 -70.5c44.667 0 84.667 6.16699 120 18.5s65.333 29.833 90 52.5s43.334 50.167 56.001 82.5s19 68.833 19 109.5v282c0 30.667 0.5 56.167 1.5 76.5s4.16699 36.666 9.5 48.999s13.333 21.166 24 26.499
s26 8 46 8h10v45h-296v-45c22 0 39.167 -2.66699 51.5 -8s21.333 -14.166 27 -26.499s9 -28.666 10 -48.999s1.5 -45.833 1.5 -76.5v-313c0 -33.333 -5.16699 -61.333 -15.5 -84s-23.833 -40.667 -40.5 -54s-35.5 -22.666 -56.5 -27.999s-41.833 -7.66602 -62.5 -6.99902
c-20.667 -0.666992 -41.334 1.83301 -62.001 7.5s-39.334 15.167 -56.001 28.5s-30.167 31.166 -40.5 53.499s-15.5 50.166 -15.5 83.499zM246.002 883c0 -18 6 -32.833 18 -44.5s26.667 -17.5 44 -17.5s32.166 5.83301 44.499 17.5s18.5 26.5 18.5 44.5
c0 16.667 -6.16699 31 -18.5 43s-27.166 18 -44.499 18s-32 -6 -44 -18s-18 -26.333 -18 -43zM434.002 883c0 -18 6 -32.833 18 -44.5s26.333 -17.5 43 -17.5c18 0 33.167 5.83301 45.5 17.5s18.5 26.5 18.5 44.5c0 16.667 -6.33301 31 -19 43s-27.667 18 -45 18
c-16 0 -30.167 -6 -42.5 -18s-18.5 -26.333 -18.5 -43z" />
    <glyph glyph-name="Yacute" unicode="&#xdd;" horiz-adv-x="797" 
d="M225 489l0.00195312 56.9971c0 30.667 0.5 56.167 1.5 76.5s4.33301 36.666 10 48.999s14.667 21.166 27 26.499s29.5 8 51.5 8v45h-296v-45h10c20 0 35.333 -2.66699 46 -8s18.667 -14.166 24 -26.499s8.5 -28.666 9.5 -48.999s1.5 -45.833 1.5 -76.5v-26
c0 -72.667 20 -131.667 60 -177s98 -73 174 -83v-55c0 -30.667 -0.5 -56.167 -1.5 -76.5s-4.33301 -36.666 -10 -48.999s-14.667 -21.166 -27 -26.499s-29.5 -8 -51.5 -8v-45h296v45h-10c-20 0 -35.333 2.66699 -46 8s-18.667 14.166 -24 26.499s-8.5 28.666 -9.5 48.999
s-1.5 45.833 -1.5 76.5v55c73.333 9.33301 130 36.833 170 82.5s60 104.834 60 177.501v27c0 30.667 0.5 56.167 1.5 76.5s4.16699 36.5 9.5 48.5s13.333 20.5 24 25.5s26 7.5 46 7.5h10v45l-296 1v-45c22 0 39.167 -2.66699 51.5 -8s21.333 -14.166 27 -26.499
s9 -28.666 10 -48.999s1.5 -45.833 1.5 -76.5v-57c0 -33.333 -5.16699 -61.333 -15.5 -84s-23.833 -40.667 -40.5 -54s-35.5 -22.666 -56.5 -27.999s-41.833 -7.66602 -62.5 -6.99902c-20.667 -0.666992 -41.334 1.83301 -62.001 7.5s-39.334 15.167 -56.001 28.5
s-30.167 31.166 -40.5 53.499s-15.5 50.166 -15.5 83.499zM555.002 996.997l-198 -141l16 -31c152.667 51.333 231 79 235 83c2 1.33301 -15.667 31 -53 89z" />
    <glyph glyph-name="Thorn" unicode="&#xde;" horiz-adv-x="652" 
d="M237 128l0.998047 24.9941c19.333 -9.33301 40.5 -16.333 63.5 -21s49.5 -7 79.5 -7c44 0 81.333 5.66699 112 17s56 27.833 76 49.5s35 47.834 45 78.501s15.667 65.334 17 104.001c-1.33301 38.667 -7 73.334 -17 104.001s-25 56.834 -45 78.501
s-45.333 38.334 -76 50.001s-68 17.5 -112 17.5c-60 0 -108.667 -9.66699 -146 -29c0.666992 18.667 2.33398 35 5.00098 49s7.16699 25.5 13.5 34.5s15.333 15.667 27 20s26.5 6.5 44.5 6.5v45h-296v-45h10c20 0 35.333 -3 46 -9s18.667 -15.667 24 -29
s8.5 -30.666 9.5 -51.999s1.5 -47.333 1.5 -78v-340c0 -30.667 -0.5 -55.834 -1.5 -75.501s-4.33301 -35.167 -10 -46.5s-14.667 -19.166 -27 -23.499s-29.5 -6.5 -51.5 -6.5v-45h296v45h-10c-29.333 0 -49.166 5.66699 -59.499 17s-16.833 31.333 -19.5 60v6z
M235.998 356.994v35c0 33.333 3.33301 61.166 10 83.499s16.167 40.166 28.5 53.499s27.166 22.833 44.499 28.5s36.333 8.16699 57 7.5c20.667 0.666992 39.667 -1.66602 57 -6.99902s32.166 -14.666 44.499 -27.999s21.833 -31.333 28.5 -54s10 -50.667 10 -84v-35
c0 -33.333 -3.33301 -61.333 -10 -84s-16.167 -40.667 -28.5 -54s-27.166 -22.666 -44.499 -27.999s-36.333 -7.66602 -57 -6.99902c-20.667 -0.666992 -39.667 1.83301 -57 7.5s-32.166 15.167 -44.499 28.5s-21.833 31.166 -28.5 53.499s-10 50.166 -10 83.499z" />
    <glyph glyph-name="germandbls" unicode="&#xdf;" horiz-adv-x="595" 
d="M368 40c-11.333 0 -20.6641 3.16602 -27.9971 9.49902s-13.5 14.166 -18.5 23.499s-9.16699 19.666 -12.5 30.999s-7 22 -11 32h-43l17 -135c14.667 0 26 -0.5 34 -1.5s15.333 -2.33301 22 -4s13.667 -3.16699 21 -4.5s17.333 -2 30 -2c22.667 0 45.667 2.83301 69 8.5
s44.333 14.5 63 26.5s33.834 27.5 45.501 46.5s17.5 41.5 17.5 67.5c0 23.333 -4.66699 43.333 -14 60s-21.5 31.167 -36.5 43.5s-31.833 23 -50.5 32s-37.334 17.167 -56.001 24.5c-14.667 6 -26.167 12.167 -34.5 18.5s-14.666 13.166 -18.999 20.499s-7 15.666 -8 24.999
s-1.5 20 -1.5 32c0 11.333 3 21.166 9 29.499s13.667 15.333 23 21s20.166 10 32.499 13s24.833 4.5 37.5 4.5c16 -21.333 29.667 -32.166 41 -32.499s20.5 3.83398 27.5 12.501s12 19 15 31s4.16699 20 3.5 24c-1.33301 44.667 -7.83301 83 -19.5 115
s-28.5 58.333 -50.5 79s-49.333 35.834 -82 45.501s-70.334 14.834 -113.001 15.501c-29.333 -3.33301 -56.166 -12 -80.499 -26s-45.5 -32.5 -63.5 -55.5s-32 -50 -42 -81s-15 -64.5 -15 -100.5v-34h-70v-75h70v-349c0 -33.333 -4.33301 -61 -13 -83
s-20.667 -39.833 -36 -53.5s-33.666 -23.167 -54.999 -28.5s-44.666 -8 -69.999 -8v-58h1c93.333 0.666992 164.666 24.334 213.999 71.001s74 110.334 74 191.001v458c0 32.667 3.16699 60 9.5 82s15.166 39.5 26.499 52.5s25.333 22.333 42 28s35.334 8.5 56.001 8.5
c44 0 77.667 -13.5 101 -40.5s34.333 -71.5 33 -133.5c-61.333 -2.66699 -109.5 -16.667 -144.5 -42s-52.5 -57.666 -52.5 -96.999c0 -24.667 2 -45.667 6 -63s10.333 -32 19 -44s19.667 -22.333 33 -31s29.666 -16.334 48.999 -23.001c14.667 -5.33301 28.667 -11 42 -17
s25.166 -12.667 35.499 -20s18.666 -15.833 24.999 -25.5s9.5 -20.5 9.5 -32.5c0 -13.333 -3 -25 -9 -35s-14.333 -18.5 -25 -25.5s-22.834 -12.333 -36.501 -16s-28.167 -5.5 -43.5 -5.5z" />
    <glyph glyph-name="agrave" unicode="&#xe0;" horiz-adv-x="571" 
d="M535 3v136.002v72v30v8c-1.33301 38.667 -7 73.334 -17 104.001s-25.333 56.834 -46 78.501s-47.167 38.334 -79.5 50.001s-71.5 17.5 -117.5 17.5c-44 0 -81.333 -5.83301 -112 -17.5s-56 -28.334 -76 -50.001s-35 -47.834 -45 -78.501s-15.667 -65.334 -17 -104.001
c1.33301 -38.667 7 -73.334 17 -104.001s25 -56.834 45 -78.501s45.333 -38.167 76 -49.5s68 -17 112 -17c14.667 0 28.5 1.5 41.5 4.5s25.167 8.33301 36.5 16s22.5 18.167 33.5 31.5s22.167 30.333 33.5 51l-1 -100v-3h116v3zM420 265.002
c0 -66.667 -12.832 -117.998 -38.499 -153.998s-59.5 -53.333 -101.5 -52c-20.667 -0.666992 -39.667 1.66602 -57 6.99902s-32.166 14.666 -44.499 27.999s-21.833 31.333 -28.5 54s-10 50.667 -10 84v35c0 33.333 3.33301 61.333 10 84s16.167 40.667 28.5 54
s27.166 22.666 44.499 27.999s36.333 7.66602 57 6.99902c20.667 0.666992 39.667 -1.83301 57 -7.5s32.166 -15.167 44.499 -28.5s21.833 -31.166 28.5 -53.499s10 -50.166 10 -83.499v-2zM198.001 749.004c-37.333 -57.333 -54.667 -87 -52 -89
c1.33301 -3.33301 79.333 -31 234 -83l15 31z" />
    <glyph glyph-name="aacute" unicode="&#xe1;" horiz-adv-x="571" 
d="M535 3v136.002v72v30v8c-1.33301 38.667 -7 73.334 -17 104.001s-25.333 56.834 -46 78.501s-47.167 38.334 -79.5 50.001s-71.5 17.5 -117.5 17.5c-44 0 -81.333 -5.83301 -112 -17.5s-56 -28.334 -76 -50.001s-35 -47.834 -45 -78.501s-15.667 -65.334 -17 -104.001
c1.33301 -38.667 7 -73.334 17 -104.001s25 -56.834 45 -78.501s45.333 -38.167 76 -49.5s68 -17 112 -17c14.667 0 28.5 1.5 41.5 4.5s25.167 8.33301 36.5 16s22.5 18.167 33.5 31.5s22.167 30.333 33.5 51l-1 -100v-3h116v3zM420 265.002
c0 -66.667 -12.832 -117.998 -38.499 -153.998s-59.5 -53.333 -101.5 -52c-20.667 -0.666992 -39.667 1.66602 -57 6.99902s-32.166 14.666 -44.499 27.999s-21.833 31.333 -28.5 54s-10 50.667 -10 84v35c0 33.333 3.33301 61.333 10 84s16.167 40.667 28.5 54
s27.166 22.666 44.499 27.999s36.333 7.66602 57 6.99902c20.667 0.666992 39.667 -1.83301 57 -7.5s32.166 -15.167 44.499 -28.5s21.833 -31.166 28.5 -53.499s10 -50.166 10 -83.499v-2zM397.001 747.004l-198 -141l16 -31c152.667 51.333 231 79 235 83
c2 1.33301 -15.667 31 -53 89z" />
    <glyph glyph-name="acircumflex" unicode="&#xe2;" horiz-adv-x="571" 
d="M535 3v136.002v72v30v8c-1.33301 38.667 -7 73.334 -17 104.001s-25.333 56.834 -46 78.501s-47.167 38.334 -79.5 50.001s-71.5 17.5 -117.5 17.5c-44 0 -81.333 -5.83301 -112 -17.5s-56 -28.334 -76 -50.001s-35 -47.834 -45 -78.501s-15.667 -65.334 -17 -104.001
c1.33301 -38.667 7 -73.334 17 -104.001s25 -56.834 45 -78.501s45.333 -38.167 76 -49.5s68 -17 112 -17c14.667 0 28.5 1.5 41.5 4.5s25.167 8.33301 36.5 16s22.5 18.167 33.5 31.5s22.167 30.333 33.5 51l-1 -100v-3h116v3zM420 265.002
c0 -66.667 -12.832 -117.998 -38.499 -153.998s-59.5 -53.333 -101.5 -52c-20.667 -0.666992 -39.667 1.66602 -57 6.99902s-32.166 14.666 -44.499 27.999s-21.833 31.333 -28.5 54s-10 50.667 -10 84v35c0 33.333 3.33301 61.333 10 84s16.167 40.667 28.5 54
s27.166 22.666 44.499 27.999s36.333 7.66602 57 6.99902c20.667 0.666992 39.667 -1.83301 57 -7.5s32.166 -15.167 44.499 -28.5s21.833 -31.166 28.5 -53.499s10 -50.166 10 -83.499v-2zM430.001 565.004l-147 183l-144 -181l7 -17l139 84l138 -86z" />
    <glyph glyph-name="atilde" unicode="&#xe3;" horiz-adv-x="571" 
d="M535 3v136.002v72v30v8c-1.33301 38.667 -7 73.334 -17 104.001s-25.333 56.834 -46 78.501s-47.167 38.334 -79.5 50.001s-71.5 17.5 -117.5 17.5c-44 0 -81.333 -5.83301 -112 -17.5s-56 -28.334 -76 -50.001s-35 -47.834 -45 -78.501s-15.667 -65.334 -17 -104.001
c1.33301 -38.667 7 -73.334 17 -104.001s25 -56.834 45 -78.501s45.333 -38.167 76 -49.5s68 -17 112 -17c14.667 0 28.5 1.5 41.5 4.5s25.167 8.33301 36.5 16s22.5 18.167 33.5 31.5s22.167 30.333 33.5 51l-1 -100v-3h116v3zM420 265.002
c0 -66.667 -12.832 -117.998 -38.499 -153.998s-59.5 -53.333 -101.5 -52c-20.667 -0.666992 -39.667 1.66602 -57 6.99902s-32.166 14.666 -44.499 27.999s-21.833 31.333 -28.5 54s-10 50.667 -10 84v35c0 33.333 3.33301 61.333 10 84s16.167 40.667 28.5 54
s27.166 22.666 44.499 27.999s36.333 7.66602 57 6.99902c20.667 0.666992 39.667 -1.83301 57 -7.5s32.166 -15.167 44.499 -28.5s21.833 -31.166 28.5 -53.499s10 -50.166 10 -83.499v-2zM450.001 673.004l-14.999 17c-8.66699 -10 -19.334 -19.5 -32.001 -28.5
s-25.334 -13.5 -38.001 -13.5c-8 0 -17 2.16699 -27 6.5s-21.667 10.5 -35 18.5c-25.333 16.667 -47.666 25 -66.999 25c-54 0 -92.333 -36.667 -115 -110c2 -2 3.83301 -3.16699 5.5 -3.5s3.16699 -0.666016 4.5 -0.999023s2.83301 -1 4.5 -2s3.16699 -3.16699 4.5 -6.5
c10 17.333 21.167 29.5 33.5 36.5s23.833 10.5 34.5 10.5c9.33301 0 20 -2.33301 32 -7s25.667 -11.334 41 -20.001c30 -17.333 54.333 -26 73 -26c38.667 0 70.667 34.667 96 104z" />
    <glyph glyph-name="adieresis" unicode="&#xe4;" horiz-adv-x="571" 
d="M535 3v136.002v72v30v8c-1.33301 38.667 -7 73.334 -17 104.001s-25.333 56.834 -46 78.501s-47.167 38.334 -79.5 50.001s-71.5 17.5 -117.5 17.5c-44 0 -81.333 -5.83301 -112 -17.5s-56 -28.334 -76 -50.001s-35 -47.834 -45 -78.501s-15.667 -65.334 -17 -104.001
c1.33301 -38.667 7 -73.334 17 -104.001s25 -56.834 45 -78.501s45.333 -38.167 76 -49.5s68 -17 112 -17c14.667 0 28.5 1.5 41.5 4.5s25.167 8.33301 36.5 16s22.5 18.167 33.5 31.5s22.167 30.333 33.5 51l-1 -100v-3h116v3zM420 265.002
c0 -66.667 -12.832 -117.998 -38.499 -153.998s-59.5 -53.333 -101.5 -52c-20.667 -0.666992 -39.667 1.66602 -57 6.99902s-32.166 14.666 -44.499 27.999s-21.833 31.333 -28.5 54s-10 50.667 -10 84v35c0 33.333 3.33301 61.333 10 84s16.167 40.667 28.5 54
s27.166 22.666 44.499 27.999s36.333 7.66602 57 6.99902c20.667 0.666992 39.667 -1.83301 57 -7.5s32.166 -15.167 44.499 -28.5s21.833 -31.166 28.5 -53.499s10 -50.166 10 -83.499v-2zM131.001 633.004c0 -18 6 -32.833 18 -44.5s26.667 -17.5 44 -17.5
s32.166 5.83301 44.499 17.5s18.5 26.5 18.5 44.5c0 16.667 -6.16699 31 -18.5 43s-27.166 18 -44.499 18s-32 -6 -44 -18s-18 -26.333 -18 -43zM319.001 633.004c0 -18 6 -32.833 18 -44.5s26.333 -17.5 43 -17.5c18 0 33.167 5.83301 45.5 17.5s18.5 26.5 18.5 44.5
c0 16.667 -6.33301 31 -19 43s-27.667 18 -45 18c-16 0 -30.167 -6 -42.5 -18s-18.5 -26.333 -18.5 -43z" />
    <glyph glyph-name="aring" unicode="&#xe5;" horiz-adv-x="571" 
d="M535 3v136.002v72v30v8c-1.33301 38.667 -7 73.334 -17 104.001s-25.333 56.834 -46 78.501s-47.167 38.334 -79.5 50.001s-71.5 17.5 -117.5 17.5c-44 0 -81.333 -5.83301 -112 -17.5s-56 -28.334 -76 -50.001s-35 -47.834 -45 -78.501s-15.667 -65.334 -17 -104.001
c1.33301 -38.667 7 -73.334 17 -104.001s25 -56.834 45 -78.501s45.333 -38.167 76 -49.5s68 -17 112 -17c14.667 0 28.5 1.5 41.5 4.5s25.167 8.33301 36.5 16s22.5 18.167 33.5 31.5s22.167 30.333 33.5 51l-1 -100v-3h116v3zM420 265.002
c0 -66.667 -12.832 -117.998 -38.499 -153.998s-59.5 -53.333 -101.5 -52c-20.667 -0.666992 -39.667 1.66602 -57 6.99902s-32.166 14.666 -44.499 27.999s-21.833 31.333 -28.5 54s-10 50.667 -10 84v35c0 33.333 3.33301 61.333 10 84s16.167 40.667 28.5 54
s27.166 22.666 44.499 27.999s36.333 7.66602 57 6.99902c20.667 0.666992 39.667 -1.83301 57 -7.5s32.166 -15.167 44.499 -28.5s21.833 -31.166 28.5 -53.499s10 -50.166 10 -83.499v-2zM378.001 650.004c0 13.333 -2.5 26 -7.5 38s-12 22.5 -21 31.5
s-19.5 16.167 -31.5 21.5s-25 8 -39 8c-28 0 -51.5 -9.5 -70.5 -28.5s-28.5 -42.5 -28.5 -70.5c0 -13.333 2.5 -26 7.5 -38s12 -22.5 21 -31.5s19.5 -16.167 31.5 -21.5s25 -8 39 -8c13.333 0 26 2.5 38 7.5s22.5 12 31.5 21s16.167 19.5 21.5 31.5s8 25 8 39z
M282.001 595.004c-16 0 -29.5 5.5 -40.5 16.5s-16.5 24.167 -16.5 39.5s5.5 28.666 16.5 39.999s24.5 17 40.5 17c15.333 0 28.5 -5.66699 39.5 -17s16.5 -24.666 16.5 -39.999c0 -16 -5.5 -29.333 -16.5 -40s-24.167 -16 -39.5 -16z" />
    <glyph glyph-name="ae" unicode="&#xe6;" horiz-adv-x="928" 
d="M535 0l0.000976562 43.0059c19.333 -12.667 40.666 -22.334 63.999 -29.001s48 -10 74 -10c23.333 -1.33301 45.666 2 66.999 10s42.333 16.667 63 26l-8 33c-42 -11.333 -75.333 -17 -100 -17c-28 0 -51.5 4.33301 -70.5 13s-34.667 20 -47 34s-21.833 29.667 -28.5 47
s-11.334 34.333 -14.001 51v20h370c0 4 0.166992 9.16699 0.5 15.5s0.5 11.166 0.5 14.499c1.33301 32.667 -3.66699 63.834 -15 93.501s-27.666 55.667 -48.999 78s-47 40 -77 53s-63.333 19.833 -100 20.5c-36.667 -1.33301 -70.167 -9.33301 -100.5 -24
s-56.166 -34 -77.499 -58c-20.667 27.333 -48.167 48.333 -82.5 63s-77.5 22 -129.5 22c-44 0 -81.333 -5.83301 -112 -17.5s-56 -28.334 -76 -50.001s-35 -47.834 -45 -78.501s-15.667 -65.334 -17 -104.001c1.33301 -38.667 7 -73.334 17 -104.001s25 -56.834 45 -78.501
s45.333 -38.167 76 -49.5s68 -17 112 -17c14.667 0 28.5 1.5 41.5 4.5s25.167 8.33301 36.5 16s22.5 18.167 33.5 31.5s22.167 30.333 33.5 51l-1 -100v-3h116zM420.001 265.006c0 -66.667 -12.832 -117.998 -38.499 -153.998s-59.5 -53.333 -101.5 -52
c-20.667 -0.666992 -39.667 1.66602 -57 6.99902s-32.166 14.666 -44.499 27.999s-21.833 31.333 -28.5 54s-10 50.667 -10 84v35c0 33.333 3.33301 61.333 10 84s16.167 40.667 28.5 54s27.166 22.666 44.499 27.999s36.333 7.66602 57 6.99902
c20.667 0.666992 39.667 -1.83301 57 -7.5s32.166 -15.167 44.499 -28.5s21.833 -31.166 28.5 -53.499s10 -50.166 10 -83.499v-2zM661.002 439.008l2.00098 0.000976562c36.667 0 66.667 -12.333 90 -37s37.666 -64.334 42.999 -119.001h-262c2 20 6 39.333 12 58
s14.167 35.167 24.5 49.5s23 26 38 35s32.5 13.5 52.5 13.5z" />
    <glyph glyph-name="ccedilla" unicode="&#xe7;" horiz-adv-x="513" 
d="M284 428c19.333 0 35.667 -1.6748 49 -5.00781s25 -8.66602 35 -15.999s19 -16.666 27 -27.999s16.667 -24.666 26 -39.999c18.667 16 32.834 27.167 42.501 33.5s16.667 10.333 21 12s6.33301 2.33398 6 2.00098s-1.16602 0.833984 -2.49902 3.50098
c-7.33301 15.333 -20.666 32 -39.999 50s-47.666 33 -84.999 45c-48 11.333 -92.333 12.666 -133 3.99902s-76 -24.5 -106 -47.5s-53.5 -52.167 -70.5 -87.5s-25.5 -74.333 -25.5 -117c0 -31.333 4.5 -60.5 13.5 -87.5s21.667 -51.167 38 -72.5
s36.166 -39.166 59.499 -53.499s49 -24.166 77 -29.499c-4 -14 -7.83301 -28.833 -11.5 -44.5s-6.83398 -27.5 -9.50098 -35.5c-1.33301 -3.33301 0.5 -5.5 5.5 -6.5s10.833 -1.33301 17.5 -1s13 1 19 2l9 1.5c11.333 0 23 -3.5 35 -10.5s19.667 -16.167 23 -27.5
c3.33301 -12.667 2.16602 -21.667 -3.50098 -27s-13.834 -8.16602 -24.501 -8.49902s-23 1 -37 4s-27.667 6.66699 -41 11l-36 12c-10.667 3.66699 -18 5.83398 -22 6.50098s-6.16699 -2.83301 -6.5 -10.5s-0.166016 -12.834 0.500977 -15.501
c2 -9.33301 12.5 -17.666 31.5 -24.999s41 -12.666 66 -15.999s50.333 -3.5 76 -0.5s45.834 10.5 60.501 22.5c7.33301 6 13.666 14.167 18.999 24.5s8 21.166 8 32.499s-3.5 22.166 -10.5 32.499s-19.167 18.166 -36.5 23.499c-17.333 6.66699 -33.5 10.667 -48.5 12
s-34.5 -2 -58.5 -10l6 24.5l6 25.5c3.33301 -0.666992 6.66602 -1 9.99902 -1h11c31.333 0.666992 57.833 2.5 79.5 5.5s40.5 6.83301 56.5 11.5s30.333 9.83398 43 15.501l40 17.5l-2 32c-53.333 -18 -101.333 -24.833 -144 -20.5s-79.167 15 -109.5 32
s-54.333 37.667 -72 62s-27.834 47.833 -30.501 70.5c-4.66699 37.333 -3.5 69 3.5 95s17.833 47.167 32.5 63.5s31.834 28.833 51.501 37.5s40.167 14.334 61.5 17.001z" />
    <glyph glyph-name="egrave" unicode="&#xe8;" horiz-adv-x="538" 
d="M516 218c0 4 0.166992 9.16309 0.5 15.4961s0.5 11.166 0.5 14.499c1.33301 32.667 -3.66699 63.834 -15 93.501s-27.666 55.667 -48.999 78s-47 40 -77 53s-63.333 19.833 -100 20.5c-34.667 -1.33301 -66.667 -8.66602 -96 -21.999s-54.833 -31.166 -76.5 -53.499
s-38.5 -48.166 -50.5 -77.499s-18 -60.666 -18 -93.999c1.33301 -36 8.5 -69 21.5 -99s30.5 -55.833 52.5 -77.5s47.833 -38.5 77.5 -50.5s62.167 -18 97.5 -18c23.333 -1.33301 45.666 2 66.999 10s42.333 16.667 63 26l-8 33c-42 -11.333 -75.333 -17 -100 -17
c-30 0 -55 5.33301 -75 16s-36.167 24 -48.5 40s-21.333 33.667 -27 53s-9.5 38 -11.5 56h372zM272 435.996l2.00098 0.000976562c36.667 0 66.667 -12.333 90 -37s37.666 -64.334 42.999 -119.001h-262c2 20 6 39.333 12 58s14.167 35.167 24.5 49.5s23 26 38 35
s32.5 13.5 52.5 13.5zM189.001 748.997c-37.333 -57.333 -54.667 -87 -52 -89c1.33301 -3.33301 79.333 -31 234 -83l15 31z" />
    <glyph glyph-name="eacute" unicode="&#xe9;" horiz-adv-x="538" 
d="M516 218c0 4 0.166992 9.16309 0.5 15.4961s0.5 11.166 0.5 14.499c1.33301 32.667 -3.66699 63.834 -15 93.501s-27.666 55.667 -48.999 78s-47 40 -77 53s-63.333 19.833 -100 20.5c-34.667 -1.33301 -66.667 -8.66602 -96 -21.999s-54.833 -31.166 -76.5 -53.499
s-38.5 -48.166 -50.5 -77.499s-18 -60.666 -18 -93.999c1.33301 -36 8.5 -69 21.5 -99s30.5 -55.833 52.5 -77.5s47.833 -38.5 77.5 -50.5s62.167 -18 97.5 -18c23.333 -1.33301 45.666 2 66.999 10s42.333 16.667 63 26l-8 33c-42 -11.333 -75.333 -17 -100 -17
c-30 0 -55 5.33301 -75 16s-36.167 24 -48.5 40s-21.333 33.667 -27 53s-9.5 38 -11.5 56h372zM272 435.996l2.00098 0.000976562c36.667 0 66.667 -12.333 90 -37s37.666 -64.334 42.999 -119.001h-262c2 20 6 39.333 12 58s14.167 35.167 24.5 49.5s23 26 38 35
s32.5 13.5 52.5 13.5zM376.001 746.997l-198 -141l16 -31c152.667 51.333 231 79 235 83c2 1.33301 -15.667 31 -53 89z" />
    <glyph glyph-name="ecircumflex" unicode="&#xea;" horiz-adv-x="538" 
d="M516 218c0 4 0.166992 9.16309 0.5 15.4961s0.5 11.166 0.5 14.499c1.33301 32.667 -3.66699 63.834 -15 93.501s-27.666 55.667 -48.999 78s-47 40 -77 53s-63.333 19.833 -100 20.5c-34.667 -1.33301 -66.667 -8.66602 -96 -21.999s-54.833 -31.166 -76.5 -53.499
s-38.5 -48.166 -50.5 -77.499s-18 -60.666 -18 -93.999c1.33301 -36 8.5 -69 21.5 -99s30.5 -55.833 52.5 -77.5s47.833 -38.5 77.5 -50.5s62.167 -18 97.5 -18c23.333 -1.33301 45.666 2 66.999 10s42.333 16.667 63 26l-8 33c-42 -11.333 -75.333 -17 -100 -17
c-30 0 -55 5.33301 -75 16s-36.167 24 -48.5 40s-21.333 33.667 -27 53s-9.5 38 -11.5 56h372zM272 435.996l2.00098 0.000976562c36.667 0 66.667 -12.333 90 -37s37.666 -64.334 42.999 -119.001h-262c2 20 6 39.333 12 58s14.167 35.167 24.5 49.5s23 26 38 35
s32.5 13.5 52.5 13.5zM427.001 564.997l-147 183l-144 -181l7 -17l139 84l138 -86z" />
    <glyph glyph-name="edieresis" unicode="&#xeb;" horiz-adv-x="538" 
d="M516 218c0 4 0.166992 9.16309 0.5 15.4961s0.5 11.166 0.5 14.499c1.33301 32.667 -3.66699 63.834 -15 93.501s-27.666 55.667 -48.999 78s-47 40 -77 53s-63.333 19.833 -100 20.5c-34.667 -1.33301 -66.667 -8.66602 -96 -21.999s-54.833 -31.166 -76.5 -53.499
s-38.5 -48.166 -50.5 -77.499s-18 -60.666 -18 -93.999c1.33301 -36 8.5 -69 21.5 -99s30.5 -55.833 52.5 -77.5s47.833 -38.5 77.5 -50.5s62.167 -18 97.5 -18c23.333 -1.33301 45.666 2 66.999 10s42.333 16.667 63 26l-8 33c-42 -11.333 -75.333 -17 -100 -17
c-30 0 -55 5.33301 -75 16s-36.167 24 -48.5 40s-21.333 33.667 -27 53s-9.5 38 -11.5 56h372zM272 435.996l2.00098 0.000976562c36.667 0 66.667 -12.333 90 -37s37.666 -64.334 42.999 -119.001h-262c2 20 6 39.333 12 58s14.167 35.167 24.5 49.5s23 26 38 35
s32.5 13.5 52.5 13.5zM114.001 632.997c0 -18 6 -32.833 18 -44.5s26.667 -17.5 44 -17.5s32.166 5.83301 44.499 17.5s18.5 26.5 18.5 44.5c0 16.667 -6.16699 31 -18.5 43s-27.166 18 -44.499 18s-32 -6 -44 -18s-18 -26.333 -18 -43zM302.001 632.997
c0 -18 6 -32.833 18 -44.5s26.333 -17.5 43 -17.5c18 0 33.167 5.83301 45.5 17.5s18.5 26.5 18.5 44.5c0 16.667 -6.33301 31 -19 43s-27.667 18 -45 18c-16 0 -30.167 -6 -42.5 -18s-18.5 -26.333 -18.5 -43z" />
    <glyph glyph-name="igrave" unicode="&#xec;" 
d="M235 295c0 30.667 0.5 56.167 1.5 76.5s4.33301 36.666 10 48.999s14.667 21.166 27 26.499s29.5 8 51.5 8v45h-296v-45h10c20 0 35.333 -2.66699 46 -8s18.667 -14.166 24 -26.499s8.5 -28.666 9.5 -48.999s1.5 -45.833 1.5 -76.5v-90
c0 -30.667 -0.5 -56.167 -1.5 -76.5s-4.33301 -36.666 -10 -48.999s-14.667 -21.166 -27 -26.499s-29.5 -8 -51.5 -8v-45h296v45h-10c-20 0 -35.333 2.66699 -46 8s-18.667 14.166 -24 26.499s-8.5 28.666 -9.5 48.999s-1.5 45.833 -1.5 76.5v90zM106 750
c-37.333 -57.333 -54.667 -87 -52 -89c1.33301 -3.33301 79.333 -31 234 -83l15 31z" />
    <glyph glyph-name="iacute" unicode="&#xed;" 
d="M235 295c0 30.667 0.5 56.167 1.5 76.5s4.33301 36.666 10 48.999s14.667 21.166 27 26.499s29.5 8 51.5 8v45h-296v-45h10c20 0 35.333 -2.66699 46 -8s18.667 -14.166 24 -26.499s8.5 -28.666 9.5 -48.999s1.5 -45.833 1.5 -76.5v-90
c0 -30.667 -0.5 -56.167 -1.5 -76.5s-4.33301 -36.666 -10 -48.999s-14.667 -21.166 -27 -26.499s-29.5 -8 -51.5 -8v-45h296v45h-10c-20 0 -35.333 2.66699 -46 8s-18.667 14.166 -24 26.499s-8.5 28.666 -9.5 48.999s-1.5 45.833 -1.5 76.5v90zM253 750l-198 -141l16 -31
c152.667 51.333 231 79 235 83c2 1.33301 -15.667 31 -53 89z" />
    <glyph glyph-name="icircumflex" unicode="&#xee;" 
d="M235 295c0 30.667 0.5 56.167 1.5 76.5s4.33301 36.666 10 48.999s14.667 21.166 27 26.499s29.5 8 51.5 8v45h-296v-45h10c20 0 35.333 -2.66699 46 -8s18.667 -14.166 24 -26.499s8.5 -28.666 9.5 -48.999s1.5 -45.833 1.5 -76.5v-90
c0 -30.667 -0.5 -56.167 -1.5 -76.5s-4.33301 -36.666 -10 -48.999s-14.667 -21.166 -27 -26.499s-29.5 -8 -51.5 -8v-45h296v45h-10c-20 0 -35.333 2.66699 -46 8s-18.667 14.166 -24 26.499s-8.5 28.666 -9.5 48.999s-1.5 45.833 -1.5 76.5v90zM321 565l-147 183
l-144 -181l7 -17l139 84l138 -86z" />
    <glyph glyph-name="idieresis" unicode="&#xef;" 
d="M235 295c0 30.667 0.5 56.167 1.5 76.5s4.33301 36.666 10 48.999s14.667 21.166 27 26.499s29.5 8 51.5 8v45h-296v-45h10c20 0 35.333 -2.66699 46 -8s18.667 -14.166 24 -26.499s8.5 -28.666 9.5 -48.999s1.5 -45.833 1.5 -76.5v-90
c0 -30.667 -0.5 -56.167 -1.5 -76.5s-4.33301 -36.666 -10 -48.999s-14.667 -21.166 -27 -26.499s-29.5 -8 -51.5 -8v-45h296v45h-10c-20 0 -35.333 2.66699 -46 8s-18.667 14.166 -24 26.499s-8.5 28.666 -9.5 48.999s-1.5 45.833 -1.5 76.5v90zM22 633
c0 -18 6 -32.833 18 -44.5s26.667 -17.5 44 -17.5s32.166 5.83301 44.499 17.5s18.5 26.5 18.5 44.5c0 16.667 -6.16699 31 -18.5 43s-27.166 18 -44.499 18s-32 -6 -44 -18s-18 -26.333 -18 -43zM210 633c0 -18 6 -32.833 18 -44.5s26.333 -17.5 43 -17.5
c18 0 33.167 5.83301 45.5 17.5s18.5 26.5 18.5 44.5c0 16.667 -6.33301 31 -19 43s-27.667 18 -45 18c-16 0 -30.167 -6 -42.5 -18s-18.5 -26.333 -18.5 -43z" />
    <glyph glyph-name="eth" unicode="&#xf0;" horiz-adv-x="577" 
d="M453 749l-72.001 -51.999c-22.667 16.667 -47.667 29.667 -75 39s-57.666 14 -90.999 14l-17 -21c27.333 -8 52 -17.5 74 -28.5s41.667 -24.167 59 -39.5l-81 -58l36 -37l80 57c15.333 -20.667 27.666 -44.334 36.999 -71.001s15.666 -58 18.999 -94l-58 26
c-22.667 10 -45.667 15 -69 15c-46 0 -85.167 -6.66699 -117.5 -20s-58.833 -31.5 -79.5 -54.5s-36 -49.5 -46 -79.5s-15.667 -61.667 -17 -95c0.666992 -32.667 6 -64 16 -94s25.333 -56.5 46 -79.5s47.334 -41.5 80.001 -55.5s72 -21 118 -21c44 0 81.333 7 112 21
s56 32.5 76 55.5s35 49.5 45 79.5s15.667 61.333 17 94c3.33301 32.667 3.5 67.5 0.5 104.5s-9.5 74 -19.5 111s-23.667 72.667 -41 107s-38.666 64.5 -63.999 90.5l68 49zM149.999 267.001c0 33.333 3.33301 61.166 10 83.499s16.167 40.166 28.5 53.499
s27.166 22.833 44.499 28.5s36.333 8.16699 57 7.5c20.667 0.666992 39.667 -1.66602 57 -6.99902s32.166 -14.666 44.499 -27.999s21.833 -31.333 28.5 -54s10 -50.667 10 -84v-35c0 -33.333 -3.33301 -61.333 -10 -84s-16.167 -40.667 -28.5 -54
s-27.166 -22.666 -44.499 -27.999s-36.333 -7.66602 -57 -6.99902c-20.667 -0.666992 -39.667 1.83301 -57 7.5s-32.166 15.167 -44.499 28.5s-21.833 31.166 -28.5 53.499s-10 50.166 -10 83.499v35z" />
    <glyph glyph-name="ntilde" unicode="&#xf1;" horiz-adv-x="730" 
d="M498 264l0.000976562 -63c0 -30.667 -0.5 -56.167 -1.5 -76.5s-4.33301 -36.666 -10 -48.999s-14.667 -21.166 -27 -26.499s-29.5 -8 -51.5 -8v-45h296v42l-10 3c-20 0 -35.333 2.66699 -46 8s-18.667 14.166 -24 26.499s-8.5 28.666 -9.5 48.999s-1.5 45.833 -1.5 76.5
v32c0 40.667 -4.5 77.167 -13.5 109.5s-23.333 59.833 -43 82.5s-45.167 40.167 -76.5 52.5s-69.333 18.5 -114 18.5c-80.667 0 -142.5 -23.5 -185.5 -70.5s-64.5 -111.167 -64.5 -192.5v-32c0 -30.667 -0.5 -56.167 -1.5 -76.5s-4.16699 -36.666 -9.5 -48.999
s-13.333 -21.166 -24 -26.499s-26 -8 -46 -8h-10v-45h296v45c-22 0 -39.167 2.66699 -51.5 8s-21.333 14.166 -27 26.499s-9 28.666 -10 48.999s-1.5 45.833 -1.5 76.5v63c0 33.333 3.33301 61.333 10 84s16.167 40.667 28.5 54s27.166 22.666 44.499 27.999
s36.333 7.66602 57 6.99902c20.667 0.666992 39 -1.83301 55 -7.5s29.333 -15.167 40 -28.5s18.667 -31.166 24 -53.499s8 -50.166 8 -83.499zM528.001 673l-14.999 17c-8.66699 -10 -19.334 -19.5 -32.001 -28.5s-25.334 -13.5 -38.001 -13.5c-8 0 -17 2.16699 -27 6.5
s-21.667 10.5 -35 18.5c-25.333 16.667 -47.666 25 -66.999 25c-54 0 -92.333 -36.667 -115 -110c2 -2 3.83301 -3.16699 5.5 -3.5s3.16699 -0.666016 4.5 -0.999023s2.83301 -1 4.5 -2s3.16699 -3.16699 4.5 -6.5c10 17.333 21.167 29.5 33.5 36.5s23.833 10.5 34.5 10.5
c9.33301 0 20 -2.33301 32 -7s25.667 -11.334 41 -20.001c30 -17.333 54.333 -26 73 -26c38.667 0 70.667 34.667 96 104z" />
    <glyph glyph-name="ograve" unicode="&#xf2;" horiz-adv-x="571" 
d="M292 499c-46 0 -85.332 -6.99805 -117.999 -20.998s-59.334 -32.5 -80.001 -55.5s-36 -49.5 -46 -79.5s-15.333 -61.333 -16 -94c1.33301 -33.333 7 -65 17 -95s25.333 -56.5 46 -79.5s47.167 -41.167 79.5 -54.5s71.5 -20 117.5 -20c44 0 81.5 6.66699 112.5 20
s56.5 31.166 76.5 53.499s34.833 48.666 44.5 78.999s15.167 62.5 16.5 96.5c-1.33301 32.667 -7 64 -17 94s-25 56.5 -45 79.5s-45.333 41.5 -76 55.5s-68 21 -112 21zM147.001 232.002v35c0 33.333 3.33301 61.166 10 83.499s16.167 40.166 28.5 53.499
s27.166 22.833 44.499 28.5s36.333 8.16699 57 7.5c20.667 0.666992 39.667 -1.66602 57 -6.99902s32.166 -14.666 44.499 -27.999s21.833 -31.333 28.5 -54s10 -50.667 10 -84v-35c0 -33.333 -3.33301 -61.333 -10 -84s-16.167 -40.667 -28.5 -54
s-27.166 -22.666 -44.499 -27.999s-36.333 -7.66602 -57 -6.99902c-20.667 -0.666992 -39.667 1.83301 -57 7.5s-32.166 15.167 -44.499 28.5s-21.833 31.166 -28.5 53.499s-10 50.166 -10 83.499zM198.001 749.002c-37.333 -57.333 -54.667 -87 -52 -89
c1.33301 -3.33301 79.333 -31 234 -83l15 31z" />
    <glyph glyph-name="oacute" unicode="&#xf3;" horiz-adv-x="571" 
d="M292 499c-46 0 -85.332 -6.99805 -117.999 -20.998s-59.334 -32.5 -80.001 -55.5s-36 -49.5 -46 -79.5s-15.333 -61.333 -16 -94c1.33301 -33.333 7 -65 17 -95s25.333 -56.5 46 -79.5s47.167 -41.167 79.5 -54.5s71.5 -20 117.5 -20c44 0 81.5 6.66699 112.5 20
s56.5 31.166 76.5 53.499s34.833 48.666 44.5 78.999s15.167 62.5 16.5 96.5c-1.33301 32.667 -7 64 -17 94s-25 56.5 -45 79.5s-45.333 41.5 -76 55.5s-68 21 -112 21zM147.001 232.002v35c0 33.333 3.33301 61.166 10 83.499s16.167 40.166 28.5 53.499
s27.166 22.833 44.499 28.5s36.333 8.16699 57 7.5c20.667 0.666992 39.667 -1.66602 57 -6.99902s32.166 -14.666 44.499 -27.999s21.833 -31.333 28.5 -54s10 -50.667 10 -84v-35c0 -33.333 -3.33301 -61.333 -10 -84s-16.167 -40.667 -28.5 -54
s-27.166 -22.666 -44.499 -27.999s-36.333 -7.66602 -57 -6.99902c-20.667 -0.666992 -39.667 1.83301 -57 7.5s-32.166 15.167 -44.499 28.5s-21.833 31.166 -28.5 53.499s-10 50.166 -10 83.499zM397.001 747.002l-198 -141l16 -31c152.667 51.333 231 79 235 83
c2 1.33301 -15.667 31 -53 89z" />
    <glyph glyph-name="ocircumflex" unicode="&#xf4;" horiz-adv-x="571" 
d="M292 499c-46 0 -85.332 -6.99805 -117.999 -20.998s-59.334 -32.5 -80.001 -55.5s-36 -49.5 -46 -79.5s-15.333 -61.333 -16 -94c1.33301 -33.333 7 -65 17 -95s25.333 -56.5 46 -79.5s47.167 -41.167 79.5 -54.5s71.5 -20 117.5 -20c44 0 81.5 6.66699 112.5 20
s56.5 31.166 76.5 53.499s34.833 48.666 44.5 78.999s15.167 62.5 16.5 96.5c-1.33301 32.667 -7 64 -17 94s-25 56.5 -45 79.5s-45.333 41.5 -76 55.5s-68 21 -112 21zM147.001 232.002v35c0 33.333 3.33301 61.166 10 83.499s16.167 40.166 28.5 53.499
s27.166 22.833 44.499 28.5s36.333 8.16699 57 7.5c20.667 0.666992 39.667 -1.66602 57 -6.99902s32.166 -14.666 44.499 -27.999s21.833 -31.333 28.5 -54s10 -50.667 10 -84v-35c0 -33.333 -3.33301 -61.333 -10 -84s-16.167 -40.667 -28.5 -54
s-27.166 -22.666 -44.499 -27.999s-36.333 -7.66602 -57 -6.99902c-20.667 -0.666992 -39.667 1.83301 -57 7.5s-32.166 15.167 -44.499 28.5s-21.833 31.166 -28.5 53.499s-10 50.166 -10 83.499zM430.001 565.002l-147 183l-144 -181l7 -17l139 84l138 -86z" />
    <glyph glyph-name="otilde" unicode="&#xf5;" horiz-adv-x="571" 
d="M292 499c-46 0 -85.332 -6.99805 -117.999 -20.998s-59.334 -32.5 -80.001 -55.5s-36 -49.5 -46 -79.5s-15.333 -61.333 -16 -94c1.33301 -33.333 7 -65 17 -95s25.333 -56.5 46 -79.5s47.167 -41.167 79.5 -54.5s71.5 -20 117.5 -20c44 0 81.5 6.66699 112.5 20
s56.5 31.166 76.5 53.499s34.833 48.666 44.5 78.999s15.167 62.5 16.5 96.5c-1.33301 32.667 -7 64 -17 94s-25 56.5 -45 79.5s-45.333 41.5 -76 55.5s-68 21 -112 21zM147.001 232.002v35c0 33.333 3.33301 61.166 10 83.499s16.167 40.166 28.5 53.499
s27.166 22.833 44.499 28.5s36.333 8.16699 57 7.5c20.667 0.666992 39.667 -1.66602 57 -6.99902s32.166 -14.666 44.499 -27.999s21.833 -31.333 28.5 -54s10 -50.667 10 -84v-35c0 -33.333 -3.33301 -61.333 -10 -84s-16.167 -40.667 -28.5 -54
s-27.166 -22.666 -44.499 -27.999s-36.333 -7.66602 -57 -6.99902c-20.667 -0.666992 -39.667 1.83301 -57 7.5s-32.166 15.167 -44.499 28.5s-21.833 31.166 -28.5 53.499s-10 50.166 -10 83.499zM450.001 673.002l-14.999 17c-8.66699 -10 -19.334 -19.5 -32.001 -28.5
s-25.334 -13.5 -38.001 -13.5c-8 0 -17 2.16699 -27 6.5s-21.667 10.5 -35 18.5c-25.333 16.667 -47.666 25 -66.999 25c-54 0 -92.333 -36.667 -115 -110c2 -2 3.83301 -3.16699 5.5 -3.5s3.16699 -0.666016 4.5 -0.999023s2.83301 -1 4.5 -2s3.16699 -3.16699 4.5 -6.5
c10 17.333 21.167 29.5 33.5 36.5s23.833 10.5 34.5 10.5c9.33301 0 20 -2.33301 32 -7s25.667 -11.334 41 -20.001c30 -17.333 54.333 -26 73 -26c38.667 0 70.667 34.667 96 104z" />
    <glyph glyph-name="odieresis" unicode="&#xf6;" horiz-adv-x="571" 
d="M292 499c-46 0 -85.332 -6.99805 -117.999 -20.998s-59.334 -32.5 -80.001 -55.5s-36 -49.5 -46 -79.5s-15.333 -61.333 -16 -94c1.33301 -33.333 7 -65 17 -95s25.333 -56.5 46 -79.5s47.167 -41.167 79.5 -54.5s71.5 -20 117.5 -20c44 0 81.5 6.66699 112.5 20
s56.5 31.166 76.5 53.499s34.833 48.666 44.5 78.999s15.167 62.5 16.5 96.5c-1.33301 32.667 -7 64 -17 94s-25 56.5 -45 79.5s-45.333 41.5 -76 55.5s-68 21 -112 21zM147.001 232.002v35c0 33.333 3.33301 61.166 10 83.499s16.167 40.166 28.5 53.499
s27.166 22.833 44.499 28.5s36.333 8.16699 57 7.5c20.667 0.666992 39.667 -1.66602 57 -6.99902s32.166 -14.666 44.499 -27.999s21.833 -31.333 28.5 -54s10 -50.667 10 -84v-35c0 -33.333 -3.33301 -61.333 -10 -84s-16.167 -40.667 -28.5 -54
s-27.166 -22.666 -44.499 -27.999s-36.333 -7.66602 -57 -6.99902c-20.667 -0.666992 -39.667 1.83301 -57 7.5s-32.166 15.167 -44.499 28.5s-21.833 31.166 -28.5 53.499s-10 50.166 -10 83.499zM131.001 633.002c0 -18 6 -32.833 18 -44.5s26.667 -17.5 44 -17.5
s32.166 5.83301 44.499 17.5s18.5 26.5 18.5 44.5c0 16.667 -6.16699 31 -18.5 43s-27.166 18 -44.499 18s-32 -6 -44 -18s-18 -26.333 -18 -43zM319.001 633.002c0 -18 6 -32.833 18 -44.5s26.333 -17.5 43 -17.5c18 0 33.167 5.83301 45.5 17.5s18.5 26.5 18.5 44.5
c0 16.667 -6.33301 31 -19 43s-27.667 18 -45 18c-16 0 -30.167 -6 -42.5 -18s-18.5 -26.333 -18.5 -43z" />
    <glyph glyph-name="divide" unicode="&#xf7;" horiz-adv-x="493" 
d="M17 409v-65h456v65h-456zM254 573c-21.333 0 -36.5 -5.83301 -45.5 -17.5s-13.833 -25.167 -14.5 -40.5c0.666992 -15.333 5.5 -28.666 14.5 -39.999s24.167 -17 45.5 -17c20 0 34.333 5.66699 43 17s13.667 24.666 15 39.999c-1.33301 15.333 -6.33301 28.833 -15 40.5
s-23 17.5 -43 17.5zM255 295c-21.333 0 -36.5 -5.83301 -45.5 -17.5s-13.833 -25.167 -14.5 -40.5c0.666992 -15.333 5.5 -28.666 14.5 -39.999s24.167 -17 45.5 -17c20 0 34.333 5.66699 43 17s13.667 24.666 15 39.999c-1.33301 15.333 -6.33301 28.833 -15 40.5
s-23 17.5 -43 17.5z" />
    <glyph glyph-name="oslash" unicode="&#xf8;" horiz-adv-x="577" 
d="M429 552l-11 -18.9961l-28 -50c-14 5.33301 -29.167 9.33301 -45.5 12s-33.833 4 -52.5 4c-46 0 -85.333 -7 -118 -21s-59.334 -32.5 -80.001 -55.5s-36 -49.5 -46 -79.5s-15.333 -61.333 -16 -94c2 -44 11.5 -84.833 28.5 -122.5s44.167 -67.834 81.5 -90.501
c-15.333 -26.667 -27.333 -48.167 -36 -64.5s-12.667 -24.5 -12 -24.5h51l11 19l29 50c15.333 -5.33301 31.833 -9.33301 49.5 -12s36.834 -4 57.501 -4c44 0 81.5 6.66699 112.5 20s56.5 31.166 76.5 53.499s34.833 48.666 44.5 78.999s15.167 62.5 16.5 96.5
c-2 43.333 -11.5 84.166 -28.5 122.499s-43.833 68.833 -80.5 91.5l35.5 64.5l13.5 24.5h-53zM147 232.004l0.000976562 35.002c0 33.333 3.33301 61.166 10 83.499s16.167 40.166 28.5 53.499s27.166 22.833 44.499 28.5s36.333 8.16699 57 7.5
c27.333 1.33301 51.333 -3 72 -13l-42.5 -76l-46 -83.5l-47 -84.5l-44.5 -80c-10.667 14 -18.667 31.5 -24 52.5s-8 46.5 -8 76.5zM427.001 267.006l-0.000976562 -35.002c0 -33.333 -3.33301 -61.333 -10 -84s-16.167 -40.667 -28.5 -54s-27.166 -22.666 -44.499 -27.999
s-36.333 -7.66602 -57 -6.99902c-28 -1.33301 -51.667 3 -71 13l42 76l46 83l46.5 84l44.5 80c10 -13.333 17.833 -30.5 23.5 -51.5s8.5 -46.5 8.5 -76.5z" />
    <glyph glyph-name="ugrave" unicode="&#xf9;" horiz-adv-x="725" 
d="M227 232l0.000976562 63c0 30.667 0.5 56.167 1.5 76.5s4.33301 36.666 10 48.999s14.667 21.166 27 26.499s29.5 8 51.5 8v45h-296v-42l10 -3c20 0 35.333 -2.66699 46 -8s18.667 -14.166 24 -26.499s8.5 -28.666 9.5 -48.999s1.5 -45.833 1.5 -76.5v-32
c0 -40.667 5 -77.167 15 -109.5s25.333 -59.833 46 -82.5s47 -40.167 79 -52.5s70.333 -18.5 115 -18.5c80 0 140.333 23.5 181 70.5s61 111.167 61 192.5v32c0 30.667 0.5 56.167 1.5 76.5s4.16699 36.666 9.5 48.999s13.333 21.166 24 26.499s26 8 46 8h10v45h-296v-45
c22 0 39.167 -2.66699 51.5 -8s21.333 -14.166 27 -26.499s9 -28.666 10 -48.999s1.5 -45.833 1.5 -76.5v-63c0 -33.333 -3 -61.333 -9 -84s-14.667 -40.667 -26 -54s-25.166 -22.666 -41.499 -27.999s-34.833 -7.66602 -55.5 -6.99902
c-20.667 -0.666992 -39.334 1.83301 -56.001 7.5s-30.834 15.167 -42.501 28.5s-20.667 31.166 -27 53.499s-9.5 50.166 -9.5 83.499zM246.001 749c-37.333 -57.333 -54.667 -87 -52 -89c1.33301 -3.33301 79.333 -31 234 -83l15 31z" />
    <glyph glyph-name="uacute" unicode="&#xfa;" horiz-adv-x="725" 
d="M227 232l0.000976562 63c0 30.667 0.5 56.167 1.5 76.5s4.33301 36.666 10 48.999s14.667 21.166 27 26.499s29.5 8 51.5 8v45h-296v-42l10 -3c20 0 35.333 -2.66699 46 -8s18.667 -14.166 24 -26.499s8.5 -28.666 9.5 -48.999s1.5 -45.833 1.5 -76.5v-32
c0 -40.667 5 -77.167 15 -109.5s25.333 -59.833 46 -82.5s47 -40.167 79 -52.5s70.333 -18.5 115 -18.5c80 0 140.333 23.5 181 70.5s61 111.167 61 192.5v32c0 30.667 0.5 56.167 1.5 76.5s4.16699 36.666 9.5 48.999s13.333 21.166 24 26.499s26 8 46 8h10v45h-296v-45
c22 0 39.167 -2.66699 51.5 -8s21.333 -14.166 27 -26.499s9 -28.666 10 -48.999s1.5 -45.833 1.5 -76.5v-63c0 -33.333 -3 -61.333 -9 -84s-14.667 -40.667 -26 -54s-25.166 -22.666 -41.499 -27.999s-34.833 -7.66602 -55.5 -6.99902
c-20.667 -0.666992 -39.334 1.83301 -56.001 7.5s-30.834 15.167 -42.501 28.5s-20.667 31.166 -27 53.499s-9.5 50.166 -9.5 83.499zM471.001 747l-198 -141l16 -31c152.667 51.333 231 79 235 83c2 1.33301 -15.667 31 -53 89z" />
    <glyph glyph-name="ucircumflex" unicode="&#xfb;" horiz-adv-x="725" 
d="M227 232l0.000976562 63c0 30.667 0.5 56.167 1.5 76.5s4.33301 36.666 10 48.999s14.667 21.166 27 26.499s29.5 8 51.5 8v45h-296v-42l10 -3c20 0 35.333 -2.66699 46 -8s18.667 -14.166 24 -26.499s8.5 -28.666 9.5 -48.999s1.5 -45.833 1.5 -76.5v-32
c0 -40.667 5 -77.167 15 -109.5s25.333 -59.833 46 -82.5s47 -40.167 79 -52.5s70.333 -18.5 115 -18.5c80 0 140.333 23.5 181 70.5s61 111.167 61 192.5v32c0 30.667 0.5 56.167 1.5 76.5s4.16699 36.666 9.5 48.999s13.333 21.166 24 26.499s26 8 46 8h10v45h-296v-45
c22 0 39.167 -2.66699 51.5 -8s21.333 -14.166 27 -26.499s9 -28.666 10 -48.999s1.5 -45.833 1.5 -76.5v-63c0 -33.333 -3 -61.333 -9 -84s-14.667 -40.667 -26 -54s-25.166 -22.666 -41.499 -27.999s-34.833 -7.66602 -55.5 -6.99902
c-20.667 -0.666992 -39.334 1.83301 -56.001 7.5s-30.834 15.167 -42.501 28.5s-20.667 31.166 -27 53.499s-9.5 50.166 -9.5 83.499zM505.001 567l-147 183l-144 -181l7 -17l139 84l138 -86z" />
    <glyph glyph-name="udieresis" unicode="&#xfc;" horiz-adv-x="725" 
d="M227 232l0.000976562 63c0 30.667 0.5 56.167 1.5 76.5s4.33301 36.666 10 48.999s14.667 21.166 27 26.499s29.5 8 51.5 8v45h-296v-42l10 -3c20 0 35.333 -2.66699 46 -8s18.667 -14.166 24 -26.499s8.5 -28.666 9.5 -48.999s1.5 -45.833 1.5 -76.5v-32
c0 -40.667 5 -77.167 15 -109.5s25.333 -59.833 46 -82.5s47 -40.167 79 -52.5s70.333 -18.5 115 -18.5c80 0 140.333 23.5 181 70.5s61 111.167 61 192.5v32c0 30.667 0.5 56.167 1.5 76.5s4.16699 36.666 9.5 48.999s13.333 21.166 24 26.499s26 8 46 8h10v45h-296v-45
c22 0 39.167 -2.66699 51.5 -8s21.333 -14.166 27 -26.499s9 -28.666 10 -48.999s1.5 -45.833 1.5 -76.5v-63c0 -33.333 -3 -61.333 -9 -84s-14.667 -40.667 -26 -54s-25.166 -22.666 -41.499 -27.999s-34.833 -7.66602 -55.5 -6.99902
c-20.667 -0.666992 -39.334 1.83301 -56.001 7.5s-30.834 15.167 -42.501 28.5s-20.667 31.166 -27 53.499s-9.5 50.166 -9.5 83.499zM207.001 633c0 -18 6 -32.833 18 -44.5s26.667 -17.5 44 -17.5s32.166 5.83301 44.499 17.5s18.5 26.5 18.5 44.5
c0 16.667 -6.16699 31 -18.5 43s-27.166 18 -44.499 18s-32 -6 -44 -18s-18 -26.333 -18 -43zM395.001 633c0 -18 6 -32.833 18 -44.5s26.333 -17.5 43 -17.5c18 0 33.167 5.83301 45.5 17.5s18.5 26.5 18.5 44.5c0 16.667 -6.33301 31 -19 43s-27.667 18 -45 18
c-16 0 -30.167 -6 -42.5 -18s-18.5 -26.333 -18.5 -43z" />
    <glyph glyph-name="yacute" unicode="&#xfd;" horiz-adv-x="725" 
d="M621 -196l-0.000976562 44.998h-2c-18 0 -32.5 0.333008 -43.5 1s-19.333 2.33398 -25 5.00098s-9.33398 6.83398 -11.001 12.501s-2.16699 13.5 -1.5 23.5c-1.33301 15.333 -4.16602 28.666 -8.49902 39.999s-10.5 21.333 -18.5 30s-17.667 16.834 -29 24.501
s-24.666 15.5 -39.999 23.5c8.66699 3.33301 17 5.83301 25 7.5s16 5.16699 24 10.5c38.667 20.667 67.667 51 87 91s29 88.333 29 145v32c0 30.667 0.5 56.167 1.5 76.5s4.16699 36.666 9.5 48.999s13.333 21.166 24 26.499s26 8 46 8h10v45h-296v-45
c22 0 39.167 -2.66699 51.5 -8s21.333 -14.166 27 -26.499s9 -28.666 10 -48.999s1.5 -45.833 1.5 -76.5v-63c0 -33.333 -3 -61.333 -9 -84s-14.667 -40.667 -26 -54s-25.166 -22.666 -41.499 -27.999s-34.833 -7.66602 -55.5 -6.99902
c-20.667 -0.666992 -39.334 1.83301 -56.001 7.5s-30.834 15.167 -42.501 28.5s-20.667 31.166 -27 53.499s-9.5 50.166 -9.5 83.499v63c0 30.667 0.5 56.167 1.5 76.5s4.33301 36.666 10 48.999s14.667 21.166 27 26.499s29.5 8 51.5 8v45h-296v-42l10 -3
c20 0 35.333 -2.66699 46 -8s18.667 -14.166 24 -26.499s8.5 -28.666 9.5 -48.999s1.5 -45.833 1.5 -76.5v-32c0 -68 13.833 -124.167 41.5 -168.5s71.834 -73.166 132.501 -86.499l46 -10c15.333 -3.33301 29.5 -8.33301 42.5 -15s23.833 -15.334 32.5 -26.001
s14.334 -24.667 17.001 -42c-1.33301 -16 -3.33301 -28.333 -6 -37s-7.33398 -15.167 -14.001 -19.5s-15.5 -7 -26.5 -8s-25.167 -1.5 -42.5 -1.5v-45h288zM470.999 746.998l-198 -141l16 -31c152.667 51.333 231 79 235 83c2 1.33301 -15.667 31 -53 89z" />
    <glyph glyph-name="thorn" unicode="&#xfe;" horiz-adv-x="626" 
d="M6 705l10.002 -0.00683594c20 0 35.333 -2.66699 46 -8s18.667 -14.166 24 -26.499s8.5 -28.666 9.5 -48.999s1.5 -45.833 1.5 -76.5c0 -54 -0.166992 -98.833 -0.5 -134.5s-0.5 -66.167 -0.5 -91.5v-67v-63v-76v-110c0 -30.667 -0.5 -56.167 -1.5 -76.5
s-4.33301 -36.666 -10 -48.999s-14.667 -21.166 -27 -26.499s-29.5 -8 -51.5 -8v-45h286v45h-10c-19.333 0 -34.333 2.66699 -45 8s-18.334 14 -23.001 26s-7.33398 28 -8.00098 48s-1 44.667 -1 74v29c19.333 -9.33301 40.5 -16.333 63.5 -21s49.5 -7 79.5 -7
c44 0 81.333 5.66699 112 17s56 27.833 76 49.5s35 47.834 45 78.501s15.667 65.334 17 104.001c-1.33301 38.667 -7 73.334 -17 104.001s-25 56.834 -45 78.501s-45.333 38.334 -76 50.001s-68 17.5 -112 17.5c-30 0 -56.667 -2.33301 -80 -7s-44.333 -11.667 -63 -21v74
c0 30.667 0.5 56.167 1.5 76.5s4.33301 36.666 10 48.999s14.667 21.166 27 26.499s29.5 8 51.5 8v45h-289v-45zM343.002 439.993c20.667 0.666992 39.665 -1.66992 56.998 -7.00293s32.166 -14.666 44.499 -27.999s21.833 -31.333 28.5 -54s10 -50.667 10 -84v-35
c0 -33.333 -3.33301 -61.333 -10 -84s-16.167 -40.667 -28.5 -54s-27.166 -22.666 -44.499 -27.999s-36.333 -7.66602 -57 -6.99902c-37.333 -1.33301 -68.166 12.834 -92.499 42.501s-39.166 69.5 -44.499 119.5v29c0 40.667 3.66699 73.667 11 99
s17.166 44.833 29.499 58.5s26.833 22.667 43.5 27s34.334 6.16602 53.001 5.49902z" />
    <glyph glyph-name="ydieresis" unicode="&#xff;" horiz-adv-x="725" 
d="M621 -196l-0.000976562 44.998h-2c-18 0 -32.5 0.333008 -43.5 1s-19.333 2.33398 -25 5.00098s-9.33398 6.83398 -11.001 12.501s-2.16699 13.5 -1.5 23.5c-1.33301 15.333 -4.16602 28.666 -8.49902 39.999s-10.5 21.333 -18.5 30s-17.667 16.834 -29 24.501
s-24.666 15.5 -39.999 23.5c8.66699 3.33301 17 5.83301 25 7.5s16 5.16699 24 10.5c38.667 20.667 67.667 51 87 91s29 88.333 29 145v32c0 30.667 0.5 56.167 1.5 76.5s4.16699 36.666 9.5 48.999s13.333 21.166 24 26.499s26 8 46 8h10v45h-296v-45
c22 0 39.167 -2.66699 51.5 -8s21.333 -14.166 27 -26.499s9 -28.666 10 -48.999s1.5 -45.833 1.5 -76.5v-63c0 -33.333 -3 -61.333 -9 -84s-14.667 -40.667 -26 -54s-25.166 -22.666 -41.499 -27.999s-34.833 -7.66602 -55.5 -6.99902
c-20.667 -0.666992 -39.334 1.83301 -56.001 7.5s-30.834 15.167 -42.501 28.5s-20.667 31.166 -27 53.499s-9.5 50.166 -9.5 83.499v63c0 30.667 0.5 56.167 1.5 76.5s4.33301 36.666 10 48.999s14.667 21.166 27 26.499s29.5 8 51.5 8v45h-296v-42l10 -3
c20 0 35.333 -2.66699 46 -8s18.667 -14.166 24 -26.499s8.5 -28.666 9.5 -48.999s1.5 -45.833 1.5 -76.5v-32c0 -68 13.833 -124.167 41.5 -168.5s71.834 -73.166 132.501 -86.499l46 -10c15.333 -3.33301 29.5 -8.33301 42.5 -15s23.833 -15.334 32.5 -26.001
s14.334 -24.667 17.001 -42c-1.33301 -16 -3.33301 -28.333 -6 -37s-7.33398 -15.167 -14.001 -19.5s-15.5 -7 -26.5 -8s-25.167 -1.5 -42.5 -1.5v-45h288zM206.999 632.998c0 -18 6 -32.833 18 -44.5s26.667 -17.5 44 -17.5s32.166 5.83301 44.499 17.5
s18.5 26.5 18.5 44.5c0 16.667 -6.16699 31 -18.5 43s-27.166 18 -44.499 18s-32 -6 -44 -18s-18 -26.333 -18 -43zM394.999 632.998c0 -18 6 -32.833 18 -44.5s26.333 -17.5 43 -17.5c18 0 33.167 5.83301 45.5 17.5s18.5 26.5 18.5 44.5c0 16.667 -6.33301 31 -19 43
s-27.667 18 -45 18c-16 0 -30.167 -6 -42.5 -18s-18.5 -26.333 -18.5 -43z" />
    <glyph glyph-name="Amacron" unicode="&#x100;" horiz-adv-x="800" 
d="M21 0h296v45c-22 0 -39.167 2.66699 -51.5 8s-21.333 14.166 -27 26.499s-9 28.666 -10 48.999s-1.5 45.833 -1.5 76.5v128h349v-128c0 -30.667 -0.5 -56.167 -1.5 -76.5s-4.33301 -36.666 -10 -48.999s-14.667 -21.166 -27 -26.499s-29.5 -8 -51.5 -8v-45h296v45h-10
c-20 0 -35.333 2.66699 -46 8s-18.667 14.166 -24 26.499s-8.5 28.666 -9.5 48.999s-1.5 45.833 -1.5 76.5v282c0 40.667 -6.33301 77.167 -19 109.5s-31.334 59.833 -56.001 82.5s-54.667 40.167 -90 52.5s-75.333 18.5 -120 18.5c-95.333 0 -168.166 -23.5 -218.499 -70.5
s-75.5 -111.167 -75.5 -192.5v-282c0 -30.667 -0.5 -56.167 -1.5 -76.5s-4.16699 -36.666 -9.5 -48.999s-13.333 -21.166 -24 -26.499s-26 -8 -46 -8l-10 -3v-42zM227 518c0 33.333 5.16504 61.166 15.498 83.499s23.833 40.166 40.5 53.499s35.334 22.833 56.001 28.5
s41.334 8.16699 62.001 7.5c20.667 0.666992 41.5 -1.66602 62.5 -6.99902s39.833 -14.666 56.5 -27.999s30.167 -31.333 40.5 -54s15.5 -50.667 15.5 -84v-139h-349v139zM274.998 922v-75h253v75h-253z" />
    <glyph glyph-name="amacron" unicode="&#x101;" horiz-adv-x="571" 
d="M535 3v136.002v72v30v8c-1.33301 38.667 -7 73.334 -17 104.001s-25.333 56.834 -46 78.501s-47.167 38.334 -79.5 50.001s-71.5 17.5 -117.5 17.5c-44 0 -81.333 -5.83301 -112 -17.5s-56 -28.334 -76 -50.001s-35 -47.834 -45 -78.501s-15.667 -65.334 -17 -104.001
c1.33301 -38.667 7 -73.334 17 -104.001s25 -56.834 45 -78.501s45.333 -38.167 76 -49.5s68 -17 112 -17c14.667 0 28.5 1.5 41.5 4.5s25.167 8.33301 36.5 16s22.5 18.167 33.5 31.5s22.167 30.333 33.5 51l-1 -100v-3h116v3zM420 265.002
c0 -66.667 -12.832 -117.998 -38.499 -153.998s-59.5 -53.333 -101.5 -52c-20.667 -0.666992 -39.667 1.66602 -57 6.99902s-32.166 14.666 -44.499 27.999s-21.833 31.333 -28.5 54s-10 50.667 -10 84v35c0 33.333 3.33301 61.333 10 84s16.167 40.667 28.5 54
s27.166 22.666 44.499 27.999s36.333 7.66602 57 6.99902c20.667 0.666992 39.667 -1.83301 57 -7.5s32.166 -15.167 44.499 -28.5s21.833 -31.166 28.5 -53.499s10 -50.166 10 -83.499v-2zM157.001 676.004v-75h253v75h-253z" />
    <glyph glyph-name="Abreve" unicode="&#x102;" horiz-adv-x="800" 
d="M21 0h296v45c-22 0 -39.167 2.66699 -51.5 8s-21.333 14.166 -27 26.499s-9 28.666 -10 48.999s-1.5 45.833 -1.5 76.5v128h349v-128c0 -30.667 -0.5 -56.167 -1.5 -76.5s-4.33301 -36.666 -10 -48.999s-14.667 -21.166 -27 -26.499s-29.5 -8 -51.5 -8v-45h296v45h-10
c-20 0 -35.333 2.66699 -46 8s-18.667 14.166 -24 26.499s-8.5 28.666 -9.5 48.999s-1.5 45.833 -1.5 76.5v282c0 40.667 -6.33301 77.167 -19 109.5s-31.334 59.833 -56.001 82.5s-54.667 40.167 -90 52.5s-75.333 18.5 -120 18.5c-95.333 0 -168.166 -23.5 -218.499 -70.5
s-75.5 -111.167 -75.5 -192.5v-282c0 -30.667 -0.5 -56.167 -1.5 -76.5s-4.16699 -36.666 -9.5 -48.999s-13.333 -21.166 -24 -26.499s-26 -8 -46 -8l-10 -3v-42zM227 518c0 33.333 5.16504 61.166 15.498 83.499s23.833 40.166 40.5 53.499s35.334 22.833 56.001 28.5
s41.334 8.16699 62.001 7.5c20.667 0.666992 41.5 -1.66602 62.5 -6.99902s39.833 -14.666 56.5 -27.999s30.167 -31.333 40.5 -54s15.5 -50.667 15.5 -84v-139h-349v139zM408.998 851c-11.333 0 -20.333 2.16699 -27 6.5s-11.667 10.166 -15 17.499
s-5.83301 15.5 -7.5 24.5s-2.83398 18.5 -3.50098 28.5h-60c-1.33301 -16 0 -31.667 4 -47s10.833 -29 20.5 -41s21.834 -21.667 36.501 -29s32.334 -10.666 53.001 -9.99902c22 0.666992 40.667 4.66699 56 12s27.666 17 36.999 29s16 25.5 20 40.5s6 30.167 6 45.5h-56
c-1.33301 -9.33301 -3 -18.5 -5 -27.5s-5.33301 -17.167 -10 -24.5s-11 -13.333 -19 -18s-18 -7 -30 -7z" />
    <glyph glyph-name="abreve" unicode="&#x103;" horiz-adv-x="571" 
d="M535 3v136.002v72v30v8c-1.33301 38.667 -7 73.334 -17 104.001s-25.333 56.834 -46 78.501s-47.167 38.334 -79.5 50.001s-71.5 17.5 -117.5 17.5c-44 0 -81.333 -5.83301 -112 -17.5s-56 -28.334 -76 -50.001s-35 -47.834 -45 -78.501s-15.667 -65.334 -17 -104.001
c1.33301 -38.667 7 -73.334 17 -104.001s25 -56.834 45 -78.501s45.333 -38.167 76 -49.5s68 -17 112 -17c14.667 0 28.5 1.5 41.5 4.5s25.167 8.33301 36.5 16s22.5 18.167 33.5 31.5s22.167 30.333 33.5 51l-1 -100v-3h116v3zM420 265.002
c0 -66.667 -12.832 -117.998 -38.499 -153.998s-59.5 -53.333 -101.5 -52c-20.667 -0.666992 -39.667 1.66602 -57 6.99902s-32.166 14.666 -44.499 27.999s-21.833 31.333 -28.5 54s-10 50.667 -10 84v35c0 33.333 3.33301 61.333 10 84s16.167 40.667 28.5 54
s27.166 22.666 44.499 27.999s36.333 7.66602 57 6.99902c20.667 0.666992 39.667 -1.83301 57 -7.5s32.166 -15.167 44.499 -28.5s21.833 -31.166 28.5 -53.499s10 -50.166 10 -83.499v-2zM284.001 631.004c-11.333 0 -20.333 2.16699 -27 6.5s-11.667 10.166 -15 17.499
s-5.83301 15.5 -7.5 24.5s-2.83398 18.5 -3.50098 28.5h-60c-1.33301 -16 0 -31.667 4 -47s10.833 -29 20.5 -41s21.834 -21.667 36.501 -29s32.334 -10.666 53.001 -9.99902c22 0.666992 40.667 4.66699 56 12s27.666 17 36.999 29s16 25.5 20 40.5s6 30.167 6 45.5h-56
c-1.33301 -9.33301 -3 -18.5 -5 -27.5s-5.33301 -17.167 -10 -24.5s-11 -13.333 -19 -18s-18 -7 -30 -7z" />
    <glyph glyph-name="Aogonek" unicode="&#x104;" horiz-adv-x="800" 
d="M21 0l296.001 -0.00195312v45c-22 0 -39.167 2.66699 -51.5 8s-21.333 14.166 -27 26.499s-9 28.666 -10 48.999s-1.5 45.833 -1.5 76.5v128h349v-128c0 -30.667 -0.5 -56.167 -1.5 -76.5s-4.33301 -36.833 -10 -49.5s-14.667 -21.667 -27 -27s-29.5 -8.33301 -51.5 -9
c-8.66699 -2 -19.5 -6 -32.5 -12s-25.667 -14.5 -38 -25.5s-22.833 -24.667 -31.5 -41s-13.334 -36.166 -14.001 -59.499c-0.666992 -18.667 2.83301 -35.5 10.5 -50.5s18.167 -28 31.5 -39s29 -19.667 47 -26s37.667 -9.5 59 -9.5c20 0 37.667 3.5 53 10.5
s28.166 15.5 38.499 25.5s18 20.333 23 31s7.5 19.334 7.5 26.001c0 14 -5.66699 21 -17 21c-5.33301 0 -10.166 -2.16699 -14.499 -6.5s-9.83301 -9.16602 -16.5 -14.499s-15 -10.166 -25 -14.499s-23.333 -6.5 -40 -6.5c-23.333 0 -41 6.16699 -53 18.5
s-18 26.833 -18 43.5c0 18 3.5 34.167 10.5 48.5s16.167 26.833 27.5 37.5h288v45h-10c-20 0 -35.333 2.66699 -46 8s-18.667 14.166 -24 26.499s-8.5 28.666 -9.5 48.999s-1.5 45.833 -1.5 76.5v282c0 40.667 -6.33301 77.167 -19 109.5s-31.334 59.833 -56.001 82.5
s-54.667 40.167 -90 52.5s-75.333 18.5 -120 18.5c-95.333 0 -168.166 -23.5 -218.499 -70.5s-75.5 -111.167 -75.5 -192.5v-282c0 -30.667 -0.5 -56.167 -1.5 -76.5s-4.16699 -36.666 -9.5 -48.999s-13.333 -21.166 -24 -26.499s-26 -8 -46 -8l-10 -3v-42zM227.001 517.998
c0 33.333 5.16504 61.166 15.498 83.499s23.833 40.166 40.5 53.499s35.334 22.833 56.001 28.5s41.334 8.16699 62.001 7.5c20.667 0.666992 41.5 -1.66602 62.5 -6.99902s39.833 -14.666 56.5 -27.999s30.167 -31.333 40.5 -54s15.5 -50.667 15.5 -84v-139h-349v139z" />
    <glyph glyph-name="aogonek" unicode="&#x105;" horiz-adv-x="571" 
d="M535 249c-1.33301 38.667 -7 73.333 -17 104s-25.333 56.834 -46 78.501s-47.167 38.334 -79.5 50.001s-71.5 17.5 -117.5 17.5c-44 0 -81.333 -5.83301 -112 -17.5s-56 -28.334 -76 -50.001s-35 -47.834 -45 -78.501s-15.667 -65.334 -17 -104.001
c1.33301 -38.667 7 -73.334 17 -104.001s25 -56.834 45 -78.501s45.333 -38.167 76 -49.5s68 -17 112 -17c14.667 0 28.5 1.5 41.5 4.5s25.167 8.33301 36.5 16s22.5 18.167 33.5 31.5s22.167 30.333 33.5 51v-99c-9.33301 -2.66699 -20.166 -7.16699 -32.499 -13.5
s-24 -15 -35 -26s-20.333 -24.333 -28 -40s-11.834 -34.167 -12.501 -55.5c-0.666992 -18.667 2.83301 -35.5 10.5 -50.5s18.167 -28 31.5 -39s29 -19.667 47 -26s37.667 -9.5 59 -9.5c20 0 37.667 3.5 53 10.5s28.166 15.5 38.499 25.5s18 20.333 23 31
s7.5 19.334 7.5 26.001c0 14 -5.66699 21 -17 21c-5.33301 0 -10.166 -2.16699 -14.499 -6.5s-9.83301 -9.16602 -16.5 -14.499s-15 -10.166 -25 -14.499s-23.333 -6.5 -40 -6.5c-23.333 0 -41 6.16699 -53 18.5s-18 26.833 -18 43.5c0 32 9.66699 58 29 78
s42.333 34.667 69 44h39v249zM420 264.999c0 -66.667 -12.832 -117.998 -38.499 -153.998s-59.5 -53.333 -101.5 -52c-20.667 -0.666992 -39.667 1.66602 -57 6.99902s-32.166 14.666 -44.499 27.999s-21.833 31.333 -28.5 54s-10 50.667 -10 84v35
c0 33.333 3.33301 61.333 10 84s16.167 40.667 28.5 54s27.166 22.666 44.499 27.999s36.333 7.66602 57 6.99902c20.667 0.666992 39.667 -1.83301 57 -7.5s32.166 -15.167 44.499 -28.5s21.833 -31.166 28.5 -53.499s10 -50.166 10 -83.499v-2z" />
    <glyph glyph-name="Cacute" unicode="&#x106;" horiz-adv-x="721" 
d="M678 137c-32 -21.333 -65.168 -37.6641 -99.501 -48.9971s-69.166 -17 -104.499 -17c-48.667 0 -92.834 8 -132.501 24s-73.5 38.5 -101.5 67.5s-49.5 63.5 -64.5 103.5s-22.5 84.333 -22.5 133c0 42 6.16699 81.167 18.5 117.5s30 67.666 53 93.999s51.167 47 84.5 62
s71 22.5 113 22.5c18 0 38.333 -1.5 61 -4.5s44 -8 64 -15s37 -16.167 51 -27.5s21 -25.333 21 -42l-1 -85h48c1.33301 12.667 3 27 5 43s4.16699 32.333 6.5 49l7 49c2.33301 16 4.83301 30.333 7.5 43c-46 16 -92.333 28.167 -139 36.5s-91 12.5 -133 12.5
c-53.333 0 -103.666 -8.5 -150.999 -25.5s-88.833 -41.667 -124.5 -74s-64 -71.833 -85 -118.5s-31.5 -99.667 -31.5 -159c0 -60.667 10.833 -114.5 32.5 -161.5s51.167 -86.5 88.5 -118.5s81 -56.167 131 -72.5s103.333 -24.5 160 -24.5c16 0 34.167 1.5 54.5 4.5
s41 7.16699 62 12.5s41.667 11.666 62 18.999s38.5 15.666 54.5 24.999zM534.999 997.002l-198 -141l16 -31c152.667 51.333 231 79 235 83c2 1.33301 -15.667 31 -53 89z" />
    <glyph glyph-name="cacute" unicode="&#x107;" horiz-adv-x="513" 
d="M284 428c19.333 0 35.6631 -1.67383 48.9961 -5.00684s25 -8.66602 35 -15.999s19 -16.666 27 -27.999s16.667 -24.666 26 -39.999c18.667 16 32.834 27.167 42.501 33.5s16.667 10.333 21 12s6.33301 2.33398 6 2.00098s-1.16602 0.833984 -2.49902 3.50098
c-7.33301 15.333 -20.666 32 -39.999 50s-47.666 33 -84.999 45c-48 11.333 -92.333 12.666 -133 3.99902s-76 -24.5 -106 -47.5s-53.5 -52.167 -70.5 -87.5s-25.5 -74.333 -25.5 -117c0 -36 6 -69.333 18 -100s29 -57 51 -79s48 -39.167 78 -51.5s63 -18.166 99 -17.499
c31.333 0.666992 57.833 2.5 79.5 5.5s40.5 6.83301 56.5 11.5s30.333 9.83398 43 15.501l40 17.5l-2 32c-53.333 -18 -101.333 -24.833 -144 -20.5s-79.167 15 -109.5 32s-54.333 37.667 -72 62s-27.834 47.833 -30.501 70.5c-4.66699 37.333 -3.5 69 3.5 95
s17.833 47.167 32.5 63.5s31.834 28.833 51.501 37.5s40.167 14.334 61.5 17.001zM376.997 748.993l-198 -141l16 -31c152.667 51.333 231 79 235 83c2 1.33301 -15.667 31 -53 89z" />
    <glyph glyph-name="Ccaron" unicode="&#x10c;" horiz-adv-x="721" 
d="M678 137c-32 -21.333 -65.168 -37.6641 -99.501 -48.9971s-69.166 -17 -104.499 -17c-48.667 0 -92.834 8 -132.501 24s-73.5 38.5 -101.5 67.5s-49.5 63.5 -64.5 103.5s-22.5 84.333 -22.5 133c0 42 6.16699 81.167 18.5 117.5s30 67.666 53 93.999s51.167 47 84.5 62
s71 22.5 113 22.5c18 0 38.333 -1.5 61 -4.5s44 -8 64 -15s37 -16.167 51 -27.5s21 -25.333 21 -42l-1 -85h48c1.33301 12.667 3 27 5 43s4.16699 32.333 6.5 49l7 49c2.33301 16 4.83301 30.333 7.5 43c-46 16 -92.333 28.167 -139 36.5s-91 12.5 -133 12.5
c-53.333 0 -103.666 -8.5 -150.999 -25.5s-88.833 -41.667 -124.5 -74s-64 -71.833 -85 -118.5s-31.5 -99.667 -31.5 -159c0 -60.667 10.833 -114.5 32.5 -161.5s51.167 -86.5 88.5 -118.5s81 -56.167 131 -72.5s103.333 -24.5 160 -24.5c16 0 34.167 1.5 54.5 4.5
s41 7.16699 62 12.5s41.667 11.666 62 18.999s38.5 15.666 54.5 24.999zM553.999 969.002l-7 17l-138 -86l-139 84l-7 -17l144 -181z" />
    <glyph glyph-name="ccaron" unicode="&#x10d;" horiz-adv-x="513" 
d="M284 428c19.333 0 35.6631 -1.67383 48.9961 -5.00684s25 -8.66602 35 -15.999s19 -16.666 27 -27.999s16.667 -24.666 26 -39.999c18.667 16 32.834 27.167 42.501 33.5s16.667 10.333 21 12s6.33301 2.33398 6 2.00098s-1.16602 0.833984 -2.49902 3.50098
c-7.33301 15.333 -20.666 32 -39.999 50s-47.666 33 -84.999 45c-48 11.333 -92.333 12.666 -133 3.99902s-76 -24.5 -106 -47.5s-53.5 -52.167 -70.5 -87.5s-25.5 -74.333 -25.5 -117c0 -36 6 -69.333 18 -100s29 -57 51 -79s48 -39.167 78 -51.5s63 -18.166 99 -17.499
c31.333 0.666992 57.833 2.5 79.5 5.5s40.5 6.83301 56.5 11.5s30.333 9.83398 43 15.501l40 17.5l-2 32c-53.333 -18 -101.333 -24.833 -144 -20.5s-79.167 15 -109.5 32s-54.333 37.667 -72 62s-27.834 47.833 -30.501 70.5c-4.66699 37.333 -3.5 69 3.5 95
s17.833 47.167 32.5 63.5s31.834 28.833 51.501 37.5s40.167 14.334 61.5 17.001zM419.997 732.993l-7 17l-138 -86l-139 84l-7 -17l144 -181z" />
    <glyph glyph-name="Dcaron" unicode="&#x10e;" horiz-adv-x="709" 
d="M679 383c0 56.667 -8.16895 107.663 -24.502 152.996s-40 83.833 -71 115.5s-69.167 56 -114.5 73s-97.333 25.5 -156 25.5h-296v-45h10c20 0 35.333 -2.66699 46 -8s18.667 -14.166 24 -26.499s8.5 -28.666 9.5 -48.999s1.5 -45.833 1.5 -76.5v-340
c0 -30.667 -0.5 -56.167 -1.5 -76.5s-4.33301 -36.666 -10 -48.999s-14.667 -21.166 -27 -26.499s-29.5 -8 -51.5 -8v-45c78.667 -0.666992 140.334 -1 185.001 -1h102c23.333 0 39.333 0.166992 48 0.5s16 0.5 22 0.5c42 -1.33301 81.333 7.83398 118 27.501
s68.834 46.667 96.501 81s49.5 75.166 65.5 122.499s24 98 24 152zM281.998 681.996c92 0 161.497 -26.6699 208.497 -80.0029s70.5 -130.666 70.5 -231.999c0 -23.333 -0.666992 -48.166 -2 -74.499s-5.33301 -52.333 -12 -78s-16.667 -49.834 -30 -72.501
s-31.666 -41.5 -54.999 -56.5s-52.666 -25.167 -87.999 -30.5s-78.666 -3.66602 -129.999 5.00098c-10.667 10.667 -16.834 27.334 -18.501 50.001s-2.5 53.334 -2.5 92.001v382c0 37.333 3.66699 64.666 11 81.999c4 5.33301 9.83301 8.83301 17.5 10.5
s17.834 2.5 30.501 2.5zM452.995 975.993l-7 17l-138 -86l-139 84l-7 -17l144 -181z" />
    <glyph glyph-name="dcaron" unicode="&#x10f;" horiz-adv-x="652" 
d="M624 705v44.998h-293v-45h10c20 0 35.167 -2.66699 45.5 -8s17.833 -14.166 22.5 -26.499s7.33398 -28.666 8.00098 -48.999s1 -45.833 1 -76.5v-74c-19.333 9.33301 -40.5 17.5 -63.5 24.5s-49.5 10.5 -79.5 10.5c-44 0 -81.333 -6.16699 -112 -18.5
s-56 -29.666 -76 -51.999s-35 -49.166 -45 -80.499s-15.667 -66.333 -17 -105c1.33301 -38.667 7 -73.334 17 -104.001s25 -56.834 45 -78.501s45.333 -38.334 76 -50.001s68 -17.5 112 -17.5c46 0 85.167 5.83301 117.5 17.5s58.666 28.334 78.999 50.001
s35.5 47.834 45.5 78.501s15.667 65.334 17 104.001v15v47v89v144c0 30.667 0.5 56.167 1.5 76.5s4.33301 36.666 10 48.999s14.667 21.166 27 26.499s29.5 8 51.5 8zM420 266.998v-35c0 -33.333 -3.33301 -61.166 -10 -83.499s-16.167 -40.166 -28.5 -53.499
s-27.166 -22.833 -44.499 -28.5s-36.333 -8.16699 -57 -7.5c-20.667 -0.666992 -39.667 1.66602 -57 6.99902s-32.166 14.666 -44.499 27.999s-21.833 31.333 -28.5 54s-10 50.667 -10 84v35c0 33.333 3.33301 61.666 10 84.999s16.167 42.166 28.5 56.499
s27.166 24.5 44.499 30.5s36.333 8.66699 57 8c20.667 0.666992 39.667 -2.16602 57 -8.49902s32.166 -16.666 44.499 -30.999s21.833 -33 28.5 -56s10 -51.167 10 -84.5zM774 750.998h-88l-67 -201h28z" />
    <glyph glyph-name="Dcroat" unicode="&#x110;" horiz-adv-x="709" 
d="M33 412l-0.00195312 -75.0039h75v-132c0 -30.667 -0.5 -56.167 -1.5 -76.5s-4.33301 -36.666 -10 -48.999s-14.667 -21.166 -27 -26.499s-29.5 -8 -51.5 -8v-45c78.667 -0.666992 140.334 -1 185.001 -1h102c23.333 0 39.333 0.166992 48 0.5s16 0.5 22 0.5
c42 -1.33301 81.333 7.83398 118 27.501s68.834 46.667 96.501 81s49.5 75.166 65.5 122.499s24 98 24 152c0 56.667 -8.16699 107.667 -24.5 153s-40 83.833 -71 115.5s-69.167 56 -114.5 73s-97.333 25.5 -156 25.5h-296v-45h10c20 0 35.333 -2.66699 46 -8
s18.667 -14.166 24 -26.499s8.5 -28.666 9.5 -48.999s1.5 -45.833 1.5 -76.5v-133h-75zM281.998 681.996c92 0 161.497 -26.6699 208.497 -80.0029s70.5 -130.666 70.5 -231.999c0 -23.333 -0.666992 -48.166 -2 -74.499s-5.33301 -52.333 -12 -78
s-16.667 -49.834 -30 -72.501s-31.666 -41.5 -54.999 -56.5s-52.666 -25.167 -87.999 -30.5s-78.666 -3.66602 -129.999 5.00098c-10.667 10.667 -16.834 27.334 -18.501 50.001s-2.5 53.334 -2.5 92.001v132h173v75h-173v175c0 37.333 3.66699 64.666 11 81.999
c4 5.33301 9.83301 8.83301 17.5 10.5s17.834 2.5 30.501 2.5z" />
    <glyph glyph-name="dcroat" unicode="&#x111;" horiz-adv-x="643" 
d="M267 631l0.00195312 -75.002h151v-85c-19.333 9.33301 -40.5 17.5 -63.5 24.5s-49.5 10.5 -79.5 10.5c-44 0 -81.333 -6.16699 -112 -18.5s-56 -29.666 -76 -51.999s-35 -49.166 -45 -80.499s-15.667 -66.333 -17 -105c1.33301 -38.667 7 -73.334 17 -104.001
s25 -56.834 45 -78.501s45.333 -38.334 76 -50.001s68 -17.5 112 -17.5c46 0 85.167 5.83301 117.5 17.5s58.666 28.334 78.999 50.001s35.5 47.834 45.5 78.501s15.667 65.334 17 104.001v306h134v75h-132c2.66699 27.333 10.167 46.5 22.5 57.5s34.166 16.5 65.499 16.5
v45h-293v-45h10c28 0 47 -5.5 57 -16.5s16 -30.167 18 -57.5h-149zM420.002 266.998v-35c0 -33.333 -3.33301 -61.166 -10 -83.499s-16.167 -40.166 -28.5 -53.499s-27.166 -22.833 -44.499 -28.5s-36.333 -8.16699 -57 -7.5c-20.667 -0.666992 -39.667 1.66602 -57 6.99902
s-32.166 14.666 -44.499 27.999s-21.833 31.333 -28.5 54s-10 50.667 -10 84v35c0 33.333 3.33301 61.666 10 84.999s16.167 42.166 28.5 56.499s27.166 24.5 44.499 30.5s36.333 8.66699 57 8c20.667 0.666992 39.667 -2.16602 57 -8.49902s32.166 -16.666 44.499 -30.999
s21.833 -33 28.5 -56s10 -51.167 10 -84.5z" />
    <glyph glyph-name="Emacron" unicode="&#x112;" horiz-adv-x="636" 
d="M604 55l-210.999 0.00195312c-20.667 0 -41.334 2.66699 -62.001 8s-39.167 14.833 -55.5 28.5s-29.666 31.5 -39.999 53.5s-15.5 49.667 -15.5 83v151h273v46h-273v111c0 27.333 0.333008 50.666 1 69.999s3.16699 35.166 7.5 47.499s11 21.833 20 28.5s21.5 11 37.5 13
h319v55h-591v-42l10 -3c20 0 35.333 -2.66699 46 -8s18.667 -14.166 24 -26.499s8.5 -28.666 9.5 -48.999s1.5 -45.833 1.5 -76.5v-285c0 -80.667 24.667 -144.334 74 -191.001s120.666 -70.334 213.999 -71.001h211v57zM243.001 924.002v-75h253v75h-253z" />
    <glyph glyph-name="emacron" unicode="&#x113;" horiz-adv-x="538" 
d="M516 218c0 4 0.166992 9.16309 0.5 15.4961s0.5 11.166 0.5 14.499c1.33301 32.667 -3.66699 63.834 -15 93.501s-27.666 55.667 -48.999 78s-47 40 -77 53s-63.333 19.833 -100 20.5c-34.667 -1.33301 -66.667 -8.66602 -96 -21.999s-54.833 -31.166 -76.5 -53.499
s-38.5 -48.166 -50.5 -77.499s-18 -60.666 -18 -93.999c1.33301 -36 8.5 -69 21.5 -99s30.5 -55.833 52.5 -77.5s47.833 -38.5 77.5 -50.5s62.167 -18 97.5 -18c23.333 -1.33301 45.666 2 66.999 10s42.333 16.667 63 26l-8 33c-42 -11.333 -75.333 -17 -100 -17
c-30 0 -55 5.33301 -75 16s-36.167 24 -48.5 40s-21.333 33.667 -27 53s-9.5 38 -11.5 56h372zM272 435.996l2.00098 0.000976562c36.667 0 66.667 -12.333 90 -37s37.666 -64.334 42.999 -119.001h-262c2 20 6 39.333 12 58s14.167 35.167 24.5 49.5s23 26 38 35
s32.5 13.5 52.5 13.5zM148.001 670.997v-75h253v75h-253z" />
    <glyph glyph-name="Edotaccent" unicode="&#x116;" horiz-adv-x="636" 
d="M604 55l-210.999 0.00195312c-20.667 0 -41.334 2.66699 -62.001 8s-39.167 14.833 -55.5 28.5s-29.666 31.5 -39.999 53.5s-15.5 49.667 -15.5 83v151h273v46h-273v111c0 27.333 0.333008 50.666 1 69.999s3.16699 35.166 7.5 47.499s11 21.833 20 28.5s21.5 11 37.5 13
h319v55h-591v-42l10 -3c20 0 35.333 -2.66699 46 -8s18.667 -14.166 24 -26.499s8.5 -28.666 9.5 -48.999s1.5 -45.833 1.5 -76.5v-285c0 -80.667 24.667 -144.334 74 -191.001s120.666 -70.334 213.999 -71.001h211v57zM375.001 951.002
c-21.333 0 -36.5 -5.83301 -45.5 -17.5s-13.833 -25.167 -14.5 -40.5c0.666992 -15.333 5.5 -28.666 14.5 -39.999s24.167 -17 45.5 -17c20 0 34.333 5.66699 43 17s13.667 24.666 15 39.999c-1.33301 15.333 -6.33301 28.833 -15 40.5s-23 17.5 -43 17.5z" />
    <glyph glyph-name="edotaccent" unicode="&#x117;" horiz-adv-x="538" 
d="M516 218c0 4 0.166992 9.16309 0.5 15.4961s0.5 11.166 0.5 14.499c1.33301 32.667 -3.66699 63.834 -15 93.501s-27.666 55.667 -48.999 78s-47 40 -77 53s-63.333 19.833 -100 20.5c-34.667 -1.33301 -66.667 -8.66602 -96 -21.999s-54.833 -31.166 -76.5 -53.499
s-38.5 -48.166 -50.5 -77.499s-18 -60.666 -18 -93.999c1.33301 -36 8.5 -69 21.5 -99s30.5 -55.833 52.5 -77.5s47.833 -38.5 77.5 -50.5s62.167 -18 97.5 -18c23.333 -1.33301 45.666 2 66.999 10s42.333 16.667 63 26l-8 33c-42 -11.333 -75.333 -17 -100 -17
c-30 0 -55 5.33301 -75 16s-36.167 24 -48.5 40s-21.333 33.667 -27 53s-9.5 38 -11.5 56h372zM272 435.996l2.00098 0.000976562c36.667 0 66.667 -12.333 90 -37s37.666 -64.334 42.999 -119.001h-262c2 20 6 39.333 12 58s14.167 35.167 24.5 49.5s23 26 38 35
s32.5 13.5 52.5 13.5zM274.001 705.997c-21.333 0 -36.5 -5.83301 -45.5 -17.5s-13.833 -25.167 -14.5 -40.5c0.666992 -15.333 5.5 -28.666 14.5 -39.999s24.167 -17 45.5 -17c20 0 34.333 5.66699 43 17s13.667 24.666 15 39.999
c-1.33301 15.333 -6.33301 28.833 -15 40.5s-23 17.5 -43 17.5z" />
    <glyph glyph-name="Eogonek" unicode="&#x118;" horiz-adv-x="636" 
d="M604 55l-211.002 -0.00292969c-20.667 0 -41.334 2.66699 -62.001 8s-39.167 14.833 -55.5 28.5s-29.666 31.5 -39.999 53.5s-15.5 49.667 -15.5 83v151h273v46h-273v111c0 27.333 0.333008 50.666 1 69.999s3.16699 35.166 7.5 47.499s11 21.833 20 28.5
s21.5 11 37.5 13h319v55h-591v-42l10 -3c20 0 35.333 -2.66699 46 -8s18.667 -14.166 24 -26.499s8.5 -28.666 9.5 -48.999s1.5 -45.833 1.5 -76.5v-285c0 -40 6.33301 -76 19 -108s29.834 -59.333 51.501 -82s47 -40.167 76 -52.5s59.833 -18.833 92.5 -19.5
c-9.33301 -4.66699 -19 -10.5 -29 -17.5s-19.167 -15.667 -27.5 -26s-15.166 -22.333 -20.499 -36s-8.33301 -29.5 -9 -47.5c-0.666992 -18.667 2.83301 -35.5 10.5 -50.5s18.167 -28 31.5 -39s29 -19.667 47 -26s37.667 -9.5 59 -9.5c20 0 37.667 3.5 53 10.5
s28.166 15.5 38.499 25.5s18 20.333 23 31s7.5 19.334 7.5 26.001c0 14 -5.66699 21 -17 21c-5.33301 0 -10.166 -2.16699 -14.499 -6.5s-9.83301 -9.16602 -16.5 -14.499s-15 -10.166 -25 -14.499s-23.333 -6.5 -40 -6.5c-23.333 0 -41 6.16699 -53 18.5
s-18 26.833 -18 43.5c0 30 8.66699 54.667 26 74s38 34 62 44h172v57z" />
    <glyph glyph-name="eogonek" unicode="&#x119;" horiz-adv-x="538" 
d="M406 70c-42 -11.333 -75.333 -17.0039 -100 -17.0039c-30 0 -55 5.33301 -75 16s-36.167 24 -48.5 40s-21.333 33.667 -27 53s-9.5 38 -11.5 56h372c0 4 0.166992 9.16699 0.5 15.5s0.5 11.166 0.5 14.499c1.33301 32.667 -3.66699 63.834 -15 93.501
s-27.666 55.667 -48.999 78s-47 40 -77 53s-63.333 19.833 -100 20.5c-34.667 -1.33301 -66.667 -8.66602 -96 -21.999s-54.833 -31.166 -76.5 -53.499s-38.5 -48.166 -50.5 -77.499s-18 -60.666 -18 -93.999c1.33301 -33.333 7.5 -64 18.5 -92s26 -52.5 45 -73.5
s41.333 -38.167 67 -51.5s53.834 -22 84.501 -26c-14.667 -10.667 -27.5 -24.834 -38.5 -42.501s-16.833 -39.834 -17.5 -66.501c-0.666992 -18.667 2.83301 -35.5 10.5 -50.5s18.167 -28 31.5 -39s29 -19.667 47 -26s37.667 -9.5 59 -9.5c20 0 37.667 3.5 53 10.5
s28.166 15.5 38.499 25.5s18 20.333 23 31s7.5 19.334 7.5 26.001c0 14 -5.66699 21 -17 21c-5.33301 0 -10.166 -2.16699 -14.499 -6.5s-9.83301 -9.16602 -16.5 -14.499s-15 -10.166 -25 -14.499s-23.333 -6.5 -40 -6.5c-23.333 0 -41 6.16699 -53 18.5
s-18 26.833 -18 43.5c0 20 4.16699 37.167 12.5 51.5s19.166 26.666 32.499 36.999s28.166 19 44.499 26s32.5 12.833 48.5 17.5zM272 435.996l2.00098 0.000976562c36.667 0 66.667 -12.333 90 -37s37.666 -64.334 42.999 -119.001h-262c2 20 6 39.333 12 58
s14.167 35.167 24.5 49.5s23 26 38 35s32.5 13.5 52.5 13.5z" />
    <glyph glyph-name="Ecaron" unicode="&#x11a;" horiz-adv-x="636" 
d="M604 55l-210.999 0.00195312c-20.667 0 -41.334 2.66699 -62.001 8s-39.167 14.833 -55.5 28.5s-29.666 31.5 -39.999 53.5s-15.5 49.667 -15.5 83v151h273v46h-273v111c0 27.333 0.333008 50.666 1 69.999s3.16699 35.166 7.5 47.499s11 21.833 20 28.5s21.5 11 37.5 13
h319v55h-591v-42l10 -3c20 0 35.333 -2.66699 46 -8s18.667 -14.166 24 -26.499s8.5 -28.666 9.5 -48.999s1.5 -45.833 1.5 -76.5v-285c0 -80.667 24.667 -144.334 74 -191.001s120.666 -70.334 213.999 -71.001h211v57zM489.001 975.002l-7 17l-138 -86l-139 84l-7 -17
l144 -181z" />
    <glyph glyph-name="ecaron" unicode="&#x11b;" horiz-adv-x="538" 
d="M516 218c0 4 0.166992 9.16309 0.5 15.4961s0.5 11.166 0.5 14.499c1.33301 32.667 -3.66699 63.834 -15 93.501s-27.666 55.667 -48.999 78s-47 40 -77 53s-63.333 19.833 -100 20.5c-34.667 -1.33301 -66.667 -8.66602 -96 -21.999s-54.833 -31.166 -76.5 -53.499
s-38.5 -48.166 -50.5 -77.499s-18 -60.666 -18 -93.999c1.33301 -36 8.5 -69 21.5 -99s30.5 -55.833 52.5 -77.5s47.833 -38.5 77.5 -50.5s62.167 -18 97.5 -18c23.333 -1.33301 45.666 2 66.999 10s42.333 16.667 63 26l-8 33c-42 -11.333 -75.333 -17 -100 -17
c-30 0 -55 5.33301 -75 16s-36.167 24 -48.5 40s-21.333 33.667 -27 53s-9.5 38 -11.5 56h372zM272 435.996l2.00098 0.000976562c36.667 0 66.667 -12.333 90 -37s37.666 -64.334 42.999 -119.001h-262c2 20 6 39.333 12 58s14.167 35.167 24.5 49.5s23 26 38 35
s32.5 13.5 52.5 13.5zM417.001 732.997l-7 17l-138 -86l-139 84l-7 -17l144 -181z" />
    <glyph glyph-name="Gbreve" unicode="&#x11e;" horiz-adv-x="755" 
d="M431 -155l0.00488281 -45.0029h296v45h-10c-19.333 0 -34.5 2.66699 -45.5 8s-19.167 14 -24.5 26s-8.5 27.833 -9.5 47.5s-1.16699 44.167 -0.5 73.5v189c0 30.667 0.5 55.334 1.5 74.001s4.16699 33.167 9.5 43.5s14.166 17.333 26.499 21s29.5 5.5 51.5 5.5v45h-296
v-45c22 0 39.333 -0.166992 52 -0.5s22 -3.66602 28 -9.99902s9.66699 -17.666 11 -33.999s1.66602 -40.5 0.999023 -72.5v-110c-22 -13.333 -44.667 -22.5 -68 -27.5s-49 -7.5 -77 -7.5c-33.333 0 -63.5 6.83301 -90.5 20.5s-50 33.5 -69 59.5s-33.833 57.667 -44.5 95
s-16 79.666 -16 126.999c0 100 20.333 177.167 61 231.5s95.667 81.5 165 81.5c50.667 0 93.834 -14.333 129.501 -43s62.834 -76 81.501 -142h30c-6 27.333 -9.83301 53.833 -11.5 79.5s-2.83398 48.334 -3.50098 68.001s-1.16699 35.334 -1.5 47.001s-2.5 17.5 -6.5 17.5
c-16 0 -33.667 2 -53 6s-39.166 8.5 -59.499 13.5s-40.833 9.5 -61.5 13.5s-40.334 6 -59.001 6c-50 0 -95.833 -9.33301 -137.5 -28s-77.834 -44.834 -108.501 -78.501s-54.5 -74 -71.5 -121s-25.5 -98.833 -25.5 -155.5c0 -57.333 8 -109 24 -155
s38.667 -85.167 68 -117.5s64.666 -57.333 105.999 -75s87.666 -26.5 138.999 -26.5c61.333 0 114.666 17.667 159.999 53v-48c0 -29.333 -0.666992 -53.833 -2 -73.5s-5 -35.5 -11 -47.5s-15 -20.667 -27 -26s-29 -8 -51 -8zM380.005 848.997
c-11.333 0 -20.333 2.16699 -27 6.5s-11.667 10.166 -15 17.499s-5.83301 15.5 -7.5 24.5s-2.83398 18.5 -3.50098 28.5h-60c-1.33301 -16 0 -31.667 4 -47s10.833 -29 20.5 -41s21.834 -21.667 36.501 -29s32.334 -10.666 53.001 -9.99902
c22 0.666992 40.667 4.66699 56 12s27.666 17 36.999 29s16 25.5 20 40.5s6 30.167 6 45.5h-56c-1.33301 -9.33301 -3 -18.5 -5 -27.5s-5.33301 -17.167 -10 -24.5s-11 -13.333 -19 -18s-18 -7 -30 -7z" />
    </font>
</defs>
</svg>
